<?xml version="1.0" encoding="utf-8" standalone="no"?>
<!DOCTYPE svg PUBLIC "-//W3C//DTD SVG 1.1//EN"
  "http://www.w3.org/Graphics/SVG/1.1/DTD/svg11.dtd">
<svg xmlns:xlink="http://www.w3.org/1999/xlink" width="692.29375pt" height="415.617187pt" viewBox="0 0 692.29375 415.617187" xmlns="http://www.w3.org/2000/svg" version="1.1">
 <metadata>
  <rdf:RDF xmlns:dc="http://purl.org/dc/elements/1.1/" xmlns:cc="http://creativecommons.org/ns#" xmlns:rdf="http://www.w3.org/1999/02/22-rdf-syntax-ns#">
   <cc:Work>
    <dc:type rdf:resource="http://purl.org/dc/dcmitype/StillImage"/>
    <dc:date>2026-07-09T18:34:29.894573</dc:date>
    <dc:format>image/svg+xml</dc:format>
    <dc:creator>
     <cc:Agent>
      <dc:title>Matplotlib v3.10.8, https://matplotlib.org/</dc:title>
     </cc:Agent>
    </dc:creator>
   </cc:Work>
  </rdf:RDF>
 </metadata>
 <defs>
  <style type="text/css">*{stroke-linejoin: round; stroke-linecap: butt}</style>
 </defs>
 <g id="figure_1">
  <g id="patch_1">
   <path d="M 0 415.617187
L 692.29375 415.617187
L 692.29375 0
L 0 0
z
" style="fill: #fcfcfd"/>
  </g>
  <g id="axes_1">
   <g id="patch_2">
    <path d="M 115.93375 372.6
L 685.09375 372.6
L 685.09375 72.7632
L 115.93375 72.7632
z
" style="fill: #ffffff"/>
   </g>
   <g id="matplotlib.axis_1">
    <g id="xtick_1">
     <g id="text_1">
      <!-- −0.14 -->
      <g style="fill: #262626" transform="translate(103.352121 390.243437) scale(0.11 -0.11)">
       <defs>
        <path id="SegoeUI-2212" d="M 3663 1656
L 725 1656
L 725 2075
L 3663 2075
L 3663 1656
z
" transform="scale(0.015625)"/>
        <path id="SegoeUI-30" d="M 3188 2259
Q 3188 1697 3086 1262
Q 2984 828 2792 529
Q 2600 231 2320 76
Q 2041 -78 1684 -78
Q 1347 -78 1083 70
Q 819 219 637 503
Q 456 788 362 1202
Q 269 1616 269 2150
Q 269 2738 367 3188
Q 466 3638 656 3942
Q 847 4247 1130 4401
Q 1413 4556 1778 4556
Q 3188 4556 3188 2259
z
M 2663 2209
Q 2663 4122 1753 4122
Q 794 4122 794 2175
Q 794 359 1734 359
Q 2663 359 2663 2209
z
" transform="scale(0.015625)"/>
        <path id="SegoeUI-2e" d="M 697 -69
Q 553 -69 451 34
Q 350 138 350 281
Q 350 425 451 529
Q 553 634 697 634
Q 844 634 947 529
Q 1050 425 1050 281
Q 1050 138 947 34
Q 844 -69 697 -69
z
" transform="scale(0.015625)"/>
        <path id="SegoeUI-31" d="M 2263 0
L 1750 0
L 1750 3872
Q 1691 3813 1577 3736
Q 1463 3659 1320 3584
Q 1178 3509 1020 3443
Q 863 3378 713 3341
L 713 3859
Q 881 3906 1070 3986
Q 1259 4066 1442 4164
Q 1625 4263 1787 4370
Q 1950 4478 2069 4581
L 2263 4581
L 2263 0
z
" transform="scale(0.015625)"/>
        <path id="SegoeUI-34" d="M 2656 4481
L 2656 1522
L 3231 1522
L 3231 1053
L 2656 1053
L 2656 0
L 2150 0
L 2150 1053
L 44 1053
L 44 1497
Q 338 1828 638 2204
Q 938 2581 1211 2968
Q 1484 3356 1717 3742
Q 1950 4128 2109 4481
L 2656 4481
z
M 622 1522
L 2150 1522
L 2150 3716
Q 1916 3306 1706 2984
Q 1497 2663 1308 2400
Q 1119 2138 947 1925
Q 775 1713 622 1522
z
" transform="scale(0.015625)"/>
       </defs>
       <use xlink:href="#SegoeUI-2212"/>
       <use xlink:href="#SegoeUI-30" transform="translate(68.408203 0)"/>
       <use xlink:href="#SegoeUI-2e" transform="translate(122.314453 0)"/>
       <use xlink:href="#SegoeUI-31" transform="translate(143.994141 0)"/>
       <use xlink:href="#SegoeUI-34" transform="translate(197.900391 0)"/>
      </g>
     </g>
    </g>
    <g id="xtick_2">
     <g id="text_2">
      <!-- −0.12 -->
      <g style="fill: #262626" transform="translate(178.074745 390.243437) scale(0.11 -0.11)">
       <defs>
        <path id="SegoeUI-32" d="M 2413 3306
Q 2413 3513 2348 3666
Q 2284 3819 2173 3920
Q 2063 4022 1913 4072
Q 1763 4122 1588 4122
Q 1438 4122 1294 4081
Q 1150 4041 1014 3969
Q 878 3897 751 3797
Q 625 3697 516 3575
L 516 4125
Q 731 4334 998 4445
Q 1266 4556 1650 4556
Q 1925 4556 2159 4476
Q 2394 4397 2566 4244
Q 2738 4091 2836 3866
Q 2934 3641 2934 3350
Q 2934 3084 2873 2868
Q 2813 2653 2689 2462
Q 2566 2272 2378 2097
Q 2191 1922 1938 1741
Q 1622 1516 1417 1356
Q 1213 1197 1092 1058
Q 972 919 923 780
Q 875 641 875 459
L 3106 459
L 3106 0
L 341 0
L 341 222
Q 341 509 403 728
Q 466 947 609 1144
Q 753 1341 986 1537
Q 1219 1734 1556 1981
Q 1800 2156 1964 2315
Q 2128 2475 2228 2634
Q 2328 2794 2370 2958
Q 2413 3122 2413 3306
z
" transform="scale(0.015625)"/>
       </defs>
       <use xlink:href="#SegoeUI-2212"/>
       <use xlink:href="#SegoeUI-30" transform="translate(68.408203 0)"/>
       <use xlink:href="#SegoeUI-2e" transform="translate(122.314453 0)"/>
       <use xlink:href="#SegoeUI-31" transform="translate(143.994141 0)"/>
       <use xlink:href="#SegoeUI-32" transform="translate(197.900391 0)"/>
      </g>
     </g>
    </g>
    <g id="xtick_3">
     <g id="text_3">
      <!-- −0.10 -->
      <g style="fill: #262626" transform="translate(252.797369 390.243437) scale(0.11 -0.11)">
       <use xlink:href="#SegoeUI-2212"/>
       <use xlink:href="#SegoeUI-30" transform="translate(68.408203 0)"/>
       <use xlink:href="#SegoeUI-2e" transform="translate(122.314453 0)"/>
       <use xlink:href="#SegoeUI-31" transform="translate(143.994141 0)"/>
       <use xlink:href="#SegoeUI-30" transform="translate(197.900391 0)"/>
      </g>
     </g>
    </g>
    <g id="xtick_4">
     <g id="text_4">
      <!-- −0.08 -->
      <g style="fill: #262626" transform="translate(327.519993 390.243437) scale(0.11 -0.11)">
       <defs>
        <path id="SegoeUI-38" d="M 281 1250
Q 281 1428 337 1608
Q 394 1788 498 1944
Q 603 2100 758 2228
Q 913 2356 1109 2431
Q 819 2594 647 2848
Q 475 3103 475 3413
Q 475 3659 570 3868
Q 666 4078 834 4231
Q 1003 4384 1234 4470
Q 1466 4556 1734 4556
Q 2006 4556 2237 4468
Q 2469 4381 2637 4228
Q 2806 4075 2900 3865
Q 2994 3656 2994 3413
Q 2994 3103 2822 2848
Q 2650 2594 2366 2431
Q 2559 2356 2712 2228
Q 2866 2100 2970 1944
Q 3075 1788 3131 1608
Q 3188 1428 3188 1250
Q 3188 956 3081 712
Q 2975 469 2783 295
Q 2591 122 2323 25
Q 2056 -72 1734 -72
Q 1416 -72 1150 25
Q 884 122 690 295
Q 497 469 389 712
Q 281 956 281 1250
z
M 838 1294
Q 838 1084 902 915
Q 966 747 1083 628
Q 1200 509 1367 445
Q 1534 381 1738 381
Q 1934 381 2100 447
Q 2266 513 2386 631
Q 2506 750 2573 919
Q 2641 1088 2641 1294
Q 2641 1481 2577 1645
Q 2513 1809 2394 1934
Q 2275 2059 2109 2131
Q 1944 2203 1738 2203
Q 1544 2203 1380 2136
Q 1216 2069 1095 1948
Q 975 1828 906 1661
Q 838 1494 838 1294
z
M 997 3372
Q 997 3213 1055 3077
Q 1113 2941 1214 2839
Q 1316 2738 1450 2680
Q 1584 2622 1738 2622
Q 1891 2622 2027 2681
Q 2163 2741 2263 2842
Q 2363 2944 2422 3080
Q 2481 3216 2481 3372
Q 2481 3534 2423 3671
Q 2366 3809 2266 3909
Q 2166 4009 2030 4067
Q 1894 4125 1738 4125
Q 1572 4125 1436 4065
Q 1300 4006 1201 3904
Q 1103 3803 1050 3665
Q 997 3528 997 3372
z
" transform="scale(0.015625)"/>
       </defs>
       <use xlink:href="#SegoeUI-2212"/>
       <use xlink:href="#SegoeUI-30" transform="translate(68.408203 0)"/>
       <use xlink:href="#SegoeUI-2e" transform="translate(122.314453 0)"/>
       <use xlink:href="#SegoeUI-30" transform="translate(143.994141 0)"/>
       <use xlink:href="#SegoeUI-38" transform="translate(197.900391 0)"/>
      </g>
     </g>
    </g>
    <g id="xtick_5">
     <g id="text_5">
      <!-- −0.06 -->
      <g style="fill: #262626" transform="translate(402.242616 390.243437) scale(0.11 -0.11)">
       <defs>
        <path id="SegoeUI-36" d="M 3194 1422
Q 3194 1094 3087 819
Q 2981 544 2793 344
Q 2606 144 2347 33
Q 2088 -78 1784 -78
Q 1447 -78 1180 62
Q 913 203 727 467
Q 541 731 444 1112
Q 347 1494 347 1972
Q 347 2556 476 3032
Q 606 3509 845 3848
Q 1084 4188 1421 4372
Q 1759 4556 2175 4556
Q 2638 4556 2919 4428
L 2919 3944
Q 2572 4122 2188 4122
Q 1888 4122 1647 3987
Q 1406 3853 1234 3608
Q 1063 3363 970 3016
Q 878 2669 878 2244
L 891 2244
Q 1200 2803 1913 2803
Q 2206 2803 2442 2703
Q 2678 2603 2845 2420
Q 3013 2238 3103 1984
Q 3194 1731 3194 1422
z
M 2669 1356
Q 2669 1591 2609 1778
Q 2550 1966 2439 2097
Q 2328 2228 2165 2298
Q 2003 2369 1797 2369
Q 1606 2369 1443 2297
Q 1281 2225 1162 2101
Q 1044 1978 976 1814
Q 909 1650 909 1466
Q 909 1234 975 1032
Q 1041 831 1159 681
Q 1278 531 1442 445
Q 1606 359 1806 359
Q 2000 359 2159 432
Q 2319 506 2431 637
Q 2544 769 2606 951
Q 2669 1134 2669 1356
z
" transform="scale(0.015625)"/>
       </defs>
       <use xlink:href="#SegoeUI-2212"/>
       <use xlink:href="#SegoeUI-30" transform="translate(68.408203 0)"/>
       <use xlink:href="#SegoeUI-2e" transform="translate(122.314453 0)"/>
       <use xlink:href="#SegoeUI-30" transform="translate(143.994141 0)"/>
       <use xlink:href="#SegoeUI-36" transform="translate(197.900391 0)"/>
      </g>
     </g>
    </g>
    <g id="xtick_6">
     <g id="text_6">
      <!-- −0.04 -->
      <g style="fill: #262626" transform="translate(476.96524 390.243437) scale(0.11 -0.11)">
       <use xlink:href="#SegoeUI-2212"/>
       <use xlink:href="#SegoeUI-30" transform="translate(68.408203 0)"/>
       <use xlink:href="#SegoeUI-2e" transform="translate(122.314453 0)"/>
       <use xlink:href="#SegoeUI-30" transform="translate(143.994141 0)"/>
       <use xlink:href="#SegoeUI-34" transform="translate(197.900391 0)"/>
      </g>
     </g>
    </g>
    <g id="xtick_7">
     <g id="text_7">
      <!-- −0.02 -->
      <g style="fill: #262626" transform="translate(551.687864 390.243437) scale(0.11 -0.11)">
       <use xlink:href="#SegoeUI-2212"/>
       <use xlink:href="#SegoeUI-30" transform="translate(68.408203 0)"/>
       <use xlink:href="#SegoeUI-2e" transform="translate(122.314453 0)"/>
       <use xlink:href="#SegoeUI-30" transform="translate(143.994141 0)"/>
       <use xlink:href="#SegoeUI-32" transform="translate(197.900391 0)"/>
      </g>
     </g>
    </g>
    <g id="xtick_8">
     <g id="text_8">
      <!-- 0.00 -->
      <g style="fill: #262626" transform="translate(630.172832 390.243437) scale(0.11 -0.11)">
       <use xlink:href="#SegoeUI-30"/>
       <use xlink:href="#SegoeUI-2e" transform="translate(53.90625 0)"/>
       <use xlink:href="#SegoeUI-30" transform="translate(75.585938 0)"/>
       <use xlink:href="#SegoeUI-30" transform="translate(129.492188 0)"/>
      </g>
     </g>
    </g>
    <g id="text_9">
     <!-- Hệ số của Debt / Assets -->
     <g style="fill: #1f2430" transform="translate(337.692812 405.657187) scale(0.12 -0.12)">
      <defs>
       <path id="SegoeUI-48" d="M 3956 0
L 3431 0
L 3431 2044
L 1113 2044
L 1113 0
L 588 0
L 588 4481
L 1113 4481
L 1113 2516
L 3431 2516
L 3431 4481
L 3956 4481
L 3956 0
z
" transform="scale(0.015625)"/>
       <path id="SegoeUI-1ec7" d="M 3091 1472
L 831 1472
Q 844 938 1119 647
Q 1394 356 1875 356
Q 2416 356 2869 713
L 2869 231
Q 2447 -75 1753 -75
Q 1075 -75 687 361
Q 300 797 300 1588
Q 300 2334 723 2804
Q 1147 3275 1775 3275
Q 2403 3275 2747 2869
Q 3091 2463 3091 1741
L 3091 1472
z
M 2566 1906
Q 2563 2350 2352 2597
Q 2141 2844 1766 2844
Q 1403 2844 1150 2584
Q 897 2325 838 1906
L 2566 1906
z
M 2610 3806
L 2229 3806
L 1716 4525
L 1201 3806
L 848 3806
L 1519 4844
L 1935 4844
L 2610 3806
z
M 1810 -981
Q 1682 -981 1591 -890
Q 1500 -800 1500 -672
Q 1500 -544 1594 -458
Q 1688 -372 1810 -372
Q 1938 -372 2028 -458
Q 2119 -544 2119 -672
Q 2119 -800 2028 -890
Q 1938 -981 1810 -981
z
" transform="scale(0.015625)"/>
       <path id="SegoeUI-20" transform="scale(0.015625)"/>
       <path id="SegoeUI-73" d="M 325 116
L 325 666
Q 744 356 1247 356
Q 1922 356 1922 806
Q 1922 934 1864 1023
Q 1806 1113 1707 1181
Q 1609 1250 1476 1304
Q 1344 1359 1191 1419
Q 978 1503 817 1589
Q 656 1675 548 1783
Q 441 1891 386 2028
Q 331 2166 331 2350
Q 331 2575 434 2748
Q 538 2922 709 3039
Q 881 3156 1101 3215
Q 1322 3275 1556 3275
Q 1972 3275 2300 3131
L 2300 2613
Q 1947 2844 1488 2844
Q 1344 2844 1228 2811
Q 1113 2778 1030 2718
Q 947 2659 901 2576
Q 856 2494 856 2394
Q 856 2269 901 2184
Q 947 2100 1034 2034
Q 1122 1969 1247 1916
Q 1372 1863 1531 1800
Q 1744 1719 1912 1633
Q 2081 1547 2200 1439
Q 2319 1331 2383 1190
Q 2447 1050 2447 856
Q 2447 619 2342 444
Q 2238 269 2063 153
Q 1888 38 1659 -18
Q 1431 -75 1181 -75
Q 688 -75 325 116
z
" transform="scale(0.015625)"/>
       <path id="SegoeUI-1ed1" d="M 1856 -75
Q 1147 -75 723 373
Q 300 822 300 1563
Q 300 2369 740 2822
Q 1181 3275 1931 3275
Q 2647 3275 3048 2834
Q 3450 2394 3450 1613
Q 3450 847 3017 386
Q 2584 -75 1856 -75
z
M 1894 2844
Q 1400 2844 1112 2508
Q 825 2172 825 1581
Q 825 1013 1115 684
Q 1406 356 1894 356
Q 2391 356 2658 678
Q 2925 1000 2925 1594
Q 2925 2194 2658 2519
Q 2391 2844 1894 2844
z
M 2587 4281
L 3149 5050
L 3674 5050
L 2983 4281
L 2587 4281
z
M 2793 3806
L 2415 3806
L 1902 4269
L 1383 3806
L 1030 3806
L 1705 4588
L 2118 4588
L 2793 3806
z
" transform="scale(0.015625)"/>
       <path id="SegoeUI-63" d="M 2700 147
Q 2331 -75 1825 -75
Q 1141 -75 720 370
Q 300 816 300 1525
Q 300 2316 753 2795
Q 1206 3275 1963 3275
Q 2384 3275 2706 3119
L 2706 2594
Q 2350 2844 1944 2844
Q 1453 2844 1139 2492
Q 825 2141 825 1569
Q 825 1006 1120 681
Q 1416 356 1913 356
Q 2331 356 2700 634
L 2700 147
z
" transform="scale(0.015625)"/>
       <path id="SegoeUI-1ee7" d="M 3106 0
L 2594 0
L 2594 506
L 2581 506
Q 2263 -75 1594 -75
Q 450 -75 450 1288
L 450 3200
L 959 3200
L 959 1369
Q 959 356 1734 356
Q 2109 356 2351 632
Q 2594 909 2594 1356
L 2594 3200
L 3106 3200
L 3106 0
z
M 1438 4909
Q 1554 4922 1688 4922
Q 1963 4922 2140 4790
Q 2317 4659 2317 4438
Q 2317 4247 2196 4115
Q 2076 3984 1898 3963
L 1898 3806
L 1560 3806
L 1560 4166
Q 1910 4166 1910 4403
Q 1910 4600 1617 4600
Q 1563 4600 1438 4575
L 1438 4909
z
" transform="scale(0.015625)"/>
       <path id="SegoeUI-61" d="M 2809 0
L 2297 0
L 2297 500
L 2284 500
Q 1950 -75 1300 -75
Q 822 -75 551 178
Q 281 431 281 850
Q 281 1747 1338 1894
L 2297 2028
Q 2297 2844 1638 2844
Q 1059 2844 594 2450
L 594 2975
Q 1066 3275 1681 3275
Q 2809 3275 2809 2081
L 2809 0
z
M 2297 1619
L 1525 1513
Q 1169 1463 987 1336
Q 806 1209 806 888
Q 806 653 973 504
Q 1141 356 1419 356
Q 1800 356 2048 623
Q 2297 891 2297 1300
L 2297 1619
z
" transform="scale(0.015625)"/>
       <path id="SegoeUI-44" d="M 588 0
L 588 4481
L 1825 4481
Q 4194 4481 4194 2297
Q 4194 1259 3536 629
Q 2878 0 1775 0
L 588 0
z
M 1113 4006
L 1113 475
L 1781 475
Q 2663 475 3153 947
Q 3644 1419 3644 2284
Q 3644 4006 1813 4006
L 1113 4006
z
" transform="scale(0.015625)"/>
       <path id="SegoeUI-65" d="M 3091 1472
L 831 1472
Q 844 938 1119 647
Q 1394 356 1875 356
Q 2416 356 2869 713
L 2869 231
Q 2447 -75 1753 -75
Q 1075 -75 687 361
Q 300 797 300 1588
Q 300 2334 723 2804
Q 1147 3275 1775 3275
Q 2403 3275 2747 2869
Q 3091 2463 3091 1741
L 3091 1472
z
M 2566 1906
Q 2563 2350 2352 2597
Q 2141 2844 1766 2844
Q 1403 2844 1150 2584
Q 897 2325 838 1906
L 2566 1906
z
" transform="scale(0.015625)"/>
       <path id="SegoeUI-62" d="M 1044 463
L 1031 463
L 1031 0
L 519 0
L 519 4738
L 1031 4738
L 1031 2638
L 1044 2638
Q 1422 3275 2150 3275
Q 2766 3275 3114 2845
Q 3463 2416 3463 1694
Q 3463 891 3072 408
Q 2681 -75 2003 -75
Q 1369 -75 1044 463
z
M 1031 1753
L 1031 1306
Q 1031 909 1289 632
Q 1547 356 1944 356
Q 2409 356 2673 712
Q 2938 1069 2938 1703
Q 2938 2238 2691 2541
Q 2444 2844 2022 2844
Q 1575 2844 1303 2533
Q 1031 2222 1031 1753
z
" transform="scale(0.015625)"/>
       <path id="SegoeUI-74" d="M 2003 31
Q 1822 -69 1525 -69
Q 684 -69 684 869
L 684 2763
L 134 2763
L 134 3200
L 684 3200
L 684 3981
L 1197 4147
L 1197 3200
L 2003 3200
L 2003 2763
L 1197 2763
L 1197 959
Q 1197 638 1306 500
Q 1416 363 1669 363
Q 1863 363 2003 469
L 2003 31
z
" transform="scale(0.015625)"/>
       <path id="SegoeUI-2f" d="M 2541 4481
L 391 -744
L -88 -744
L 2056 4481
L 2541 4481
z
" transform="scale(0.015625)"/>
       <path id="SegoeUI-41" d="M 4056 0
L 3475 0
L 3000 1256
L 1100 1256
L 653 0
L 69 0
L 1788 4481
L 2331 4481
L 4056 0
z
M 2828 1728
L 2125 3638
Q 2091 3731 2056 3938
L 2044 3938
Q 2013 3747 1972 3638
L 1275 1728
L 2828 1728
z
" transform="scale(0.015625)"/>
      </defs>
      <use xlink:href="#SegoeUI-48"/>
      <use xlink:href="#SegoeUI-1ec7" transform="translate(70.996094 0)"/>
      <use xlink:href="#SegoeUI-20" transform="translate(123.291016 0)"/>
      <use xlink:href="#SegoeUI-73" transform="translate(150.683594 0)"/>
      <use xlink:href="#SegoeUI-1ed1" transform="translate(193.115234 0)"/>
      <use xlink:href="#SegoeUI-20" transform="translate(251.708984 0)"/>
      <use xlink:href="#SegoeUI-63" transform="translate(279.101562 0)"/>
      <use xlink:href="#SegoeUI-1ee7" transform="translate(325.292969 0)"/>
      <use xlink:href="#SegoeUI-61" transform="translate(381.884766 0)"/>
      <use xlink:href="#SegoeUI-20" transform="translate(432.763672 0)"/>
      <use xlink:href="#SegoeUI-44" transform="translate(460.15625 0)"/>
      <use xlink:href="#SegoeUI-65" transform="translate(530.273438 0)"/>
      <use xlink:href="#SegoeUI-62" transform="translate(582.568359 0)"/>
      <use xlink:href="#SegoeUI-74" transform="translate(641.357422 0)"/>
      <use xlink:href="#SegoeUI-20" transform="translate(675.244141 0)"/>
      <use xlink:href="#SegoeUI-2f" transform="translate(702.636719 0)"/>
      <use xlink:href="#SegoeUI-20" transform="translate(741.601562 0)"/>
      <use xlink:href="#SegoeUI-41" transform="translate(768.994141 0)"/>
      <use xlink:href="#SegoeUI-73" transform="translate(833.496094 0)"/>
      <use xlink:href="#SegoeUI-73" transform="translate(875.927734 0)"/>
      <use xlink:href="#SegoeUI-65" transform="translate(918.359375 0)"/>
      <use xlink:href="#SegoeUI-74" transform="translate(970.654297 0)"/>
      <use xlink:href="#SegoeUI-73" transform="translate(1004.541016 0)"/>
     </g>
    </g>
   </g>
   <g id="matplotlib.axis_2">
    <g id="ytick_1">
     <g id="text_10">
      <!-- DML Random Forest -->
      <g style="fill: #262626" transform="translate(7.2 363.042773) scale(0.11 -0.11)">
       <defs>
        <path id="SegoeUI-4d" d="M 5156 0
L 4634 0
L 4634 3006
Q 4634 3363 4678 3878
L 4666 3878
Q 4591 3575 4531 3444
L 3000 0
L 2744 0
L 1216 3419
Q 1150 3569 1081 3878
L 1069 3878
Q 1094 3609 1094 3000
L 1094 0
L 588 0
L 588 4481
L 1281 4481
L 2656 1356
Q 2816 997 2863 819
L 2881 819
Q 3016 1188 3097 1369
L 4500 4481
L 5156 4481
L 5156 0
z
" transform="scale(0.015625)"/>
        <path id="SegoeUI-4c" d="M 2913 0
L 588 0
L 588 4481
L 1113 4481
L 1113 475
L 2913 475
L 2913 0
z
" transform="scale(0.015625)"/>
        <path id="SegoeUI-52" d="M 3800 0
L 3175 0
L 2425 1256
Q 2322 1431 2225 1554
Q 2128 1678 2026 1756
Q 1925 1834 1808 1870
Q 1691 1906 1544 1906
L 1113 1906
L 1113 0
L 588 0
L 588 4481
L 1925 4481
Q 2219 4481 2467 4407
Q 2716 4334 2898 4184
Q 3081 4034 3184 3811
Q 3288 3588 3288 3288
Q 3288 3053 3217 2858
Q 3147 2663 3017 2509
Q 2888 2356 2705 2248
Q 2522 2141 2294 2081
L 2294 2069
Q 2406 2019 2489 1955
Q 2572 1891 2647 1803
Q 2722 1716 2795 1605
Q 2869 1494 2959 1347
L 3800 0
z
M 1113 4006
L 1113 2381
L 1825 2381
Q 2022 2381 2189 2440
Q 2356 2500 2478 2611
Q 2600 2722 2669 2883
Q 2738 3044 2738 3244
Q 2738 3603 2505 3804
Q 2272 4006 1831 4006
L 1113 4006
z
" transform="scale(0.015625)"/>
        <path id="SegoeUI-6e" d="M 3175 0
L 2663 0
L 2663 1825
Q 2663 2844 1919 2844
Q 1534 2844 1282 2555
Q 1031 2266 1031 1825
L 1031 0
L 519 0
L 519 3200
L 1031 3200
L 1031 2669
L 1044 2669
Q 1406 3275 2094 3275
Q 2619 3275 2897 2936
Q 3175 2597 3175 1956
L 3175 0
z
" transform="scale(0.015625)"/>
        <path id="SegoeUI-64" d="M 3250 0
L 2738 0
L 2738 544
L 2725 544
Q 2369 -75 1625 -75
Q 1022 -75 661 354
Q 300 784 300 1525
Q 300 2319 700 2797
Q 1100 3275 1766 3275
Q 2425 3275 2725 2756
L 2738 2756
L 2738 4738
L 3250 4738
L 3250 0
z
M 2738 1447
L 2738 1919
Q 2738 2306 2481 2575
Q 2225 2844 1831 2844
Q 1363 2844 1094 2500
Q 825 2156 825 1550
Q 825 997 1083 676
Q 1341 356 1775 356
Q 2203 356 2470 665
Q 2738 975 2738 1447
z
" transform="scale(0.015625)"/>
        <path id="SegoeUI-6f" d="M 1856 -75
Q 1147 -75 723 373
Q 300 822 300 1563
Q 300 2369 740 2822
Q 1181 3275 1931 3275
Q 2647 3275 3048 2834
Q 3450 2394 3450 1613
Q 3450 847 3017 386
Q 2584 -75 1856 -75
z
M 1894 2844
Q 1400 2844 1112 2508
Q 825 2172 825 1581
Q 825 1013 1115 684
Q 1406 356 1894 356
Q 2391 356 2658 678
Q 2925 1000 2925 1594
Q 2925 2194 2658 2519
Q 2391 2844 1894 2844
z
" transform="scale(0.015625)"/>
        <path id="SegoeUI-6d" d="M 5063 0
L 4550 0
L 4550 1838
Q 4550 2369 4386 2606
Q 4222 2844 3834 2844
Q 3506 2844 3276 2544
Q 3047 2244 3047 1825
L 3047 0
L 2534 0
L 2534 1900
Q 2534 2844 1806 2844
Q 1469 2844 1250 2561
Q 1031 2278 1031 1825
L 1031 0
L 519 0
L 519 3200
L 1031 3200
L 1031 2694
L 1044 2694
Q 1384 3275 2038 3275
Q 2366 3275 2609 3092
Q 2853 2909 2944 2613
Q 3300 3275 4006 3275
Q 5063 3275 5063 1972
L 5063 0
z
" transform="scale(0.015625)"/>
        <path id="SegoeUI-46" d="M 2863 4006
L 1113 4006
L 1113 2456
L 2731 2456
L 2731 1984
L 1113 1984
L 1113 0
L 588 0
L 588 4481
L 2863 4481
L 2863 4006
z
" transform="scale(0.015625)"/>
        <path id="SegoeUI-72" d="M 2188 2681
Q 2053 2784 1800 2784
Q 1472 2784 1251 2475
Q 1031 2166 1031 1631
L 1031 0
L 519 0
L 519 3200
L 1031 3200
L 1031 2541
L 1044 2541
Q 1153 2878 1378 3067
Q 1603 3256 1881 3256
Q 2081 3256 2188 3213
L 2188 2681
z
" transform="scale(0.015625)"/>
       </defs>
       <use xlink:href="#SegoeUI-44"/>
       <use xlink:href="#SegoeUI-4d" transform="translate(70.117188 0)"/>
       <use xlink:href="#SegoeUI-4c" transform="translate(159.912109 0)"/>
       <use xlink:href="#SegoeUI-20" transform="translate(206.982422 0)"/>
       <use xlink:href="#SegoeUI-52" transform="translate(234.375 0)"/>
       <use xlink:href="#SegoeUI-61" transform="translate(294.189453 0)"/>
       <use xlink:href="#SegoeUI-6e" transform="translate(345.068359 0)"/>
       <use xlink:href="#SegoeUI-64" transform="translate(401.660156 0)"/>
       <use xlink:href="#SegoeUI-6f" transform="translate(460.546875 0)"/>
       <use xlink:href="#SegoeUI-6d" transform="translate(519.140625 0)"/>
       <use xlink:href="#SegoeUI-20" transform="translate(605.273438 0)"/>
       <use xlink:href="#SegoeUI-46" transform="translate(632.666016 0)"/>
       <use xlink:href="#SegoeUI-6f" transform="translate(681.494141 0)"/>
       <use xlink:href="#SegoeUI-72" transform="translate(740.087891 0)"/>
       <use xlink:href="#SegoeUI-65" transform="translate(773.478516 0)"/>
       <use xlink:href="#SegoeUI-73" transform="translate(825.773438 0)"/>
       <use xlink:href="#SegoeUI-74" transform="translate(868.205078 0)"/>
      </g>
     </g>
    </g>
    <g id="ytick_2">
     <g id="text_11">
      <!-- DML ElasticNet -->
      <g style="fill: #262626" transform="translate(32.974375 308.526991) scale(0.11 -0.11)">
       <defs>
        <path id="SegoeUI-45" d="M 2963 0
L 588 0
L 588 4481
L 2863 4481
L 2863 4006
L 1113 4006
L 1113 2516
L 2731 2516
L 2731 2044
L 1113 2044
L 1113 475
L 2963 475
L 2963 0
z
" transform="scale(0.015625)"/>
        <path id="SegoeUI-6c" d="M 1031 0
L 519 0
L 519 4738
L 1031 4738
L 1031 0
z
" transform="scale(0.015625)"/>
        <path id="SegoeUI-69" d="M 781 4013
Q 644 4013 547 4106
Q 450 4200 450 4344
Q 450 4488 547 4583
Q 644 4678 781 4678
Q 922 4678 1020 4583
Q 1119 4488 1119 4344
Q 1119 4206 1020 4109
Q 922 4013 781 4013
z
M 1031 0
L 519 0
L 519 3200
L 1031 3200
L 1031 0
z
" transform="scale(0.015625)"/>
        <path id="SegoeUI-4e" d="M 4200 0
L 3556 0
L 1250 3572
Q 1163 3706 1106 3853
L 1088 3853
Q 1113 3709 1113 3238
L 1113 0
L 588 0
L 588 4481
L 1269 4481
L 3513 966
Q 3653 747 3694 666
L 3706 666
Q 3675 859 3675 1325
L 3675 4481
L 4200 4481
L 4200 0
z
" transform="scale(0.015625)"/>
       </defs>
       <use xlink:href="#SegoeUI-44"/>
       <use xlink:href="#SegoeUI-4d" transform="translate(70.117188 0)"/>
       <use xlink:href="#SegoeUI-4c" transform="translate(159.912109 0)"/>
       <use xlink:href="#SegoeUI-20" transform="translate(206.982422 0)"/>
       <use xlink:href="#SegoeUI-45" transform="translate(234.375 0)"/>
       <use xlink:href="#SegoeUI-6c" transform="translate(284.960938 0)"/>
       <use xlink:href="#SegoeUI-61" transform="translate(309.179688 0)"/>
       <use xlink:href="#SegoeUI-73" transform="translate(360.058594 0)"/>
       <use xlink:href="#SegoeUI-74" transform="translate(402.490234 0)"/>
       <use xlink:href="#SegoeUI-69" transform="translate(436.376953 0)"/>
       <use xlink:href="#SegoeUI-63" transform="translate(460.595703 0)"/>
       <use xlink:href="#SegoeUI-4e" transform="translate(506.787109 0)"/>
       <use xlink:href="#SegoeUI-65" transform="translate(581.591797 0)"/>
       <use xlink:href="#SegoeUI-74" transform="translate(633.886719 0)"/>
      </g>
     </g>
    </g>
    <g id="ytick_3">
     <g id="text_12">
      <!-- DML Lasso -->
      <g style="fill: #262626" transform="translate(54.094375 254.01121) scale(0.11 -0.11)">
       <use xlink:href="#SegoeUI-44"/>
       <use xlink:href="#SegoeUI-4d" transform="translate(70.117188 0)"/>
       <use xlink:href="#SegoeUI-4c" transform="translate(159.912109 0)"/>
       <use xlink:href="#SegoeUI-20" transform="translate(206.982422 0)"/>
       <use xlink:href="#SegoeUI-4c" transform="translate(234.375 0)"/>
       <use xlink:href="#SegoeUI-61" transform="translate(281.445312 0)"/>
       <use xlink:href="#SegoeUI-73" transform="translate(332.324219 0)"/>
       <use xlink:href="#SegoeUI-73" transform="translate(374.755859 0)"/>
       <use xlink:href="#SegoeUI-6f" transform="translate(417.1875 0)"/>
      </g>
     </g>
    </g>
    <g id="ytick_4">
     <g id="text_13">
      <!-- Two-way FE -->
      <g style="fill: #262626" transform="translate(49.692656 199.466209) scale(0.11 -0.11)">
       <defs>
        <path id="SegoeUI-54" d="M 3238 4006
L 1944 4006
L 1944 0
L 1419 0
L 1419 4006
L 128 4006
L 128 4481
L 3238 4481
L 3238 4006
z
" transform="scale(0.015625)"/>
        <path id="SegoeUI-77" d="M 4550 3200
L 3591 0
L 3059 0
L 2400 2291
Q 2363 2422 2350 2588
L 2338 2588
Q 2328 2475 2272 2297
L 1556 0
L 1044 0
L 75 3200
L 613 3200
L 1275 794
Q 1306 684 1319 506
L 1344 506
Q 1353 644 1400 800
L 2138 3200
L 2606 3200
L 3269 788
Q 3300 672 3316 500
L 3341 500
Q 3347 622 3394 788
L 4044 3200
L 4550 3200
z
" transform="scale(0.015625)"/>
        <path id="SegoeUI-2d" d="M 2156 1581
L 450 1581
L 450 1984
L 2156 1984
L 2156 1581
z
" transform="scale(0.015625)"/>
        <path id="SegoeUI-79" d="M 3066 3200
L 1594 -513
Q 1200 -1506 488 -1506
Q 288 -1506 153 -1466
L 153 -1006
Q 319 -1063 456 -1063
Q 844 -1063 1038 -600
L 1294 6
L 44 3200
L 613 3200
L 1478 738
Q 1494 691 1544 494
L 1563 494
Q 1578 569 1625 731
L 2534 3200
L 3066 3200
z
" transform="scale(0.015625)"/>
       </defs>
       <use xlink:href="#SegoeUI-54"/>
       <use xlink:href="#SegoeUI-77" transform="translate(46.892578 0)"/>
       <use xlink:href="#SegoeUI-6f" transform="translate(118.908203 0)"/>
       <use xlink:href="#SegoeUI-2d" transform="translate(177.501953 0)"/>
       <use xlink:href="#SegoeUI-77" transform="translate(217.492188 0)"/>
       <use xlink:href="#SegoeUI-61" transform="translate(289.757812 0)"/>
       <use xlink:href="#SegoeUI-79" transform="translate(340.636719 0)"/>
       <use xlink:href="#SegoeUI-20" transform="translate(389.025391 0)"/>
       <use xlink:href="#SegoeUI-46" transform="translate(416.417969 0)"/>
       <use xlink:href="#SegoeUI-45" transform="translate(465.246094 0)"/>
      </g>
     </g>
    </g>
    <g id="ytick_5">
     <g id="text_14">
      <!-- Entity FE -->
      <g style="fill: #262626" transform="translate(65.250781 144.950427) scale(0.11 -0.11)">
       <use xlink:href="#SegoeUI-45"/>
       <use xlink:href="#SegoeUI-6e" transform="translate(50.585938 0)"/>
       <use xlink:href="#SegoeUI-74" transform="translate(107.177734 0)"/>
       <use xlink:href="#SegoeUI-69" transform="translate(141.064453 0)"/>
       <use xlink:href="#SegoeUI-74" transform="translate(165.283203 0)"/>
       <use xlink:href="#SegoeUI-79" transform="translate(199.169922 0)"/>
       <use xlink:href="#SegoeUI-20" transform="translate(247.558594 0)"/>
       <use xlink:href="#SegoeUI-46" transform="translate(274.951172 0)"/>
       <use xlink:href="#SegoeUI-45" transform="translate(323.779297 0)"/>
      </g>
     </g>
    </g>
    <g id="ytick_6">
     <g id="text_15">
      <!-- Pooled OLS -->
      <g style="fill: #262626" transform="translate(50.572656 90.463864) scale(0.11 -0.11)">
       <defs>
        <path id="SegoeUI-50" d="M 1113 1694
L 1113 0
L 588 0
L 588 4481
L 1819 4481
Q 2538 4481 2933 4131
Q 3328 3781 3328 3144
Q 3328 2506 2889 2100
Q 2450 1694 1703 1694
L 1113 1694
z
M 1113 4006
L 1113 2169
L 1663 2169
Q 2206 2169 2492 2417
Q 2778 2666 2778 3119
Q 2778 4006 1728 4006
L 1113 4006
z
" transform="scale(0.015625)"/>
        <path id="SegoeUI-4f" d="M 2394 -75
Q 1441 -75 867 553
Q 294 1181 294 2188
Q 294 3269 878 3912
Q 1463 4556 2469 4556
Q 3397 4556 3964 3931
Q 4531 3306 4531 2297
Q 4531 1200 3950 562
Q 3369 -75 2394 -75
z
M 2431 4081
Q 1725 4081 1284 3572
Q 844 3063 844 2234
Q 844 1406 1273 901
Q 1703 397 2394 397
Q 3131 397 3556 878
Q 3981 1359 3981 2225
Q 3981 3113 3568 3597
Q 3156 4081 2431 4081
z
" transform="scale(0.015625)"/>
        <path id="SegoeUI-53" d="M 378 181
L 378 800
Q 484 706 632 631
Q 781 556 945 504
Q 1109 453 1275 425
Q 1441 397 1581 397
Q 2066 397 2305 576
Q 2544 756 2544 1094
Q 2544 1275 2464 1409
Q 2384 1544 2243 1655
Q 2103 1766 1911 1867
Q 1719 1969 1497 2081
Q 1263 2200 1059 2322
Q 856 2444 706 2591
Q 556 2738 470 2923
Q 384 3109 384 3359
Q 384 3666 518 3892
Q 653 4119 872 4266
Q 1091 4413 1370 4484
Q 1650 4556 1941 4556
Q 2603 4556 2906 4397
L 2906 3806
Q 2509 4081 1888 4081
Q 1716 4081 1544 4045
Q 1372 4009 1237 3928
Q 1103 3847 1018 3719
Q 934 3591 934 3406
Q 934 3234 998 3109
Q 1063 2984 1188 2881
Q 1313 2778 1492 2681
Q 1672 2584 1906 2469
Q 2147 2350 2362 2219
Q 2578 2088 2740 1928
Q 2903 1769 2998 1575
Q 3094 1381 3094 1131
Q 3094 800 2964 570
Q 2834 341 2614 197
Q 2394 53 2106 -11
Q 1819 -75 1500 -75
Q 1394 -75 1237 -58
Q 1081 -41 918 -8
Q 756 25 611 73
Q 466 122 378 181
z
" transform="scale(0.015625)"/>
       </defs>
       <use xlink:href="#SegoeUI-50"/>
       <use xlink:href="#SegoeUI-6f" transform="translate(52.255859 0)"/>
       <use xlink:href="#SegoeUI-6f" transform="translate(110.849609 0)"/>
       <use xlink:href="#SegoeUI-6c" transform="translate(169.443359 0)"/>
       <use xlink:href="#SegoeUI-65" transform="translate(193.662109 0)"/>
       <use xlink:href="#SegoeUI-64" transform="translate(245.957031 0)"/>
       <use xlink:href="#SegoeUI-20" transform="translate(304.84375 0)"/>
       <use xlink:href="#SegoeUI-4f" transform="translate(332.236328 0)"/>
       <use xlink:href="#SegoeUI-4c" transform="translate(407.626953 0)"/>
       <use xlink:href="#SegoeUI-53" transform="translate(454.697266 0)"/>
      </g>
     </g>
    </g>
   </g>
   <g id="line2d_1">
    <path d="M 640.260176 372.6
L 640.260176 72.7632
" clip-path="url(#p66491530a9)" style="fill: none; stroke-dasharray: 1,1.65; stroke-dashoffset: 0; stroke: #1f2430"/>
   </g>
   <g id="LineCollection_1">
    <path d="M 389.041462 358.971055
L 533.903955 358.971055
" clip-path="url(#p66491530a9)" style="fill: none; stroke: #736422"/>
   </g>
   <g id="line2d_2">
    <defs>
     <path id="ma59443e6fb" d="M 0 3
L 0 -3
" style="stroke: #736422"/>
    </defs>
    <g clip-path="url(#p66491530a9)">
     <use xlink:href="#ma59443e6fb" x="389.041462" y="358.971055" style="fill: #736422; stroke: #736422"/>
    </g>
   </g>
   <g id="line2d_3">
    <g clip-path="url(#p66491530a9)">
     <use xlink:href="#ma59443e6fb" x="533.903955" y="358.971055" style="fill: #736422; stroke: #736422"/>
    </g>
   </g>
   <g id="LineCollection_2">
    <path d="M 296.144386 304.455273
L 452.769792 304.455273
" clip-path="url(#p66491530a9)" style="fill: none; stroke: #464c55"/>
   </g>
   <g id="line2d_4">
    <defs>
     <path id="m440292486a" d="M 0 3
L 0 -3
" style="stroke: #464c55"/>
    </defs>
    <g clip-path="url(#p66491530a9)">
     <use xlink:href="#m440292486a" x="296.144386" y="304.455273" style="fill: #464c55; stroke: #464c55"/>
    </g>
   </g>
   <g id="line2d_5">
    <g clip-path="url(#p66491530a9)">
     <use xlink:href="#m440292486a" x="452.769792" y="304.455273" style="fill: #464c55; stroke: #464c55"/>
    </g>
   </g>
   <g id="LineCollection_3">
    <path d="M 296.078176 249.939491
L 452.697364 249.939491
" clip-path="url(#p66491530a9)" style="fill: none; stroke: #464c55"/>
   </g>
   <g id="line2d_6">
    <g clip-path="url(#p66491530a9)">
     <use xlink:href="#m440292486a" x="296.078176" y="249.939491" style="fill: #464c55; stroke: #464c55"/>
    </g>
   </g>
   <g id="line2d_7">
    <g clip-path="url(#p66491530a9)">
     <use xlink:href="#m440292486a" x="452.697364" y="249.939491" style="fill: #464c55; stroke: #464c55"/>
    </g>
   </g>
   <g id="LineCollection_4">
    <path d="M 291.63115 195.423709
L 447.445939 195.423709
" clip-path="url(#p66491530a9)" style="fill: none; stroke: #464c55"/>
   </g>
   <g id="line2d_8">
    <g clip-path="url(#p66491530a9)">
     <use xlink:href="#m440292486a" x="291.63115" y="195.423709" style="fill: #464c55; stroke: #464c55"/>
    </g>
   </g>
   <g id="line2d_9">
    <g clip-path="url(#p66491530a9)">
     <use xlink:href="#m440292486a" x="447.445939" y="195.423709" style="fill: #464c55; stroke: #464c55"/>
    </g>
   </g>
   <g id="LineCollection_5">
    <path d="M 394.518161 140.907927
L 543.177568 140.907927
" clip-path="url(#p66491530a9)" style="fill: none; stroke: #464c55"/>
   </g>
   <g id="line2d_10">
    <g clip-path="url(#p66491530a9)">
     <use xlink:href="#m440292486a" x="394.518161" y="140.907927" style="fill: #464c55; stroke: #464c55"/>
    </g>
   </g>
   <g id="line2d_11">
    <g clip-path="url(#p66491530a9)">
     <use xlink:href="#m440292486a" x="543.177568" y="140.907927" style="fill: #464c55; stroke: #464c55"/>
    </g>
   </g>
   <g id="LineCollection_6">
    <path d="M 160.767324 86.392145
L 290.414608 86.392145
" clip-path="url(#p66491530a9)" style="fill: none; stroke: #464c55"/>
   </g>
   <g id="line2d_12">
    <g clip-path="url(#p66491530a9)">
     <use xlink:href="#m440292486a" x="160.767324" y="86.392145" style="fill: #464c55; stroke: #464c55"/>
    </g>
   </g>
   <g id="line2d_13">
    <g clip-path="url(#p66491530a9)">
     <use xlink:href="#m440292486a" x="290.414608" y="86.392145" style="fill: #464c55; stroke: #464c55"/>
    </g>
   </g>
   <g id="line2d_14">
    <defs>
     <path id="m708e4ea462" d="M 0 3.5
C 0.928211 3.5 1.81853 3.131218 2.474874 2.474874
C 3.131218 1.81853 3.5 0.928211 3.5 0
C 3.5 -0.928211 3.131218 -1.81853 2.474874 -2.474874
C 1.81853 -3.131218 0.928211 -3.5 0 -3.5
C -0.928211 -3.5 -1.81853 -3.131218 -2.474874 -2.474874
C -3.131218 -1.81853 -3.5 -0.928211 -3.5 0
C -3.5 0.928211 -3.131218 1.81853 -2.474874 2.474874
C -1.81853 3.131218 -0.928211 3.5 0 3.5
z
" style="stroke: #736422"/>
    </defs>
    <g clip-path="url(#p66491530a9)">
     <use xlink:href="#m708e4ea462" x="461.403332" y="358.971055" style="fill: #ffe15b; stroke: #736422"/>
    </g>
   </g>
   <g id="line2d_15">
    <defs>
     <path id="m5031097e70" d="M 0 3
C 0.795609 3 1.55874 2.683901 2.12132 2.12132
C 2.683901 1.55874 3 0.795609 3 0
C 3 -0.795609 2.683901 -1.55874 2.12132 -2.12132
C 1.55874 -2.683901 0.795609 -3 0 -3
C -0.795609 -3 -1.55874 -2.683901 -2.12132 -2.12132
C -2.683901 -1.55874 -3 -0.795609 -3 0
C -3 0.795609 -2.683901 1.55874 -2.12132 2.12132
C -1.55874 2.683901 -0.795609 3 0 3
z
" style="stroke: #464c55"/>
    </defs>
    <g clip-path="url(#p66491530a9)">
     <use xlink:href="#m5031097e70" x="374.46813" y="304.455273" style="fill: #ffffff; stroke: #464c55"/>
    </g>
   </g>
   <g id="line2d_16">
    <g clip-path="url(#p66491530a9)">
     <use xlink:href="#m5031097e70" x="374.39029" y="249.939491" style="fill: #ffffff; stroke: #464c55"/>
    </g>
   </g>
   <g id="line2d_17">
    <g clip-path="url(#p66491530a9)">
     <use xlink:href="#m5031097e70" x="369.538545" y="195.423709" style="fill: #ffffff; stroke: #464c55"/>
    </g>
   </g>
   <g id="line2d_18">
    <g clip-path="url(#p66491530a9)">
     <use xlink:href="#m5031097e70" x="468.847865" y="140.907927" style="fill: #ffffff; stroke: #464c55"/>
    </g>
   </g>
   <g id="line2d_19">
    <g clip-path="url(#p66491530a9)">
     <use xlink:href="#m5031097e70" x="225.590966" y="86.392145" style="fill: #ffffff; stroke: #464c55"/>
    </g>
   </g>
   <g id="patch_3">
    <path d="M 115.93375 372.6
L 115.93375 72.7632
" style="fill: none; stroke: #d7dbe7; stroke-width: 1.25; stroke-linejoin: miter; stroke-linecap: square"/>
   </g>
   <g id="patch_4">
    <path d="M 115.93375 372.6
L 685.09375 372.6
" style="fill: none; stroke: #d7dbe7; stroke-width: 1.25; stroke-linejoin: miter; stroke-linecap: square"/>
   </g>
   <g id="text_16">
    <!-- -0.0479 -->
    <g style="fill: #1f2430" transform="translate(546.980414 361.05289) scale(0.085 -0.085)">
     <defs>
      <path id="Consolas-2d" d="M 2694 1447
L 825 1447
L 825 1959
L 2694 1959
L 2694 1447
z
" transform="scale(0.015625)"/>
      <path id="Consolas-30" d="M 3244 2041
Q 3244 1572 3150 1186
Q 3056 800 2865 523
Q 2675 247 2392 95
Q 2109 -56 1728 -56
Q 1400 -56 1131 67
Q 863 191 672 447
Q 481 703 378 1100
Q 275 1497 275 2041
Q 275 2509 370 2896
Q 466 3284 655 3561
Q 844 3838 1128 3989
Q 1413 4141 1791 4141
Q 2119 4141 2387 4017
Q 2656 3894 2847 3636
Q 3038 3378 3141 2981
Q 3244 2584 3244 2041
z
M 2694 2022
Q 2694 2128 2686 2233
Q 2678 2338 2669 2438
L 941 1153
Q 988 991 1059 853
Q 1131 716 1232 617
Q 1334 519 1464 464
Q 1594 409 1759 409
Q 1972 409 2145 512
Q 2319 616 2441 819
Q 2563 1022 2628 1323
Q 2694 1625 2694 2022
z
M 825 2059
Q 825 1963 826 1866
Q 828 1769 838 1678
L 2566 2956
Q 2519 3116 2447 3247
Q 2375 3378 2275 3473
Q 2175 3569 2047 3622
Q 1919 3675 1759 3675
Q 1547 3675 1373 3572
Q 1200 3469 1078 3264
Q 956 3059 890 2757
Q 825 2456 825 2059
z
" transform="scale(0.015625)"/>
      <path id="Consolas-2e" d="M 1734 984
Q 1841 984 1936 943
Q 2031 903 2101 831
Q 2172 759 2212 664
Q 2253 569 2253 459
Q 2253 353 2212 259
Q 2172 166 2101 95
Q 2031 25 1936 -15
Q 1841 -56 1734 -56
Q 1625 -56 1531 -15
Q 1438 25 1367 95
Q 1297 166 1256 259
Q 1216 353 1216 459
Q 1216 569 1256 664
Q 1297 759 1367 831
Q 1438 903 1531 943
Q 1625 984 1734 984
z
" transform="scale(0.015625)"/>
      <path id="Consolas-34" d="M 3353 903
L 2656 903
L 2656 0
L 2100 0
L 2100 903
L 134 903
L 134 1381
L 1875 4084
L 2656 4084
L 2656 1381
L 3353 1381
L 3353 903
z
M 2100 3559
L 678 1381
L 2100 1381
L 2100 3559
z
" transform="scale(0.015625)"/>
      <path id="Consolas-37" d="M 3128 3578
L 1416 0
L 794 0
L 2572 3578
L 366 3578
L 366 4084
L 3128 4084
L 3128 3578
z
" transform="scale(0.015625)"/>
      <path id="Consolas-39" d="M 3128 2272
Q 3128 1675 2984 1245
Q 2841 816 2559 539
Q 2278 263 1862 131
Q 1447 0 903 0
L 563 0
L 563 475
L 941 475
Q 1344 475 1637 556
Q 1931 638 2126 795
Q 2322 953 2425 1179
Q 2528 1406 2553 1697
L 2566 1825
Q 2369 1709 2112 1639
Q 1856 1569 1556 1569
Q 1247 1569 1012 1659
Q 778 1750 623 1912
Q 469 2075 391 2298
Q 313 2522 313 2784
Q 313 3069 416 3316
Q 519 3563 705 3745
Q 891 3928 1150 4034
Q 1409 4141 1722 4141
Q 2025 4141 2283 4041
Q 2541 3941 2728 3717
Q 2916 3494 3022 3137
Q 3128 2781 3128 2272
z
M 1697 3694
Q 1522 3694 1373 3636
Q 1225 3578 1117 3467
Q 1009 3356 946 3193
Q 884 3031 884 2822
Q 884 2631 929 2481
Q 975 2331 1070 2226
Q 1166 2122 1316 2065
Q 1466 2009 1672 2009
Q 1788 2009 1911 2031
Q 2034 2053 2151 2090
Q 2269 2128 2375 2178
Q 2481 2228 2566 2284
Q 2566 2688 2506 2958
Q 2447 3228 2334 3392
Q 2222 3556 2061 3625
Q 1900 3694 1697 3694
z
" transform="scale(0.015625)"/>
     </defs>
     <use xlink:href="#Consolas-2d"/>
     <use xlink:href="#Consolas-30" transform="translate(54.980469 0)"/>
     <use xlink:href="#Consolas-2e" transform="translate(109.960938 0)"/>
     <use xlink:href="#Consolas-30" transform="translate(164.941406 0)"/>
     <use xlink:href="#Consolas-34" transform="translate(219.921875 0)"/>
     <use xlink:href="#Consolas-37" transform="translate(274.902344 0)"/>
     <use xlink:href="#Consolas-39" transform="translate(329.882812 0)"/>
    </g>
   </g>
   <g id="text_17">
    <!-- -0.0711 -->
    <g style="fill: #1f2430" transform="translate(465.846251 306.537109) scale(0.085 -0.085)">
     <defs>
      <path id="Consolas-31" d="M 3116 0
L 550 0
L 550 506
L 1600 506
L 1600 3488
L 622 2956
L 422 3419
L 1722 4103
L 2203 4103
L 2203 506
L 3116 506
L 3116 0
z
" transform="scale(0.015625)"/>
     </defs>
     <use xlink:href="#Consolas-2d"/>
     <use xlink:href="#Consolas-30" transform="translate(54.980469 0)"/>
     <use xlink:href="#Consolas-2e" transform="translate(109.960938 0)"/>
     <use xlink:href="#Consolas-30" transform="translate(164.941406 0)"/>
     <use xlink:href="#Consolas-37" transform="translate(219.921875 0)"/>
     <use xlink:href="#Consolas-31" transform="translate(274.902344 0)"/>
     <use xlink:href="#Consolas-31" transform="translate(329.882812 0)"/>
    </g>
   </g>
   <g id="text_18">
    <!-- -0.0712 -->
    <g style="fill: #1f2430" transform="translate(465.773823 252.021327) scale(0.085 -0.085)">
     <defs>
      <path id="Consolas-32" d="M 3150 0
L 459 0
L 459 488
L 1516 1538
Q 1775 1794 1937 1981
Q 2100 2169 2190 2323
Q 2281 2478 2312 2615
Q 2344 2753 2344 2913
Q 2344 3063 2303 3198
Q 2263 3334 2178 3437
Q 2094 3541 1959 3600
Q 1825 3659 1638 3659
Q 1378 3659 1165 3543
Q 953 3428 775 3244
L 475 3603
Q 706 3847 1007 3994
Q 1309 4141 1709 4141
Q 1981 4141 2204 4059
Q 2428 3978 2590 3825
Q 2753 3672 2842 3450
Q 2931 3228 2931 2950
Q 2931 2716 2868 2516
Q 2806 2316 2679 2117
Q 2553 1919 2361 1706
Q 2169 1494 1906 1241
L 1166 519
L 3150 519
L 3150 0
z
" transform="scale(0.015625)"/>
     </defs>
     <use xlink:href="#Consolas-2d"/>
     <use xlink:href="#Consolas-30" transform="translate(54.980469 0)"/>
     <use xlink:href="#Consolas-2e" transform="translate(109.960938 0)"/>
     <use xlink:href="#Consolas-30" transform="translate(164.941406 0)"/>
     <use xlink:href="#Consolas-37" transform="translate(219.921875 0)"/>
     <use xlink:href="#Consolas-31" transform="translate(274.902344 0)"/>
     <use xlink:href="#Consolas-32" transform="translate(329.882812 0)"/>
    </g>
   </g>
   <g id="text_19">
    <!-- -0.0725 -->
    <g style="fill: #1f2430" transform="translate(460.522399 197.505545) scale(0.085 -0.085)">
     <defs>
      <path id="Consolas-35" d="M 3047 1306
Q 3047 1003 2915 753
Q 2784 503 2554 323
Q 2325 144 2012 44
Q 1700 -56 1338 -56
Q 1247 -56 1142 -51
Q 1038 -47 934 -39
Q 831 -31 732 -22
Q 634 -13 556 0
L 556 494
Q 725 453 942 434
Q 1159 416 1381 416
Q 1631 416 1831 475
Q 2031 534 2172 645
Q 2313 756 2388 914
Q 2463 1072 2463 1269
Q 2463 1650 2189 1823
Q 1916 1997 1403 1997
L 628 1997
L 628 4084
L 2828 4084
L 2828 3609
L 1141 3609
L 1141 2463
L 1497 2463
Q 1791 2463 2069 2409
Q 2347 2356 2564 2223
Q 2781 2091 2914 1867
Q 3047 1644 3047 1306
z
" transform="scale(0.015625)"/>
     </defs>
     <use xlink:href="#Consolas-2d"/>
     <use xlink:href="#Consolas-30" transform="translate(54.980469 0)"/>
     <use xlink:href="#Consolas-2e" transform="translate(109.960938 0)"/>
     <use xlink:href="#Consolas-30" transform="translate(164.941406 0)"/>
     <use xlink:href="#Consolas-37" transform="translate(219.921875 0)"/>
     <use xlink:href="#Consolas-32" transform="translate(274.902344 0)"/>
     <use xlink:href="#Consolas-35" transform="translate(329.882812 0)"/>
    </g>
   </g>
   <g id="text_20">
    <!-- -0.0459 -->
    <g style="fill: #1f2430" transform="translate(556.254027 142.989763) scale(0.085 -0.085)">
     <use xlink:href="#Consolas-2d"/>
     <use xlink:href="#Consolas-30" transform="translate(54.980469 0)"/>
     <use xlink:href="#Consolas-2e" transform="translate(109.960938 0)"/>
     <use xlink:href="#Consolas-30" transform="translate(164.941406 0)"/>
     <use xlink:href="#Consolas-34" transform="translate(219.921875 0)"/>
     <use xlink:href="#Consolas-35" transform="translate(274.902344 0)"/>
     <use xlink:href="#Consolas-39" transform="translate(329.882812 0)"/>
    </g>
   </g>
   <g id="text_21">
    <!-- -0.1110 -->
    <g style="fill: #1f2430" transform="translate(303.491067 88.473981) scale(0.085 -0.085)">
     <use xlink:href="#Consolas-2d"/>
     <use xlink:href="#Consolas-30" transform="translate(54.980469 0)"/>
     <use xlink:href="#Consolas-2e" transform="translate(109.960938 0)"/>
     <use xlink:href="#Consolas-31" transform="translate(164.941406 0)"/>
     <use xlink:href="#Consolas-31" transform="translate(219.921875 0)"/>
     <use xlink:href="#Consolas-31" transform="translate(274.902344 0)"/>
     <use xlink:href="#Consolas-30" transform="translate(329.882812 0)"/>
    </g>
   </g>
  </g>
  <g id="text_22">
   <!-- Tất cả mô hình đều ước lượng tác động âm -->
   <g style="fill: #1f2430" transform="translate(115.93375 17.457812) scale(0.13 -0.13)">
    <defs>
     <path id="SegoeUI-Semibold-54" d="M 3428 3850
L 2141 3850
L 2141 0
L 1397 0
L 1397 3850
L 113 3850
L 113 4481
L 3428 4481
L 3428 3850
z
" transform="scale(0.015625)"/>
     <path id="SegoeUI-Semibold-1ea5" d="M 2928 0
L 2225 0
L 2225 500
L 2213 500
Q 1881 -75 1241 -75
Q 769 -75 501 181
Q 234 438 234 859
Q 234 1766 1278 1916
L 2228 2050
Q 2228 2734 1578 2734
Q 1006 2734 547 2341
L 547 2975
Q 1053 3275 1716 3275
Q 2928 3275 2928 2081
L 2928 0
z
M 2228 1572
L 1556 1478
Q 1244 1438 1086 1327
Q 928 1216 928 938
Q 928 734 1073 604
Q 1219 475 1463 475
Q 1794 475 2011 708
Q 2228 941 2228 1294
L 2228 1572
z
M 2432 4281
L 2995 5050
L 3679 5050
L 2926 4281
L 2432 4281
z
M 2673 3806
L 2182 3806
L 1689 4253
L 1204 3806
L 729 3806
L 1420 4588
L 1982 4588
L 2673 3806
z
" transform="scale(0.015625)"/>
     <path id="SegoeUI-Semibold-74" d="M 2159 34
Q 1947 -72 1600 -72
Q 669 -72 669 822
L 669 2631
L 134 2631
L 134 3200
L 669 3200
L 669 3941
L 1394 4147
L 1394 3200
L 2159 3200
L 2159 2631
L 1394 2631
L 1394 1031
Q 1394 747 1497 625
Q 1600 503 1841 503
Q 2025 503 2159 609
L 2159 34
z
" transform="scale(0.015625)"/>
     <path id="SegoeUI-Semibold-20" transform="scale(0.015625)"/>
     <path id="SegoeUI-Semibold-63" d="M 2763 147
Q 2378 -75 1853 -75
Q 1141 -75 703 370
Q 266 816 266 1525
Q 266 2316 736 2795
Q 1206 3275 1994 3275
Q 2431 3275 2766 3122
L 2766 2447
Q 2431 2697 2053 2697
Q 1594 2697 1300 2386
Q 1006 2075 1006 1572
Q 1006 1075 1282 787
Q 1559 500 2025 500
Q 2416 500 2763 778
L 2763 147
z
" transform="scale(0.015625)"/>
     <path id="SegoeUI-Semibold-1ea3" d="M 2928 0
L 2225 0
L 2225 500
L 2213 500
Q 1881 -75 1241 -75
Q 769 -75 501 181
Q 234 438 234 859
Q 234 1766 1278 1916
L 2228 2050
Q 2228 2734 1578 2734
Q 1006 2734 547 2341
L 547 2975
Q 1053 3275 1716 3275
Q 2928 3275 2928 2081
L 2928 0
z
M 2228 1572
L 1556 1478
Q 1244 1438 1086 1327
Q 928 1216 928 938
Q 928 734 1073 604
Q 1219 475 1463 475
Q 1794 475 2011 708
Q 2228 941 2228 1294
L 2228 1572
z
M 1316 4906
Q 1438 4919 1582 4919
Q 1875 4919 2064 4789
Q 2254 4659 2254 4438
Q 2254 4247 2130 4115
Q 2007 3984 1822 3963
L 1822 3806
L 1441 3806
L 1441 4178
Q 1800 4178 1800 4403
Q 1800 4584 1522 4584
Q 1460 4584 1316 4556
L 1316 4906
z
" transform="scale(0.015625)"/>
     <path id="SegoeUI-Semibold-6d" d="M 5256 0
L 4531 0
L 4531 1744
Q 4531 2247 4389 2472
Q 4247 2697 3909 2697
Q 3625 2697 3426 2412
Q 3228 2128 3228 1731
L 3228 0
L 2500 0
L 2500 1803
Q 2500 2697 1869 2697
Q 1575 2697 1386 2428
Q 1197 2159 1197 1731
L 1197 0
L 472 0
L 472 3200
L 1197 3200
L 1197 2694
L 1209 2694
Q 1556 3275 2219 3275
Q 2550 3275 2798 3092
Q 3047 2909 3138 2613
Q 3494 3275 4200 3275
Q 5256 3275 5256 1972
L 5256 0
z
" transform="scale(0.015625)"/>
     <path id="SegoeUI-Semibold-f4" d="M 1891 -75
Q 1150 -75 708 373
Q 266 822 266 1563
Q 266 2369 727 2822
Q 1188 3275 1969 3275
Q 2719 3275 3137 2834
Q 3556 2394 3556 1613
Q 3556 847 3104 386
Q 2653 -75 1891 -75
z
M 1925 2697
Q 1500 2697 1253 2400
Q 1006 2103 1006 1581
Q 1006 1078 1256 789
Q 1506 500 1925 500
Q 2353 500 2583 784
Q 2813 1069 2813 1594
Q 2813 2122 2583 2409
Q 2353 2697 1925 2697
z
M 2909 3763
L 2409 3763
L 1906 4422
L 1416 3763
L 931 3763
L 1631 4788
L 2206 4788
L 2909 3763
z
" transform="scale(0.015625)"/>
     <path id="SegoeUI-Semibold-68" d="M 3316 0
L 2591 0
L 2591 1750
Q 2591 2700 1956 2700
Q 1638 2700 1419 2425
Q 1200 2150 1200 1722
L 1200 0
L 472 0
L 472 4738
L 1200 4738
L 1200 2669
L 1213 2669
Q 1575 3275 2250 3275
Q 3316 3275 3316 1972
L 3316 0
z
" transform="scale(0.015625)"/>
     <path id="SegoeUI-Semibold-ec" d="M 1200 0
L 472 0
L 472 3200
L 1200 3200
L 1200 0
z
M 1359 3763
L 818 3763
L -1 4788
L 668 4788
L 1359 3763
z
" transform="scale(0.015625)"/>
     <path id="SegoeUI-Semibold-6e" d="M 3322 0
L 2597 0
L 2597 1803
Q 2597 2700 1963 2700
Q 1631 2700 1415 2451
Q 1200 2203 1200 1825
L 1200 0
L 472 0
L 472 3200
L 1200 3200
L 1200 2669
L 1213 2669
Q 1572 3275 2250 3275
Q 2772 3275 3047 2936
Q 3322 2597 3322 1956
L 3322 0
z
" transform="scale(0.015625)"/>
     <path id="SegoeUI-Semibold-111" d="M 3381 0
L 2656 0
L 2656 497
L 2644 497
Q 2309 -75 1613 -75
Q 1000 -75 633 354
Q 266 784 266 1525
Q 266 2319 664 2797
Q 1063 3275 1728 3275
Q 2350 3275 2644 2791
L 2656 2791
L 2656 3713
L 1622 3713
L 1622 4231
L 2656 4231
L 2656 4738
L 3381 4738
L 3381 4231
L 3816 4231
L 3816 3713
L 3381 3713
L 3381 0
z
M 2666 1475
L 2666 1863
Q 2666 2213 2441 2455
Q 2216 2697 1872 2697
Q 1469 2697 1237 2392
Q 1006 2088 1006 1550
Q 1006 1063 1229 781
Q 1453 500 1831 500
Q 2200 500 2433 776
Q 2666 1053 2666 1475
z
" transform="scale(0.015625)"/>
     <path id="SegoeUI-Semibold-1ec1" d="M 3181 1403
L 1000 1403
Q 1013 959 1273 718
Q 1534 478 1991 478
Q 2503 478 2931 784
L 2931 200
Q 2494 -75 1775 -75
Q 1069 -75 667 361
Q 266 797 266 1588
Q 266 2334 708 2804
Q 1150 3275 1806 3275
Q 2463 3275 2822 2853
Q 3181 2431 3181 1681
L 3181 1403
z
M 2481 1916
Q 2478 2306 2297 2523
Q 2116 2741 1797 2741
Q 1484 2741 1267 2512
Q 1050 2284 1000 1916
L 2481 1916
z
M 1111 4281
L 617 4281
L -136 5050
L 548 5050
L 1111 4281
z
M 867 3806
L 1557 4588
L 2123 4588
L 2814 3806
L 2339 3806
L 1854 4253
L 1357 3806
L 867 3806
z
" transform="scale(0.015625)"/>
     <path id="SegoeUI-Semibold-75" d="M 3263 0
L 2538 0
L 2538 506
L 2525 506
Q 2209 -75 1544 -75
Q 409 -75 409 1288
L 409 3200
L 1134 3200
L 1134 1363
Q 1134 500 1800 500
Q 2122 500 2330 737
Q 2538 975 2538 1359
L 2538 3200
L 3263 3200
L 3263 0
z
" transform="scale(0.015625)"/>
     <path id="SegoeUI-Semibold-1b0" d="M 3263 0
L 2538 0
L 2538 497
L 2525 497
Q 2213 -69 1531 -69
Q 409 -69 409 1291
L 409 3200
L 1134 3200
L 1134 1363
Q 1134 500 1803 500
Q 2125 500 2331 737
Q 2538 975 2538 1359
L 2538 3200
L 3153 3200
Q 3328 3200 3447 3322
Q 3566 3444 3566 3616
Q 3566 3822 3503 3988
L 3994 3988
Q 4050 3822 4050 3588
Q 4050 2925 3263 2806
L 3263 0
z
" transform="scale(0.015625)"/>
     <path id="SegoeUI-Semibold-1edb" d="M 3272 3988
L 3772 3988
Q 3838 3816 3838 3569
Q 3838 2950 3141 2822
Q 3556 2388 3556 1613
Q 3556 847 3104 386
Q 2653 -75 1894 -75
Q 1153 -75 709 373
Q 266 822 266 1563
Q 266 2369 722 2822
Q 1178 3275 1953 3275
Q 2094 3275 2347 3231
Q 2525 3200 2847 3200
Q 3053 3200 3192 3319
Q 3331 3438 3331 3606
Q 3331 3819 3272 3988
z
M 1925 2697
Q 1503 2697 1256 2400
Q 1009 2103 1009 1581
Q 1009 1078 1259 789
Q 1509 500 1928 500
Q 2356 500 2586 784
Q 2816 1069 2816 1594
Q 2816 2122 2586 2409
Q 2356 2697 1925 2697
z
M 2895 4831
L 2001 3806
L 1464 3806
L 2220 4831
L 2895 4831
z
" transform="scale(0.015625)"/>
     <path id="SegoeUI-Semibold-6c" d="M 1200 0
L 472 0
L 472 4738
L 1200 4738
L 1200 0
z
" transform="scale(0.015625)"/>
     <path id="SegoeUI-Semibold-1ee3" d="M 3272 3988
L 3772 3988
Q 3838 3816 3838 3569
Q 3838 2950 3141 2822
Q 3556 2388 3556 1613
Q 3556 847 3104 386
Q 2653 -75 1894 -75
Q 1153 -75 709 373
Q 266 822 266 1563
Q 266 2369 722 2822
Q 1178 3275 1953 3275
Q 2094 3275 2347 3231
Q 2525 3200 2847 3200
Q 3053 3200 3192 3319
Q 3331 3438 3331 3606
Q 3331 3819 3272 3988
z
M 1925 2697
Q 1503 2697 1256 2400
Q 1009 2103 1009 1581
Q 1009 1078 1259 789
Q 1509 500 1928 500
Q 2356 500 2586 784
Q 2816 1069 2816 1594
Q 2816 2122 2586 2409
Q 2356 2697 1925 2697
z
M 1895 -1088
Q 1735 -1088 1621 -981
Q 1507 -875 1507 -725
Q 1507 -575 1624 -473
Q 1741 -372 1895 -372
Q 2054 -372 2166 -473
Q 2279 -575 2279 -725
Q 2279 -875 2166 -981
Q 2054 -1088 1895 -1088
z
" transform="scale(0.015625)"/>
     <path id="SegoeUI-Semibold-67" d="M 3384 256
Q 3384 -1506 1613 -1506
Q 988 -1506 522 -1297
L 522 -634
Q 1047 -934 1519 -934
Q 2659 -934 2659 188
L 2659 538
L 2647 538
Q 2288 -75 1566 -75
Q 981 -75 623 351
Q 266 778 266 1497
Q 266 2313 650 2794
Q 1034 3275 1706 3275
Q 2341 3275 2647 2756
L 2659 2756
L 2659 3200
L 3384 3200
L 3384 256
z
M 2666 1466
L 2666 1881
Q 2666 2219 2442 2458
Q 2219 2697 1884 2697
Q 1472 2697 1239 2392
Q 1006 2088 1006 1541
Q 1006 1069 1229 786
Q 1453 503 1822 503
Q 2197 503 2431 773
Q 2666 1044 2666 1466
z
" transform="scale(0.015625)"/>
     <path id="SegoeUI-Semibold-e1" d="M 2928 0
L 2225 0
L 2225 500
L 2213 500
Q 1881 -75 1241 -75
Q 769 -75 501 181
Q 234 438 234 859
Q 234 1766 1278 1916
L 2228 2050
Q 2228 2734 1578 2734
Q 1006 2734 547 2341
L 547 2975
Q 1053 3275 1716 3275
Q 2928 3275 2928 2081
L 2928 0
z
M 2228 1572
L 1556 1478
Q 1244 1438 1086 1327
Q 928 1216 928 938
Q 928 734 1073 604
Q 1219 475 1463 475
Q 1794 475 2011 708
Q 2228 941 2228 1294
L 2228 1572
z
M 2591 4831
L 1697 3806
L 1160 3806
L 1916 4831
L 2591 4831
z
" transform="scale(0.015625)"/>
     <path id="SegoeUI-Semibold-1ed9" d="M 1891 -75
Q 1150 -75 708 373
Q 266 822 266 1563
Q 266 2369 727 2822
Q 1188 3275 1969 3275
Q 2719 3275 3137 2834
Q 3556 2394 3556 1613
Q 3556 847 3104 386
Q 2653 -75 1891 -75
z
M 1925 2697
Q 1500 2697 1253 2400
Q 1006 2103 1006 1581
Q 1006 1078 1256 789
Q 1506 500 1925 500
Q 2353 500 2583 784
Q 2813 1069 2813 1594
Q 2813 2122 2583 2409
Q 2353 2697 1925 2697
z
M 2949 3763
L 2449 3763
L 1946 4422
L 1456 3763
L 971 3763
L 1671 4788
L 2246 4788
L 2949 3763
z
M 1895 -1088
Q 1735 -1088 1621 -981
Q 1507 -875 1507 -725
Q 1507 -575 1624 -473
Q 1741 -372 1895 -372
Q 2054 -372 2166 -473
Q 2279 -575 2279 -725
Q 2279 -875 2166 -981
Q 2054 -1088 1895 -1088
z
" transform="scale(0.015625)"/>
     <path id="SegoeUI-Semibold-e2" d="M 2928 0
L 2225 0
L 2225 500
L 2213 500
Q 1881 -75 1241 -75
Q 769 -75 501 181
Q 234 438 234 859
Q 234 1766 1278 1916
L 2228 2050
Q 2228 2734 1578 2734
Q 1006 2734 547 2341
L 547 2975
Q 1053 3275 1716 3275
Q 2928 3275 2928 2081
L 2928 0
z
M 2228 1572
L 1556 1478
Q 1244 1438 1086 1327
Q 928 1216 928 938
Q 928 734 1073 604
Q 1219 475 1463 475
Q 1794 475 2011 708
Q 2228 941 2228 1294
L 2228 1572
z
M 2669 3763
L 2169 3763
L 1666 4422
L 1176 3763
L 691 3763
L 1391 4788
L 1966 4788
L 2669 3763
z
" transform="scale(0.015625)"/>
    </defs>
    <use xlink:href="#SegoeUI-Semibold-54"/>
    <use xlink:href="#SegoeUI-Semibold-1ea5" transform="translate(55.175781 0)"/>
    <use xlink:href="#SegoeUI-Semibold-74" transform="translate(107.373047 0)"/>
    <use xlink:href="#SegoeUI-Semibold-20" transform="translate(143.505859 0)"/>
    <use xlink:href="#SegoeUI-Semibold-63" transform="translate(170.996094 0)"/>
    <use xlink:href="#SegoeUI-Semibold-1ea3" transform="translate(218.017578 0)"/>
    <use xlink:href="#SegoeUI-Semibold-20" transform="translate(270.214844 0)"/>
    <use xlink:href="#SegoeUI-Semibold-6d" transform="translate(297.705078 0)"/>
    <use xlink:href="#SegoeUI-Semibold-f4" transform="translate(386.279297 0)"/>
    <use xlink:href="#SegoeUI-Semibold-20" transform="translate(445.996094 0)"/>
    <use xlink:href="#SegoeUI-Semibold-68" transform="translate(473.486328 0)"/>
    <use xlink:href="#SegoeUI-Semibold-ec" transform="translate(531.689453 0)"/>
    <use xlink:href="#SegoeUI-Semibold-6e" transform="translate(557.8125 0)"/>
    <use xlink:href="#SegoeUI-Semibold-68" transform="translate(616.162109 0)"/>
    <use xlink:href="#SegoeUI-Semibold-20" transform="translate(674.365234 0)"/>
    <use xlink:href="#SegoeUI-Semibold-111" transform="translate(701.855469 0)"/>
    <use xlink:href="#SegoeUI-Semibold-1ec1" transform="translate(762.695312 0)"/>
    <use xlink:href="#SegoeUI-Semibold-75" transform="translate(815.820312 0)"/>
    <use xlink:href="#SegoeUI-Semibold-20" transform="translate(874.169922 0)"/>
    <use xlink:href="#SegoeUI-Semibold-1b0" transform="translate(901.660156 0)"/>
    <use xlink:href="#SegoeUI-Semibold-1edb" transform="translate(964.0625 0)"/>
    <use xlink:href="#SegoeUI-Semibold-63" transform="translate(1025.244141 0)"/>
    <use xlink:href="#SegoeUI-Semibold-20" transform="translate(1072.265625 0)"/>
    <use xlink:href="#SegoeUI-Semibold-6c" transform="translate(1099.755859 0)"/>
    <use xlink:href="#SegoeUI-Semibold-1b0" transform="translate(1125.878906 0)"/>
    <use xlink:href="#SegoeUI-Semibold-1ee3" transform="translate(1188.28125 0)"/>
    <use xlink:href="#SegoeUI-Semibold-6e" transform="translate(1249.462891 0)"/>
    <use xlink:href="#SegoeUI-Semibold-67" transform="translate(1307.8125 0)"/>
    <use xlink:href="#SegoeUI-Semibold-20" transform="translate(1368.066406 0)"/>
    <use xlink:href="#SegoeUI-Semibold-74" transform="translate(1395.556641 0)"/>
    <use xlink:href="#SegoeUI-Semibold-e1" transform="translate(1431.689453 0)"/>
    <use xlink:href="#SegoeUI-Semibold-63" transform="translate(1483.886719 0)"/>
    <use xlink:href="#SegoeUI-Semibold-20" transform="translate(1530.908203 0)"/>
    <use xlink:href="#SegoeUI-Semibold-111" transform="translate(1558.398438 0)"/>
    <use xlink:href="#SegoeUI-Semibold-1ed9" transform="translate(1619.238281 0)"/>
    <use xlink:href="#SegoeUI-Semibold-6e" transform="translate(1678.955078 0)"/>
    <use xlink:href="#SegoeUI-Semibold-67" transform="translate(1737.304688 0)"/>
    <use xlink:href="#SegoeUI-Semibold-20" transform="translate(1797.558594 0)"/>
    <use xlink:href="#SegoeUI-Semibold-e2" transform="translate(1825.048828 0)"/>
    <use xlink:href="#SegoeUI-Semibold-6d" transform="translate(1877.246094 0)"/>
   </g>
  </g>
  <g id="text_23">
   <!-- Điểm là theta; thanh ngang là khoảng tin cậy 95%. N = 14.255; 578 doanh nghiệp; sai số chuẩn phân cụm theo doanh -->
   <g style="fill: #6f768a" transform="translate(115.93375 37.753312) scale(0.09 -0.09)">
    <defs>
     <path id="SegoeUI-110" d="M 588 0
L 588 2003
L 88 2003
L 88 2488
L 588 2488
L 588 4481
L 1825 4481
Q 4194 4481 4194 2297
Q 4194 1253 3536 626
Q 2878 0 1775 0
L 588 0
z
M 1113 4006
L 1113 2488
L 2163 2488
L 2163 2003
L 1113 2003
L 1113 475
L 1781 475
Q 2663 475 3153 947
Q 3644 1419 3644 2284
Q 3644 4006 1813 4006
L 1113 4006
z
" transform="scale(0.015625)"/>
     <path id="SegoeUI-1ec3" d="M 3091 1472
L 831 1472
Q 844 938 1119 647
Q 1394 356 1875 356
Q 2416 356 2869 713
L 2869 231
Q 2447 -75 1753 -75
Q 1075 -75 687 361
Q 300 797 300 1588
Q 300 2334 723 2804
Q 1147 3275 1775 3275
Q 2403 3275 2747 2869
Q 3091 2463 3091 1741
L 3091 1472
z
M 2566 1906
Q 2563 2350 2352 2597
Q 2141 2844 1766 2844
Q 1403 2844 1150 2584
Q 897 2325 838 1906
L 2566 1906
z
M 2482 5381
Q 2595 5394 2732 5394
Q 3010 5394 3183 5264
Q 3357 5134 3357 4909
Q 3357 4722 3240 4590
Q 3123 4459 2945 4438
L 2945 4281
L 2604 4281
L 2604 4641
Q 2957 4641 2957 4875
Q 2957 5075 2660 5075
Q 2607 5075 2482 5050
L 2482 5381
z
M 2726 3806
L 2351 3806
L 1838 4269
L 1320 3806
L 970 3806
L 1638 4588
L 2057 4588
L 2726 3806
z
" transform="scale(0.015625)"/>
     <path id="SegoeUI-e0" d="M 2809 0
L 2297 0
L 2297 500
L 2284 500
Q 1950 -75 1300 -75
Q 822 -75 551 178
Q 281 431 281 850
Q 281 1747 1338 1894
L 2297 2028
Q 2297 2844 1638 2844
Q 1059 2844 594 2450
L 594 2975
Q 1066 3275 1681 3275
Q 2809 3275 2809 2081
L 2809 0
z
M 2297 1619
L 1525 1513
Q 1169 1463 987 1336
Q 806 1209 806 888
Q 806 653 973 504
Q 1141 356 1419 356
Q 1800 356 2048 623
Q 2297 891 2297 1300
L 2297 1619
z
M 2104 3806
L 1707 3806
L 888 4831
L 1413 4831
L 2104 3806
z
" transform="scale(0.015625)"/>
     <path id="SegoeUI-68" d="M 3175 0
L 2663 0
L 2663 1844
Q 2663 2844 1919 2844
Q 1544 2844 1287 2555
Q 1031 2266 1031 1813
L 1031 0
L 519 0
L 519 4738
L 1031 4738
L 1031 2669
L 1044 2669
Q 1413 3275 2094 3275
Q 3175 3275 3175 1972
L 3175 0
z
" transform="scale(0.015625)"/>
     <path id="SegoeUI-3b" d="M 706 2575
Q 559 2575 457 2678
Q 356 2781 356 2925
Q 356 3069 457 3169
Q 559 3269 706 3269
Q 850 3269 953 3169
Q 1056 3069 1056 2925
Q 1056 2781 953 2678
Q 850 2575 706 2575
z
M 988 713
L 488 -825
L 122 -825
L 488 713
L 988 713
z
" transform="scale(0.015625)"/>
     <path id="SegoeUI-67" d="M 3250 256
Q 3250 -1506 1563 -1506
Q 969 -1506 525 -1281
L 525 -769
Q 1066 -1069 1556 -1069
Q 2738 -1069 2738 188
L 2738 538
L 2725 538
Q 2359 -75 1625 -75
Q 1028 -75 664 351
Q 300 778 300 1497
Q 300 2313 692 2794
Q 1084 3275 1766 3275
Q 2413 3275 2725 2756
L 2738 2756
L 2738 3200
L 3250 3200
L 3250 256
z
M 2738 1447
L 2738 1919
Q 2738 2300 2480 2572
Q 2222 2844 1838 2844
Q 1363 2844 1094 2498
Q 825 2153 825 1531
Q 825 997 1083 676
Q 1341 356 1766 356
Q 2197 356 2467 662
Q 2738 969 2738 1447
z
" transform="scale(0.015625)"/>
     <path id="SegoeUI-6b" d="M 3175 0
L 2456 0
L 1044 1538
L 1031 1538
L 1031 0
L 519 0
L 519 4738
L 1031 4738
L 1031 1734
L 1044 1734
L 2388 3200
L 3059 3200
L 1575 1656
L 3175 0
z
" transform="scale(0.015625)"/>
     <path id="SegoeUI-1ea3" d="M 2809 0
L 2297 0
L 2297 500
L 2284 500
Q 1950 -75 1300 -75
Q 822 -75 551 178
Q 281 431 281 850
Q 281 1747 1338 1894
L 2297 2028
Q 2297 2844 1638 2844
Q 1059 2844 594 2450
L 594 2975
Q 1066 3275 1681 3275
Q 2809 3275 2809 2081
L 2809 0
z
M 2297 1619
L 1525 1513
Q 1169 1463 987 1336
Q 806 1209 806 888
Q 806 653 973 504
Q 1141 356 1419 356
Q 1800 356 2048 623
Q 2297 891 2297 1300
L 2297 1619
z
M 1294 4909
Q 1410 4922 1544 4922
Q 1819 4922 1996 4790
Q 2173 4659 2173 4438
Q 2173 4247 2052 4115
Q 1932 3984 1754 3963
L 1754 3806
L 1416 3806
L 1416 4166
Q 1766 4166 1766 4403
Q 1766 4600 1473 4600
Q 1419 4600 1294 4575
L 1294 4909
z
" transform="scale(0.015625)"/>
     <path id="SegoeUI-1ead" d="M 2809 0
L 2297 0
L 2297 500
L 2284 500
Q 1950 -75 1300 -75
Q 822 -75 551 178
Q 281 431 281 850
Q 281 1747 1338 1894
L 2297 2028
Q 2297 2844 1638 2844
Q 1059 2844 594 2450
L 594 2975
Q 1066 3275 1681 3275
Q 2809 3275 2809 2081
L 2809 0
z
M 2297 1619
L 1525 1513
Q 1169 1463 987 1336
Q 806 1209 806 888
Q 806 653 973 504
Q 1141 356 1419 356
Q 1800 356 2048 623
Q 2297 891 2297 1300
L 2297 1619
z
M 2522 3806
L 2141 3806
L 1628 4525
L 1113 3806
L 760 3806
L 1431 4844
L 1847 4844
L 2522 3806
z
M 1674 -981
Q 1546 -981 1455 -890
Q 1364 -800 1364 -672
Q 1364 -544 1458 -458
Q 1552 -372 1674 -372
Q 1802 -372 1892 -458
Q 1983 -544 1983 -672
Q 1983 -800 1892 -890
Q 1802 -981 1674 -981
z
" transform="scale(0.015625)"/>
     <path id="SegoeUI-39" d="M 3138 2509
Q 3138 1894 3016 1414
Q 2894 934 2659 601
Q 2425 269 2087 95
Q 1750 -78 1319 -78
Q 875 -78 538 78
L 538 569
Q 909 359 1331 359
Q 1634 359 1873 484
Q 2113 609 2278 848
Q 2444 1088 2531 1438
Q 2619 1788 2619 2241
L 2606 2241
Q 2319 1663 1606 1663
Q 1319 1663 1078 1764
Q 838 1866 663 2052
Q 488 2238 391 2494
Q 294 2750 294 3059
Q 294 3391 401 3666
Q 509 3941 701 4139
Q 894 4338 1158 4447
Q 1422 4556 1734 4556
Q 2072 4556 2333 4420
Q 2594 4284 2772 4023
Q 2950 3763 3044 3381
Q 3138 3000 3138 2509
z
M 2584 2969
Q 2584 3228 2517 3440
Q 2450 3653 2331 3804
Q 2213 3956 2048 4039
Q 1884 4122 1691 4122
Q 1506 4122 1347 4048
Q 1188 3975 1070 3842
Q 953 3709 886 3526
Q 819 3344 819 3128
Q 819 2891 883 2703
Q 947 2516 1065 2386
Q 1184 2256 1351 2187
Q 1519 2119 1722 2119
Q 1900 2119 2058 2186
Q 2216 2253 2333 2367
Q 2450 2481 2517 2636
Q 2584 2791 2584 2969
z
" transform="scale(0.015625)"/>
     <path id="SegoeUI-35" d="M 3028 1369
Q 3028 1041 2915 775
Q 2803 509 2595 318
Q 2388 128 2094 25
Q 1800 -78 1441 -78
Q 816 -78 513 109
L 513 653
Q 969 359 1447 359
Q 1691 359 1886 431
Q 2081 503 2218 631
Q 2356 759 2429 940
Q 2503 1122 2503 1338
Q 2503 1775 2209 2023
Q 1916 2272 1356 2272
Q 1266 2272 1166 2269
Q 1066 2266 966 2261
Q 866 2256 770 2250
Q 675 2244 597 2234
L 750 4481
L 2822 4481
L 2822 4019
L 1194 4019
L 1103 2703
Q 1203 2709 1315 2714
Q 1428 2719 1516 2719
Q 1872 2719 2153 2625
Q 2434 2531 2629 2357
Q 2825 2184 2926 1932
Q 3028 1681 3028 1369
z
" transform="scale(0.015625)"/>
     <path id="SegoeUI-25" d="M 1263 2234
Q 800 2234 525 2539
Q 250 2844 250 3353
Q 250 3909 540 4229
Q 831 4550 1325 4550
Q 1803 4550 2067 4253
Q 2331 3956 2331 3419
Q 2331 2881 2036 2557
Q 1741 2234 1263 2234
z
M 1306 4206
Q 1009 4206 837 3986
Q 666 3766 666 3381
Q 666 3003 834 2792
Q 1003 2581 1294 2581
Q 1588 2581 1753 2800
Q 1919 3019 1919 3406
Q 1919 3784 1755 3995
Q 1591 4206 1306 4206
z
M 4263 4481
L 1388 -31
L 941 -31
L 3813 4481
L 4263 4481
z
M 3931 -69
Q 3469 -69 3194 237
Q 2919 544 2919 1050
Q 2919 1606 3212 1929
Q 3506 2253 3994 2253
Q 4469 2253 4734 1953
Q 5000 1653 5000 1113
Q 5000 578 4704 254
Q 4409 -69 3931 -69
z
M 3975 1900
Q 3675 1900 3504 1681
Q 3334 1463 3334 1075
Q 3334 703 3503 492
Q 3672 281 3963 281
Q 4256 281 4422 501
Q 4588 722 4588 1106
Q 4588 1488 4423 1694
Q 4259 1900 3975 1900
z
" transform="scale(0.015625)"/>
     <path id="SegoeUI-3d" d="M 3663 2325
L 725 2325
L 725 2738
L 3663 2738
L 3663 2325
z
M 3663 994
L 725 994
L 725 1406
L 3663 1406
L 3663 994
z
" transform="scale(0.015625)"/>
     <path id="SegoeUI-37" d="M 3156 4184
Q 3053 4006 2908 3740
Q 2763 3475 2600 3144
Q 2438 2813 2269 2431
Q 2100 2050 1953 1644
Q 1806 1238 1695 820
Q 1584 403 1534 0
L 984 0
Q 1041 400 1158 817
Q 1275 1234 1423 1636
Q 1572 2038 1737 2409
Q 1903 2781 2059 3093
Q 2216 3406 2345 3645
Q 2475 3884 2553 4019
L 306 4019
L 306 4481
L 3156 4481
L 3156 4184
z
" transform="scale(0.015625)"/>
     <path id="SegoeUI-70" d="M 1044 463
L 1031 463
L 1031 -1472
L 519 -1472
L 519 3200
L 1031 3200
L 1031 2638
L 1044 2638
Q 1422 3275 2150 3275
Q 2769 3275 3116 2845
Q 3463 2416 3463 1694
Q 3463 891 3072 408
Q 2681 -75 2003 -75
Q 1381 -75 1044 463
z
M 1031 1753
L 1031 1306
Q 1031 909 1289 632
Q 1547 356 1944 356
Q 2409 356 2673 712
Q 2938 1069 2938 1703
Q 2938 2238 2691 2541
Q 2444 2844 2022 2844
Q 1575 2844 1303 2533
Q 1031 2222 1031 1753
z
" transform="scale(0.015625)"/>
     <path id="SegoeUI-75" d="M 3106 0
L 2594 0
L 2594 506
L 2581 506
Q 2263 -75 1594 -75
Q 450 -75 450 1288
L 450 3200
L 959 3200
L 959 1369
Q 959 356 1734 356
Q 2109 356 2351 632
Q 2594 909 2594 1356
L 2594 3200
L 3106 3200
L 3106 0
z
" transform="scale(0.015625)"/>
     <path id="SegoeUI-1ea9" d="M 2809 0
L 2297 0
L 2297 500
L 2284 500
Q 1950 -75 1300 -75
Q 822 -75 551 178
Q 281 431 281 850
Q 281 1747 1338 1894
L 2297 2028
Q 2297 2844 1638 2844
Q 1059 2844 594 2450
L 594 2975
Q 1066 3275 1681 3275
Q 2809 3275 2809 2081
L 2809 0
z
M 2297 1619
L 1525 1513
Q 1169 1463 987 1336
Q 806 1209 806 888
Q 806 653 973 504
Q 1141 356 1419 356
Q 1800 356 2048 623
Q 2297 891 2297 1300
L 2297 1619
z
M 2250 5381
Q 2363 5394 2500 5394
Q 2778 5394 2951 5264
Q 3125 5134 3125 4909
Q 3125 4722 3008 4590
Q 2891 4459 2713 4438
L 2713 4281
L 2372 4281
L 2372 4641
Q 2725 4641 2725 4875
Q 2725 5075 2428 5075
Q 2375 5075 2250 5050
L 2250 5381
z
M 2494 3806
L 2119 3806
L 1606 4269
L 1088 3806
L 738 3806
L 1406 4588
L 1825 4588
L 2494 3806
z
" transform="scale(0.015625)"/>
     <path id="SegoeUI-e2" d="M 2809 0
L 2297 0
L 2297 500
L 2284 500
Q 1950 -75 1300 -75
Q 822 -75 551 178
Q 281 431 281 850
Q 281 1747 1338 1894
L 2297 2028
Q 2297 2844 1638 2844
Q 1059 2844 594 2450
L 594 2975
Q 1066 3275 1681 3275
Q 2809 3275 2809 2081
L 2809 0
z
M 2297 1619
L 1525 1513
Q 1169 1463 987 1336
Q 806 1209 806 888
Q 806 653 973 504
Q 1141 356 1419 356
Q 1800 356 2048 623
Q 2297 891 2297 1300
L 2297 1619
z
M 2522 3806
L 2141 3806
L 1628 4525
L 1113 3806
L 760 3806
L 1431 4844
L 1847 4844
L 2522 3806
z
" transform="scale(0.015625)"/>
     <path id="SegoeUI-1ee5" d="M 3106 0
L 2594 0
L 2594 506
L 2581 506
Q 2263 -75 1594 -75
Q 450 -75 450 1288
L 450 3200
L 959 3200
L 959 1369
Q 959 356 1734 356
Q 2109 356 2351 632
Q 2594 909 2594 1356
L 2594 3200
L 3106 3200
L 3106 0
z
M 1722 -981
Q 1594 -981 1503 -890
Q 1412 -800 1412 -672
Q 1412 -544 1506 -458
Q 1600 -372 1722 -372
Q 1850 -372 1940 -458
Q 2031 -544 2031 -672
Q 2031 -800 1940 -890
Q 1850 -981 1722 -981
z
" transform="scale(0.015625)"/>
    </defs>
    <use xlink:href="#SegoeUI-110"/>
    <use xlink:href="#SegoeUI-69" transform="translate(70.117188 0)"/>
    <use xlink:href="#SegoeUI-1ec3" transform="translate(94.335938 0)"/>
    <use xlink:href="#SegoeUI-6d" transform="translate(146.630859 0)"/>
    <use xlink:href="#SegoeUI-20" transform="translate(232.763672 0)"/>
    <use xlink:href="#SegoeUI-6c" transform="translate(260.15625 0)"/>
    <use xlink:href="#SegoeUI-e0" transform="translate(284.375 0)"/>
    <use xlink:href="#SegoeUI-20" transform="translate(335.253906 0)"/>
    <use xlink:href="#SegoeUI-74" transform="translate(362.646484 0)"/>
    <use xlink:href="#SegoeUI-68" transform="translate(396.533203 0)"/>
    <use xlink:href="#SegoeUI-65" transform="translate(453.125 0)"/>
    <use xlink:href="#SegoeUI-74" transform="translate(505.419922 0)"/>
    <use xlink:href="#SegoeUI-61" transform="translate(539.306641 0)"/>
    <use xlink:href="#SegoeUI-3b" transform="translate(590.185547 0)"/>
    <use xlink:href="#SegoeUI-20" transform="translate(611.865234 0)"/>
    <use xlink:href="#SegoeUI-74" transform="translate(639.257812 0)"/>
    <use xlink:href="#SegoeUI-68" transform="translate(673.144531 0)"/>
    <use xlink:href="#SegoeUI-61" transform="translate(729.736328 0)"/>
    <use xlink:href="#SegoeUI-6e" transform="translate(780.615234 0)"/>
    <use xlink:href="#SegoeUI-68" transform="translate(837.207031 0)"/>
    <use xlink:href="#SegoeUI-20" transform="translate(893.798828 0)"/>
    <use xlink:href="#SegoeUI-6e" transform="translate(921.191406 0)"/>
    <use xlink:href="#SegoeUI-67" transform="translate(977.783203 0)"/>
    <use xlink:href="#SegoeUI-61" transform="translate(1036.669922 0)"/>
    <use xlink:href="#SegoeUI-6e" transform="translate(1087.548828 0)"/>
    <use xlink:href="#SegoeUI-67" transform="translate(1144.140625 0)"/>
    <use xlink:href="#SegoeUI-20" transform="translate(1203.027344 0)"/>
    <use xlink:href="#SegoeUI-6c" transform="translate(1230.419922 0)"/>
    <use xlink:href="#SegoeUI-e0" transform="translate(1254.638672 0)"/>
    <use xlink:href="#SegoeUI-20" transform="translate(1305.517578 0)"/>
    <use xlink:href="#SegoeUI-6b" transform="translate(1332.910156 0)"/>
    <use xlink:href="#SegoeUI-68" transform="translate(1382.617188 0)"/>
    <use xlink:href="#SegoeUI-6f" transform="translate(1439.208984 0)"/>
    <use xlink:href="#SegoeUI-1ea3" transform="translate(1497.802734 0)"/>
    <use xlink:href="#SegoeUI-6e" transform="translate(1548.681641 0)"/>
    <use xlink:href="#SegoeUI-67" transform="translate(1605.273438 0)"/>
    <use xlink:href="#SegoeUI-20" transform="translate(1664.160156 0)"/>
    <use xlink:href="#SegoeUI-74" transform="translate(1691.552734 0)"/>
    <use xlink:href="#SegoeUI-69" transform="translate(1725.439453 0)"/>
    <use xlink:href="#SegoeUI-6e" transform="translate(1749.658203 0)"/>
    <use xlink:href="#SegoeUI-20" transform="translate(1806.25 0)"/>
    <use xlink:href="#SegoeUI-63" transform="translate(1833.642578 0)"/>
    <use xlink:href="#SegoeUI-1ead" transform="translate(1879.833984 0)"/>
    <use xlink:href="#SegoeUI-79" transform="translate(1930.712891 0)"/>
    <use xlink:href="#SegoeUI-20" transform="translate(1979.101562 0)"/>
    <use xlink:href="#SegoeUI-39" transform="translate(2006.494141 0)"/>
    <use xlink:href="#SegoeUI-35" transform="translate(2060.400391 0)"/>
    <use xlink:href="#SegoeUI-25" transform="translate(2114.306641 0)"/>
    <use xlink:href="#SegoeUI-2e" transform="translate(2196.142578 0)"/>
    <use xlink:href="#SegoeUI-20" transform="translate(2217.822266 0)"/>
    <use xlink:href="#SegoeUI-4e" transform="translate(2245.214844 0)"/>
    <use xlink:href="#SegoeUI-20" transform="translate(2320.019531 0)"/>
    <use xlink:href="#SegoeUI-3d" transform="translate(2347.412109 0)"/>
    <use xlink:href="#SegoeUI-20" transform="translate(2415.820312 0)"/>
    <use xlink:href="#SegoeUI-31" transform="translate(2443.212891 0)"/>
    <use xlink:href="#SegoeUI-34" transform="translate(2497.119141 0)"/>
    <use xlink:href="#SegoeUI-2e" transform="translate(2551.025391 0)"/>
    <use xlink:href="#SegoeUI-32" transform="translate(2572.705078 0)"/>
    <use xlink:href="#SegoeUI-35" transform="translate(2626.611328 0)"/>
    <use xlink:href="#SegoeUI-35" transform="translate(2680.517578 0)"/>
    <use xlink:href="#SegoeUI-3b" transform="translate(2734.423828 0)"/>
    <use xlink:href="#SegoeUI-20" transform="translate(2756.103516 0)"/>
    <use xlink:href="#SegoeUI-35" transform="translate(2783.496094 0)"/>
    <use xlink:href="#SegoeUI-37" transform="translate(2837.402344 0)"/>
    <use xlink:href="#SegoeUI-38" transform="translate(2891.308594 0)"/>
    <use xlink:href="#SegoeUI-20" transform="translate(2945.214844 0)"/>
    <use xlink:href="#SegoeUI-64" transform="translate(2972.607422 0)"/>
    <use xlink:href="#SegoeUI-6f" transform="translate(3031.494141 0)"/>
    <use xlink:href="#SegoeUI-61" transform="translate(3088.712891 0)"/>
    <use xlink:href="#SegoeUI-6e" transform="translate(3139.591797 0)"/>
    <use xlink:href="#SegoeUI-68" transform="translate(3196.183594 0)"/>
    <use xlink:href="#SegoeUI-20" transform="translate(3252.775391 0)"/>
    <use xlink:href="#SegoeUI-6e" transform="translate(3280.167969 0)"/>
    <use xlink:href="#SegoeUI-67" transform="translate(3336.759766 0)"/>
    <use xlink:href="#SegoeUI-68" transform="translate(3395.646484 0)"/>
    <use xlink:href="#SegoeUI-69" transform="translate(3452.238281 0)"/>
    <use xlink:href="#SegoeUI-1ec7" transform="translate(3476.457031 0)"/>
    <use xlink:href="#SegoeUI-70" transform="translate(3528.751953 0)"/>
    <use xlink:href="#SegoeUI-3b" transform="translate(3587.541016 0)"/>
    <use xlink:href="#SegoeUI-20" transform="translate(3609.220703 0)"/>
    <use xlink:href="#SegoeUI-73" transform="translate(3636.613281 0)"/>
    <use xlink:href="#SegoeUI-61" transform="translate(3679.044922 0)"/>
    <use xlink:href="#SegoeUI-69" transform="translate(3729.923828 0)"/>
    <use xlink:href="#SegoeUI-20" transform="translate(3754.142578 0)"/>
    <use xlink:href="#SegoeUI-73" transform="translate(3781.535156 0)"/>
    <use xlink:href="#SegoeUI-1ed1" transform="translate(3823.966797 0)"/>
    <use xlink:href="#SegoeUI-20" transform="translate(3882.560547 0)"/>
    <use xlink:href="#SegoeUI-63" transform="translate(3909.953125 0)"/>
    <use xlink:href="#SegoeUI-68" transform="translate(3956.144531 0)"/>
    <use xlink:href="#SegoeUI-75" transform="translate(4012.736328 0)"/>
    <use xlink:href="#SegoeUI-1ea9" transform="translate(4069.328125 0)"/>
    <use xlink:href="#SegoeUI-6e" transform="translate(4120.207031 0)"/>
    <use xlink:href="#SegoeUI-20" transform="translate(4176.798828 0)"/>
    <use xlink:href="#SegoeUI-70" transform="translate(4204.191406 0)"/>
    <use xlink:href="#SegoeUI-68" transform="translate(4262.980469 0)"/>
    <use xlink:href="#SegoeUI-e2" transform="translate(4319.572266 0)"/>
    <use xlink:href="#SegoeUI-6e" transform="translate(4370.451172 0)"/>
    <use xlink:href="#SegoeUI-20" transform="translate(4427.042969 0)"/>
    <use xlink:href="#SegoeUI-63" transform="translate(4454.435547 0)"/>
    <use xlink:href="#SegoeUI-1ee5" transform="translate(4500.626953 0)"/>
    <use xlink:href="#SegoeUI-6d" transform="translate(4557.21875 0)"/>
    <use xlink:href="#SegoeUI-20" transform="translate(4643.351562 0)"/>
    <use xlink:href="#SegoeUI-74" transform="translate(4670.744141 0)"/>
    <use xlink:href="#SegoeUI-68" transform="translate(4704.630859 0)"/>
    <use xlink:href="#SegoeUI-65" transform="translate(4761.222656 0)"/>
    <use xlink:href="#SegoeUI-6f" transform="translate(4813.517578 0)"/>
    <use xlink:href="#SegoeUI-20" transform="translate(4872.111328 0)"/>
    <use xlink:href="#SegoeUI-64" transform="translate(4899.503906 0)"/>
    <use xlink:href="#SegoeUI-6f" transform="translate(4958.390625 0)"/>
    <use xlink:href="#SegoeUI-61" transform="translate(5015.609375 0)"/>
    <use xlink:href="#SegoeUI-6e" transform="translate(5066.488281 0)"/>
    <use xlink:href="#SegoeUI-68" transform="translate(5123.080078 0)"/>
   </g>
   <!-- nghiệp. -->
   <g style="fill: #6f768a" transform="translate(115.93375 47.909137) scale(0.09 -0.09)">
    <use xlink:href="#SegoeUI-6e"/>
    <use xlink:href="#SegoeUI-67" transform="translate(56.591797 0)"/>
    <use xlink:href="#SegoeUI-68" transform="translate(115.478516 0)"/>
    <use xlink:href="#SegoeUI-69" transform="translate(172.070312 0)"/>
    <use xlink:href="#SegoeUI-1ec7" transform="translate(196.289062 0)"/>
    <use xlink:href="#SegoeUI-70" transform="translate(248.583984 0)"/>
    <use xlink:href="#SegoeUI-2e" transform="translate(307.373047 0)"/>
   </g>
  </g>
 </g>
 <defs>
  <clipPath id="p66491530a9">
   <rect x="115.93375" y="72.7632" width="569.16" height="299.8368"/>
  </clipPath>
 </defs>
</svg>
