<?xml version="1.0" encoding="utf-8" standalone="no"?>
<!DOCTYPE svg PUBLIC "-//W3C//DTD SVG 1.1//EN"
  "http://www.w3.org/Graphics/SVG/1.1/DTD/svg11.dtd">
<svg xmlns:xlink="http://www.w3.org/1999/xlink" width="697.174688pt" height="409.555313pt" viewBox="0 0 697.174688 409.555313" xmlns="http://www.w3.org/2000/svg" version="1.1">
 <metadata>
  <rdf:RDF xmlns:dc="http://purl.org/dc/elements/1.1/" xmlns:cc="http://creativecommons.org/ns#" xmlns:rdf="http://www.w3.org/1999/02/22-rdf-syntax-ns#">
   <cc:Work>
    <dc:type rdf:resource="http://purl.org/dc/dcmitype/StillImage"/>
    <dc:date>2026-07-09T18:34:30.068573</dc:date>
    <dc:format>image/svg+xml</dc:format>
    <dc:creator>
     <cc:Agent>
      <dc:title>Matplotlib v3.10.8, https://matplotlib.org/</dc:title>
     </cc:Agent>
    </dc:creator>
   </cc:Work>
  </rdf:RDF>
 </metadata>
 <defs>
  <style type="text/css">*{stroke-linejoin: round; stroke-linecap: butt}</style>
 </defs>
 <g id="figure_1">
  <g id="patch_1">
   <path d="M 0 409.555313
L 697.174688 409.555313
L 697.174688 0
L 0 0
z
" style="fill: #fcfcfd"/>
  </g>
  <g id="axes_1">
   <g id="patch_2">
    <path d="M 53.854688 366.3
L 689.974688 366.3
L 689.974688 71.6328
L 53.854688 71.6328
z
" style="fill: #ffffff"/>
   </g>
   <g id="matplotlib.axis_1">
    <g id="xtick_1">
     <g id="text_1">
      <!-- 2018-Q1 -->
      <g style="fill: #262626" transform="translate(61.599389 383.943438) scale(0.11 -0.11)">
       <defs>
        <path id="SegoeUI-32" d="M 2413 3306
Q 2413 3513 2348 3666
Q 2284 3819 2173 3920
Q 2063 4022 1913 4072
Q 1763 4122 1588 4122
Q 1438 4122 1294 4081
Q 1150 4041 1014 3969
Q 878 3897 751 3797
Q 625 3697 516 3575
L 516 4125
Q 731 4334 998 4445
Q 1266 4556 1650 4556
Q 1925 4556 2159 4476
Q 2394 4397 2566 4244
Q 2738 4091 2836 3866
Q 2934 3641 2934 3350
Q 2934 3084 2873 2868
Q 2813 2653 2689 2462
Q 2566 2272 2378 2097
Q 2191 1922 1938 1741
Q 1622 1516 1417 1356
Q 1213 1197 1092 1058
Q 972 919 923 780
Q 875 641 875 459
L 3106 459
L 3106 0
L 341 0
L 341 222
Q 341 509 403 728
Q 466 947 609 1144
Q 753 1341 986 1537
Q 1219 1734 1556 1981
Q 1800 2156 1964 2315
Q 2128 2475 2228 2634
Q 2328 2794 2370 2958
Q 2413 3122 2413 3306
z
" transform="scale(0.015625)"/>
        <path id="SegoeUI-30" d="M 3188 2259
Q 3188 1697 3086 1262
Q 2984 828 2792 529
Q 2600 231 2320 76
Q 2041 -78 1684 -78
Q 1347 -78 1083 70
Q 819 219 637 503
Q 456 788 362 1202
Q 269 1616 269 2150
Q 269 2738 367 3188
Q 466 3638 656 3942
Q 847 4247 1130 4401
Q 1413 4556 1778 4556
Q 3188 4556 3188 2259
z
M 2663 2209
Q 2663 4122 1753 4122
Q 794 4122 794 2175
Q 794 359 1734 359
Q 2663 359 2663 2209
z
" transform="scale(0.015625)"/>
        <path id="SegoeUI-31" d="M 2263 0
L 1750 0
L 1750 3872
Q 1691 3813 1577 3736
Q 1463 3659 1320 3584
Q 1178 3509 1020 3443
Q 863 3378 713 3341
L 713 3859
Q 881 3906 1070 3986
Q 1259 4066 1442 4164
Q 1625 4263 1787 4370
Q 1950 4478 2069 4581
L 2263 4581
L 2263 0
z
" transform="scale(0.015625)"/>
        <path id="SegoeUI-38" d="M 281 1250
Q 281 1428 337 1608
Q 394 1788 498 1944
Q 603 2100 758 2228
Q 913 2356 1109 2431
Q 819 2594 647 2848
Q 475 3103 475 3413
Q 475 3659 570 3868
Q 666 4078 834 4231
Q 1003 4384 1234 4470
Q 1466 4556 1734 4556
Q 2006 4556 2237 4468
Q 2469 4381 2637 4228
Q 2806 4075 2900 3865
Q 2994 3656 2994 3413
Q 2994 3103 2822 2848
Q 2650 2594 2366 2431
Q 2559 2356 2712 2228
Q 2866 2100 2970 1944
Q 3075 1788 3131 1608
Q 3188 1428 3188 1250
Q 3188 956 3081 712
Q 2975 469 2783 295
Q 2591 122 2323 25
Q 2056 -72 1734 -72
Q 1416 -72 1150 25
Q 884 122 690 295
Q 497 469 389 712
Q 281 956 281 1250
z
M 838 1294
Q 838 1084 902 915
Q 966 747 1083 628
Q 1200 509 1367 445
Q 1534 381 1738 381
Q 1934 381 2100 447
Q 2266 513 2386 631
Q 2506 750 2573 919
Q 2641 1088 2641 1294
Q 2641 1481 2577 1645
Q 2513 1809 2394 1934
Q 2275 2059 2109 2131
Q 1944 2203 1738 2203
Q 1544 2203 1380 2136
Q 1216 2069 1095 1948
Q 975 1828 906 1661
Q 838 1494 838 1294
z
M 997 3372
Q 997 3213 1055 3077
Q 1113 2941 1214 2839
Q 1316 2738 1450 2680
Q 1584 2622 1738 2622
Q 1891 2622 2027 2681
Q 2163 2741 2263 2842
Q 2363 2944 2422 3080
Q 2481 3216 2481 3372
Q 2481 3534 2423 3671
Q 2366 3809 2266 3909
Q 2166 4009 2030 4067
Q 1894 4125 1738 4125
Q 1572 4125 1436 4065
Q 1300 4006 1201 3904
Q 1103 3803 1050 3665
Q 997 3528 997 3372
z
" transform="scale(0.015625)"/>
        <path id="SegoeUI-2d" d="M 2156 1581
L 450 1581
L 450 1984
L 2156 1984
L 2156 1581
z
" transform="scale(0.015625)"/>
        <path id="SegoeUI-51" d="M 2394 -75
Q 1444 -75 866 553
Q 294 1181 294 2188
Q 294 3272 878 3913
Q 1466 4556 2469 4556
Q 3394 4556 3963 3931
Q 4531 3306 4531 2297
Q 4531 1200 3950 563
Q 3813 409 3656 300
L 4916 -603
L 3963 -603
L 3119 28
Q 2788 -75 2394 -75
z
M 2431 4081
Q 1725 4081 1284 3572
Q 844 3063 844 2234
Q 844 1409 1272 900
Q 1703 397 2394 397
Q 3131 397 3556 878
Q 3981 1359 3981 2225
Q 3981 3116 3569 3597
Q 3156 4081 2431 4081
z
" transform="scale(0.015625)"/>
       </defs>
       <use xlink:href="#SegoeUI-32"/>
       <use xlink:href="#SegoeUI-30" transform="translate(53.90625 0)"/>
       <use xlink:href="#SegoeUI-31" transform="translate(107.8125 0)"/>
       <use xlink:href="#SegoeUI-38" transform="translate(161.71875 0)"/>
       <use xlink:href="#SegoeUI-2d" transform="translate(215.625 0)"/>
       <use xlink:href="#SegoeUI-51" transform="translate(255.615234 0)"/>
       <use xlink:href="#SegoeUI-31" transform="translate(331.005859 0)"/>
      </g>
     </g>
    </g>
    <g id="xtick_2">
     <g id="text_2">
      <!-- 2019-Q1 -->
      <g style="fill: #262626" transform="translate(136.217571 383.943438) scale(0.11 -0.11)">
       <defs>
        <path id="SegoeUI-39" d="M 3138 2509
Q 3138 1894 3016 1414
Q 2894 934 2659 601
Q 2425 269 2087 95
Q 1750 -78 1319 -78
Q 875 -78 538 78
L 538 569
Q 909 359 1331 359
Q 1634 359 1873 484
Q 2113 609 2278 848
Q 2444 1088 2531 1438
Q 2619 1788 2619 2241
L 2606 2241
Q 2319 1663 1606 1663
Q 1319 1663 1078 1764
Q 838 1866 663 2052
Q 488 2238 391 2494
Q 294 2750 294 3059
Q 294 3391 401 3666
Q 509 3941 701 4139
Q 894 4338 1158 4447
Q 1422 4556 1734 4556
Q 2072 4556 2333 4420
Q 2594 4284 2772 4023
Q 2950 3763 3044 3381
Q 3138 3000 3138 2509
z
M 2584 2969
Q 2584 3228 2517 3440
Q 2450 3653 2331 3804
Q 2213 3956 2048 4039
Q 1884 4122 1691 4122
Q 1506 4122 1347 4048
Q 1188 3975 1070 3842
Q 953 3709 886 3526
Q 819 3344 819 3128
Q 819 2891 883 2703
Q 947 2516 1065 2386
Q 1184 2256 1351 2187
Q 1519 2119 1722 2119
Q 1900 2119 2058 2186
Q 2216 2253 2333 2367
Q 2450 2481 2517 2636
Q 2584 2791 2584 2969
z
" transform="scale(0.015625)"/>
       </defs>
       <use xlink:href="#SegoeUI-32"/>
       <use xlink:href="#SegoeUI-30" transform="translate(53.90625 0)"/>
       <use xlink:href="#SegoeUI-31" transform="translate(107.8125 0)"/>
       <use xlink:href="#SegoeUI-39" transform="translate(161.71875 0)"/>
       <use xlink:href="#SegoeUI-2d" transform="translate(215.625 0)"/>
       <use xlink:href="#SegoeUI-51" transform="translate(255.615234 0)"/>
       <use xlink:href="#SegoeUI-31" transform="translate(331.005859 0)"/>
      </g>
     </g>
    </g>
    <g id="xtick_3">
     <g id="text_3">
      <!-- 2020-Q1 -->
      <g style="fill: #262626" transform="translate(210.835753 383.943438) scale(0.11 -0.11)">
       <use xlink:href="#SegoeUI-32"/>
       <use xlink:href="#SegoeUI-30" transform="translate(53.90625 0)"/>
       <use xlink:href="#SegoeUI-32" transform="translate(107.8125 0)"/>
       <use xlink:href="#SegoeUI-30" transform="translate(161.71875 0)"/>
       <use xlink:href="#SegoeUI-2d" transform="translate(215.625 0)"/>
       <use xlink:href="#SegoeUI-51" transform="translate(255.615234 0)"/>
       <use xlink:href="#SegoeUI-31" transform="translate(331.005859 0)"/>
      </g>
     </g>
    </g>
    <g id="xtick_4">
     <g id="text_4">
      <!-- 2021-Q1 -->
      <g style="fill: #262626" transform="translate(285.453935 383.943438) scale(0.11 -0.11)">
       <use xlink:href="#SegoeUI-32"/>
       <use xlink:href="#SegoeUI-30" transform="translate(53.90625 0)"/>
       <use xlink:href="#SegoeUI-32" transform="translate(107.8125 0)"/>
       <use xlink:href="#SegoeUI-31" transform="translate(161.71875 0)"/>
       <use xlink:href="#SegoeUI-2d" transform="translate(215.625 0)"/>
       <use xlink:href="#SegoeUI-51" transform="translate(255.615234 0)"/>
       <use xlink:href="#SegoeUI-31" transform="translate(331.005859 0)"/>
      </g>
     </g>
    </g>
    <g id="xtick_5">
     <g id="text_5">
      <!-- 2022-Q1 -->
      <g style="fill: #262626" transform="translate(360.072116 383.943438) scale(0.11 -0.11)">
       <use xlink:href="#SegoeUI-32"/>
       <use xlink:href="#SegoeUI-30" transform="translate(53.90625 0)"/>
       <use xlink:href="#SegoeUI-32" transform="translate(107.8125 0)"/>
       <use xlink:href="#SegoeUI-32" transform="translate(161.71875 0)"/>
       <use xlink:href="#SegoeUI-2d" transform="translate(215.625 0)"/>
       <use xlink:href="#SegoeUI-51" transform="translate(255.615234 0)"/>
       <use xlink:href="#SegoeUI-31" transform="translate(331.005859 0)"/>
      </g>
     </g>
    </g>
    <g id="xtick_6">
     <g id="text_6">
      <!-- 2023-Q1 -->
      <g style="fill: #262626" transform="translate(434.690298 383.943438) scale(0.11 -0.11)">
       <defs>
        <path id="SegoeUI-33" d="M 2978 1269
Q 2978 966 2864 717
Q 2750 469 2542 292
Q 2334 116 2043 19
Q 1753 -78 1403 -78
Q 763 -78 384 166
L 384 716
Q 838 359 1422 359
Q 1656 359 1845 418
Q 2034 478 2170 590
Q 2306 703 2379 862
Q 2453 1022 2453 1222
Q 2453 2100 1203 2100
L 831 2100
L 831 2534
L 1184 2534
Q 2291 2534 2291 3359
Q 2291 4122 1447 4122
Q 972 4122 556 3803
L 556 4300
Q 984 4556 1575 4556
Q 1856 4556 2084 4478
Q 2313 4400 2475 4259
Q 2638 4119 2727 3922
Q 2816 3725 2816 3488
Q 2816 2603 1922 2350
L 1922 2338
Q 2150 2313 2344 2227
Q 2538 2141 2678 2003
Q 2819 1866 2898 1680
Q 2978 1494 2978 1269
z
" transform="scale(0.015625)"/>
       </defs>
       <use xlink:href="#SegoeUI-32"/>
       <use xlink:href="#SegoeUI-30" transform="translate(53.90625 0)"/>
       <use xlink:href="#SegoeUI-32" transform="translate(107.8125 0)"/>
       <use xlink:href="#SegoeUI-33" transform="translate(161.71875 0)"/>
       <use xlink:href="#SegoeUI-2d" transform="translate(215.625 0)"/>
       <use xlink:href="#SegoeUI-51" transform="translate(255.615234 0)"/>
       <use xlink:href="#SegoeUI-31" transform="translate(331.005859 0)"/>
      </g>
     </g>
    </g>
    <g id="xtick_7">
     <g id="text_7">
      <!-- 2024-Q1 -->
      <g style="fill: #262626" transform="translate(509.30848 383.943438) scale(0.11 -0.11)">
       <defs>
        <path id="SegoeUI-34" d="M 2656 4481
L 2656 1522
L 3231 1522
L 3231 1053
L 2656 1053
L 2656 0
L 2150 0
L 2150 1053
L 44 1053
L 44 1497
Q 338 1828 638 2204
Q 938 2581 1211 2968
Q 1484 3356 1717 3742
Q 1950 4128 2109 4481
L 2656 4481
z
M 622 1522
L 2150 1522
L 2150 3716
Q 1916 3306 1706 2984
Q 1497 2663 1308 2400
Q 1119 2138 947 1925
Q 775 1713 622 1522
z
" transform="scale(0.015625)"/>
       </defs>
       <use xlink:href="#SegoeUI-32"/>
       <use xlink:href="#SegoeUI-30" transform="translate(53.90625 0)"/>
       <use xlink:href="#SegoeUI-32" transform="translate(107.8125 0)"/>
       <use xlink:href="#SegoeUI-34" transform="translate(161.71875 0)"/>
       <use xlink:href="#SegoeUI-2d" transform="translate(215.625 0)"/>
       <use xlink:href="#SegoeUI-51" transform="translate(255.615234 0)"/>
       <use xlink:href="#SegoeUI-31" transform="translate(331.005859 0)"/>
      </g>
     </g>
    </g>
    <g id="xtick_8">
     <g id="text_8">
      <!-- 2025-Q1 -->
      <g style="fill: #262626" transform="translate(583.926662 383.943438) scale(0.11 -0.11)">
       <defs>
        <path id="SegoeUI-35" d="M 3028 1369
Q 3028 1041 2915 775
Q 2803 509 2595 318
Q 2388 128 2094 25
Q 1800 -78 1441 -78
Q 816 -78 513 109
L 513 653
Q 969 359 1447 359
Q 1691 359 1886 431
Q 2081 503 2218 631
Q 2356 759 2429 940
Q 2503 1122 2503 1338
Q 2503 1775 2209 2023
Q 1916 2272 1356 2272
Q 1266 2272 1166 2269
Q 1066 2266 966 2261
Q 866 2256 770 2250
Q 675 2244 597 2234
L 750 4481
L 2822 4481
L 2822 4019
L 1194 4019
L 1103 2703
Q 1203 2709 1315 2714
Q 1428 2719 1516 2719
Q 1872 2719 2153 2625
Q 2434 2531 2629 2357
Q 2825 2184 2926 1932
Q 3028 1681 3028 1369
z
" transform="scale(0.015625)"/>
       </defs>
       <use xlink:href="#SegoeUI-32"/>
       <use xlink:href="#SegoeUI-30" transform="translate(53.90625 0)"/>
       <use xlink:href="#SegoeUI-32" transform="translate(107.8125 0)"/>
       <use xlink:href="#SegoeUI-35" transform="translate(161.71875 0)"/>
       <use xlink:href="#SegoeUI-2d" transform="translate(215.625 0)"/>
       <use xlink:href="#SegoeUI-51" transform="translate(255.615234 0)"/>
       <use xlink:href="#SegoeUI-31" transform="translate(331.005859 0)"/>
      </g>
     </g>
    </g>
    <g id="text_9">
     <!-- Quý -->
     <g style="fill: #1f2430" transform="translate(361.092188 399.531563) scale(0.12 -0.12)">
      <defs>
       <path id="SegoeUI-75" d="M 3106 0
L 2594 0
L 2594 506
L 2581 506
Q 2263 -75 1594 -75
Q 450 -75 450 1288
L 450 3200
L 959 3200
L 959 1369
Q 959 356 1734 356
Q 2109 356 2351 632
Q 2594 909 2594 1356
L 2594 3200
L 3106 3200
L 3106 0
z
" transform="scale(0.015625)"/>
       <path id="SegoeUI-fd" d="M 3066 3200
L 1594 -513
Q 1200 -1506 488 -1506
Q 288 -1506 153 -1466
L 153 -1006
Q 319 -1063 456 -1063
Q 844 -1063 1038 -600
L 1294 6
L 44 3200
L 613 3200
L 1478 738
Q 1494 691 1544 494
L 1563 494
Q 1578 569 1625 731
L 2534 3200
L 3066 3200
z
M 2382 4831
L 1563 3806
L 1166 3806
L 1863 4831
L 2382 4831
z
" transform="scale(0.015625)"/>
      </defs>
      <use xlink:href="#SegoeUI-51"/>
      <use xlink:href="#SegoeUI-75" transform="translate(75.390625 0)"/>
      <use xlink:href="#SegoeUI-fd" transform="translate(131.982422 0)"/>
     </g>
    </g>
   </g>
   <g id="matplotlib.axis_2">
    <g id="ytick_1">
     <g id="line2d_1">
      <path d="M 53.854688 342.146951
L 689.974688 342.146951
" clip-path="url(#p9ba611e0ad)" style="fill: none; stroke-dasharray: 0.8,1.32; stroke-dashoffset: 0; stroke: #e6e8f0; stroke-width: 0.8"/>
     </g>
     <g id="text_10">
      <!-- 40% -->
      <g style="fill: #262626" transform="translate(23.4925 346.21867) scale(0.11 -0.11)">
       <defs>
        <path id="SegoeUI-25" d="M 1263 2234
Q 800 2234 525 2539
Q 250 2844 250 3353
Q 250 3909 540 4229
Q 831 4550 1325 4550
Q 1803 4550 2067 4253
Q 2331 3956 2331 3419
Q 2331 2881 2036 2557
Q 1741 2234 1263 2234
z
M 1306 4206
Q 1009 4206 837 3986
Q 666 3766 666 3381
Q 666 3003 834 2792
Q 1003 2581 1294 2581
Q 1588 2581 1753 2800
Q 1919 3019 1919 3406
Q 1919 3784 1755 3995
Q 1591 4206 1306 4206
z
M 4263 4481
L 1388 -31
L 941 -31
L 3813 4481
L 4263 4481
z
M 3931 -69
Q 3469 -69 3194 237
Q 2919 544 2919 1050
Q 2919 1606 3212 1929
Q 3506 2253 3994 2253
Q 4469 2253 4734 1953
Q 5000 1653 5000 1113
Q 5000 578 4704 254
Q 4409 -69 3931 -69
z
M 3975 1900
Q 3675 1900 3504 1681
Q 3334 1463 3334 1075
Q 3334 703 3503 492
Q 3672 281 3963 281
Q 4256 281 4422 501
Q 4588 722 4588 1106
Q 4588 1488 4423 1694
Q 4259 1900 3975 1900
z
" transform="scale(0.015625)"/>
       </defs>
       <use xlink:href="#SegoeUI-34"/>
       <use xlink:href="#SegoeUI-30" transform="translate(53.90625 0)"/>
       <use xlink:href="#SegoeUI-25" transform="translate(107.8125 0)"/>
      </g>
     </g>
    </g>
    <g id="ytick_2">
     <g id="line2d_2">
      <path d="M 53.854688 293.840852
L 689.974688 293.840852
" clip-path="url(#p9ba611e0ad)" style="fill: none; stroke-dasharray: 0.8,1.32; stroke-dashoffset: 0; stroke: #e6e8f0; stroke-width: 0.8"/>
     </g>
     <g id="text_11">
      <!-- 50% -->
      <g style="fill: #262626" transform="translate(23.4925 297.912571) scale(0.11 -0.11)">
       <use xlink:href="#SegoeUI-35"/>
       <use xlink:href="#SegoeUI-30" transform="translate(53.90625 0)"/>
       <use xlink:href="#SegoeUI-25" transform="translate(107.8125 0)"/>
      </g>
     </g>
    </g>
    <g id="ytick_3">
     <g id="line2d_3">
      <path d="M 53.854688 245.534754
L 689.974688 245.534754
" clip-path="url(#p9ba611e0ad)" style="fill: none; stroke-dasharray: 0.8,1.32; stroke-dashoffset: 0; stroke: #e6e8f0; stroke-width: 0.8"/>
     </g>
     <g id="text_12">
      <!-- 60% -->
      <g style="fill: #262626" transform="translate(23.4925 249.606473) scale(0.11 -0.11)">
       <defs>
        <path id="SegoeUI-36" d="M 3194 1422
Q 3194 1094 3087 819
Q 2981 544 2793 344
Q 2606 144 2347 33
Q 2088 -78 1784 -78
Q 1447 -78 1180 62
Q 913 203 727 467
Q 541 731 444 1112
Q 347 1494 347 1972
Q 347 2556 476 3032
Q 606 3509 845 3848
Q 1084 4188 1421 4372
Q 1759 4556 2175 4556
Q 2638 4556 2919 4428
L 2919 3944
Q 2572 4122 2188 4122
Q 1888 4122 1647 3987
Q 1406 3853 1234 3608
Q 1063 3363 970 3016
Q 878 2669 878 2244
L 891 2244
Q 1200 2803 1913 2803
Q 2206 2803 2442 2703
Q 2678 2603 2845 2420
Q 3013 2238 3103 1984
Q 3194 1731 3194 1422
z
M 2669 1356
Q 2669 1591 2609 1778
Q 2550 1966 2439 2097
Q 2328 2228 2165 2298
Q 2003 2369 1797 2369
Q 1606 2369 1443 2297
Q 1281 2225 1162 2101
Q 1044 1978 976 1814
Q 909 1650 909 1466
Q 909 1234 975 1032
Q 1041 831 1159 681
Q 1278 531 1442 445
Q 1606 359 1806 359
Q 2000 359 2159 432
Q 2319 506 2431 637
Q 2544 769 2606 951
Q 2669 1134 2669 1356
z
" transform="scale(0.015625)"/>
       </defs>
       <use xlink:href="#SegoeUI-36"/>
       <use xlink:href="#SegoeUI-30" transform="translate(53.90625 0)"/>
       <use xlink:href="#SegoeUI-25" transform="translate(107.8125 0)"/>
      </g>
     </g>
    </g>
    <g id="ytick_4">
     <g id="line2d_4">
      <path d="M 53.854688 197.228656
L 689.974688 197.228656
" clip-path="url(#p9ba611e0ad)" style="fill: none; stroke-dasharray: 0.8,1.32; stroke-dashoffset: 0; stroke: #e6e8f0; stroke-width: 0.8"/>
     </g>
     <g id="text_13">
      <!-- 70% -->
      <g style="fill: #262626" transform="translate(23.4925 201.300374) scale(0.11 -0.11)">
       <defs>
        <path id="SegoeUI-37" d="M 3156 4184
Q 3053 4006 2908 3740
Q 2763 3475 2600 3144
Q 2438 2813 2269 2431
Q 2100 2050 1953 1644
Q 1806 1238 1695 820
Q 1584 403 1534 0
L 984 0
Q 1041 400 1158 817
Q 1275 1234 1423 1636
Q 1572 2038 1737 2409
Q 1903 2781 2059 3093
Q 2216 3406 2345 3645
Q 2475 3884 2553 4019
L 306 4019
L 306 4481
L 3156 4481
L 3156 4184
z
" transform="scale(0.015625)"/>
       </defs>
       <use xlink:href="#SegoeUI-37"/>
       <use xlink:href="#SegoeUI-30" transform="translate(53.90625 0)"/>
       <use xlink:href="#SegoeUI-25" transform="translate(107.8125 0)"/>
      </g>
     </g>
    </g>
    <g id="ytick_5">
     <g id="line2d_5">
      <path d="M 53.854688 148.922557
L 689.974688 148.922557
" clip-path="url(#p9ba611e0ad)" style="fill: none; stroke-dasharray: 0.8,1.32; stroke-dashoffset: 0; stroke: #e6e8f0; stroke-width: 0.8"/>
     </g>
     <g id="text_14">
      <!-- 80% -->
      <g style="fill: #262626" transform="translate(23.4925 152.994276) scale(0.11 -0.11)">
       <use xlink:href="#SegoeUI-38"/>
       <use xlink:href="#SegoeUI-30" transform="translate(53.90625 0)"/>
       <use xlink:href="#SegoeUI-25" transform="translate(107.8125 0)"/>
      </g>
     </g>
    </g>
    <g id="ytick_6">
     <g id="line2d_6">
      <path d="M 53.854688 100.616459
L 689.974688 100.616459
" clip-path="url(#p9ba611e0ad)" style="fill: none; stroke-dasharray: 0.8,1.32; stroke-dashoffset: 0; stroke: #e6e8f0; stroke-width: 0.8"/>
     </g>
     <g id="text_15">
      <!-- 90% -->
      <g style="fill: #262626" transform="translate(23.4925 104.688178) scale(0.11 -0.11)">
       <use xlink:href="#SegoeUI-39"/>
       <use xlink:href="#SegoeUI-30" transform="translate(53.90625 0)"/>
       <use xlink:href="#SegoeUI-25" transform="translate(107.8125 0)"/>
      </g>
     </g>
    </g>
    <g id="text_16">
     <!-- Tỷ lệ đủ toàn bộ biến mô hình -->
     <g style="fill: #1f2430" transform="translate(16.66875 298.7889) rotate(-90) scale(0.12 -0.12)">
      <defs>
       <path id="SegoeUI-54" d="M 3238 4006
L 1944 4006
L 1944 0
L 1419 0
L 1419 4006
L 128 4006
L 128 4481
L 3238 4481
L 3238 4006
z
" transform="scale(0.015625)"/>
       <path id="SegoeUI-1ef7" d="M 3066 3200
L 1594 -513
Q 1200 -1506 488 -1506
Q 288 -1506 153 -1466
L 153 -1006
Q 319 -1063 456 -1063
Q 844 -1063 1038 -600
L 1294 6
L 44 3200
L 613 3200
L 1478 738
Q 1494 691 1544 494
L 1563 494
Q 1578 569 1625 731
L 2534 3200
L 3066 3200
z
M 1166 4909
Q 1282 4922 1416 4922
Q 1691 4922 1868 4790
Q 2045 4659 2045 4438
Q 2045 4247 1924 4115
Q 1804 3984 1626 3963
L 1626 3806
L 1288 3806
L 1288 4166
Q 1638 4166 1638 4403
Q 1638 4600 1345 4600
Q 1291 4600 1166 4575
L 1166 4909
z
" transform="scale(0.015625)"/>
       <path id="SegoeUI-20" transform="scale(0.015625)"/>
       <path id="SegoeUI-6c" d="M 1031 0
L 519 0
L 519 4738
L 1031 4738
L 1031 0
z
" transform="scale(0.015625)"/>
       <path id="SegoeUI-1ec7" d="M 3091 1472
L 831 1472
Q 844 938 1119 647
Q 1394 356 1875 356
Q 2416 356 2869 713
L 2869 231
Q 2447 -75 1753 -75
Q 1075 -75 687 361
Q 300 797 300 1588
Q 300 2334 723 2804
Q 1147 3275 1775 3275
Q 2403 3275 2747 2869
Q 3091 2463 3091 1741
L 3091 1472
z
M 2566 1906
Q 2563 2350 2352 2597
Q 2141 2844 1766 2844
Q 1403 2844 1150 2584
Q 897 2325 838 1906
L 2566 1906
z
M 2610 3806
L 2229 3806
L 1716 4525
L 1201 3806
L 848 3806
L 1519 4844
L 1935 4844
L 2610 3806
z
M 1810 -981
Q 1682 -981 1591 -890
Q 1500 -800 1500 -672
Q 1500 -544 1594 -458
Q 1688 -372 1810 -372
Q 1938 -372 2028 -458
Q 2119 -544 2119 -672
Q 2119 -800 2028 -890
Q 1938 -981 1810 -981
z
" transform="scale(0.015625)"/>
       <path id="SegoeUI-111" d="M 3250 0
L 2738 0
L 2738 544
L 2725 544
Q 2369 -75 1625 -75
Q 1022 -75 661 354
Q 300 784 300 1525
Q 300 2319 700 2797
Q 1100 3275 1766 3275
Q 2416 3275 2725 2756
L 2738 2756
L 2738 3756
L 1703 3756
L 1703 4175
L 2738 4175
L 2738 4738
L 3250 4738
L 3250 4175
L 3675 4175
L 3675 3756
L 3250 3756
L 3250 0
z
M 2738 1447
L 2738 1919
Q 2738 2306 2481 2575
Q 2225 2844 1831 2844
Q 1363 2844 1094 2500
Q 825 2156 825 1550
Q 825 997 1083 676
Q 1341 356 1775 356
Q 2200 356 2469 665
Q 2738 975 2738 1447
z
" transform="scale(0.015625)"/>
       <path id="SegoeUI-1ee7" d="M 3106 0
L 2594 0
L 2594 506
L 2581 506
Q 2263 -75 1594 -75
Q 450 -75 450 1288
L 450 3200
L 959 3200
L 959 1369
Q 959 356 1734 356
Q 2109 356 2351 632
Q 2594 909 2594 1356
L 2594 3200
L 3106 3200
L 3106 0
z
M 1438 4909
Q 1554 4922 1688 4922
Q 1963 4922 2140 4790
Q 2317 4659 2317 4438
Q 2317 4247 2196 4115
Q 2076 3984 1898 3963
L 1898 3806
L 1560 3806
L 1560 4166
Q 1910 4166 1910 4403
Q 1910 4600 1617 4600
Q 1563 4600 1438 4575
L 1438 4909
z
" transform="scale(0.015625)"/>
       <path id="SegoeUI-74" d="M 2003 31
Q 1822 -69 1525 -69
Q 684 -69 684 869
L 684 2763
L 134 2763
L 134 3200
L 684 3200
L 684 3981
L 1197 4147
L 1197 3200
L 2003 3200
L 2003 2763
L 1197 2763
L 1197 959
Q 1197 638 1306 500
Q 1416 363 1669 363
Q 1863 363 2003 469
L 2003 31
z
" transform="scale(0.015625)"/>
       <path id="SegoeUI-6f" d="M 1856 -75
Q 1147 -75 723 373
Q 300 822 300 1563
Q 300 2369 740 2822
Q 1181 3275 1931 3275
Q 2647 3275 3048 2834
Q 3450 2394 3450 1613
Q 3450 847 3017 386
Q 2584 -75 1856 -75
z
M 1894 2844
Q 1400 2844 1112 2508
Q 825 2172 825 1581
Q 825 1013 1115 684
Q 1406 356 1894 356
Q 2391 356 2658 678
Q 2925 1000 2925 1594
Q 2925 2194 2658 2519
Q 2391 2844 1894 2844
z
" transform="scale(0.015625)"/>
       <path id="SegoeUI-e0" d="M 2809 0
L 2297 0
L 2297 500
L 2284 500
Q 1950 -75 1300 -75
Q 822 -75 551 178
Q 281 431 281 850
Q 281 1747 1338 1894
L 2297 2028
Q 2297 2844 1638 2844
Q 1059 2844 594 2450
L 594 2975
Q 1066 3275 1681 3275
Q 2809 3275 2809 2081
L 2809 0
z
M 2297 1619
L 1525 1513
Q 1169 1463 987 1336
Q 806 1209 806 888
Q 806 653 973 504
Q 1141 356 1419 356
Q 1800 356 2048 623
Q 2297 891 2297 1300
L 2297 1619
z
M 2104 3806
L 1707 3806
L 888 4831
L 1413 4831
L 2104 3806
z
" transform="scale(0.015625)"/>
       <path id="SegoeUI-6e" d="M 3175 0
L 2663 0
L 2663 1825
Q 2663 2844 1919 2844
Q 1534 2844 1282 2555
Q 1031 2266 1031 1825
L 1031 0
L 519 0
L 519 3200
L 1031 3200
L 1031 2669
L 1044 2669
Q 1406 3275 2094 3275
Q 2619 3275 2897 2936
Q 3175 2597 3175 1956
L 3175 0
z
" transform="scale(0.015625)"/>
       <path id="SegoeUI-62" d="M 1044 463
L 1031 463
L 1031 0
L 519 0
L 519 4738
L 1031 4738
L 1031 2638
L 1044 2638
Q 1422 3275 2150 3275
Q 2766 3275 3114 2845
Q 3463 2416 3463 1694
Q 3463 891 3072 408
Q 2681 -75 2003 -75
Q 1369 -75 1044 463
z
M 1031 1753
L 1031 1306
Q 1031 909 1289 632
Q 1547 356 1944 356
Q 2409 356 2673 712
Q 2938 1069 2938 1703
Q 2938 2238 2691 2541
Q 2444 2844 2022 2844
Q 1575 2844 1303 2533
Q 1031 2222 1031 1753
z
" transform="scale(0.015625)"/>
       <path id="SegoeUI-1ed9" d="M 1856 -75
Q 1147 -75 723 373
Q 300 822 300 1563
Q 300 2369 740 2822
Q 1181 3275 1931 3275
Q 2647 3275 3048 2834
Q 3450 2394 3450 1613
Q 3450 847 3017 386
Q 2584 -75 1856 -75
z
M 1894 2844
Q 1400 2844 1112 2508
Q 825 2172 825 1581
Q 825 1013 1115 684
Q 1406 356 1894 356
Q 2391 356 2658 678
Q 2925 1000 2925 1594
Q 2925 2194 2658 2519
Q 2391 2844 1894 2844
z
M 2818 3806
L 2437 3806
L 1924 4525
L 1409 3806
L 1056 3806
L 1727 4844
L 2143 4844
L 2818 3806
z
M 1858 -981
Q 1730 -981 1639 -890
Q 1548 -800 1548 -672
Q 1548 -544 1642 -458
Q 1736 -372 1858 -372
Q 1986 -372 2076 -458
Q 2167 -544 2167 -672
Q 2167 -800 2076 -890
Q 1986 -981 1858 -981
z
" transform="scale(0.015625)"/>
       <path id="SegoeUI-69" d="M 781 4013
Q 644 4013 547 4106
Q 450 4200 450 4344
Q 450 4488 547 4583
Q 644 4678 781 4678
Q 922 4678 1020 4583
Q 1119 4488 1119 4344
Q 1119 4206 1020 4109
Q 922 4013 781 4013
z
M 1031 0
L 519 0
L 519 3200
L 1031 3200
L 1031 0
z
" transform="scale(0.015625)"/>
       <path id="SegoeUI-1ebf" d="M 3091 1472
L 831 1472
Q 844 938 1119 647
Q 1394 356 1875 356
Q 2416 356 2869 713
L 2869 231
Q 2447 -75 1753 -75
Q 1075 -75 687 361
Q 300 797 300 1588
Q 300 2334 723 2804
Q 1147 3275 1775 3275
Q 2403 3275 2747 2869
Q 3091 2463 3091 1741
L 3091 1472
z
M 2566 1906
Q 2563 2350 2352 2597
Q 2141 2844 1766 2844
Q 1403 2844 1150 2584
Q 897 2325 838 1906
L 2566 1906
z
M 2395 4281
L 2957 5050
L 3482 5050
L 2791 4281
L 2395 4281
z
M 2601 3806
L 2223 3806
L 1710 4269
L 1191 3806
L 838 3806
L 1513 4588
L 1926 4588
L 2601 3806
z
" transform="scale(0.015625)"/>
       <path id="SegoeUI-6d" d="M 5063 0
L 4550 0
L 4550 1838
Q 4550 2369 4386 2606
Q 4222 2844 3834 2844
Q 3506 2844 3276 2544
Q 3047 2244 3047 1825
L 3047 0
L 2534 0
L 2534 1900
Q 2534 2844 1806 2844
Q 1469 2844 1250 2561
Q 1031 2278 1031 1825
L 1031 0
L 519 0
L 519 3200
L 1031 3200
L 1031 2694
L 1044 2694
Q 1384 3275 2038 3275
Q 2366 3275 2609 3092
Q 2853 2909 2944 2613
Q 3300 3275 4006 3275
Q 5063 3275 5063 1972
L 5063 0
z
" transform="scale(0.015625)"/>
       <path id="SegoeUI-f4" d="M 1856 -75
Q 1147 -75 723 373
Q 300 822 300 1563
Q 300 2369 740 2822
Q 1181 3275 1931 3275
Q 2647 3275 3048 2834
Q 3450 2394 3450 1613
Q 3450 847 3017 386
Q 2584 -75 1856 -75
z
M 1894 2844
Q 1400 2844 1112 2508
Q 825 2172 825 1581
Q 825 1013 1115 684
Q 1406 356 1894 356
Q 2391 356 2658 678
Q 2925 1000 2925 1594
Q 2925 2194 2658 2519
Q 2391 2844 1894 2844
z
M 2762 3806
L 2381 3806
L 1868 4525
L 1353 3806
L 1000 3806
L 1671 4844
L 2087 4844
L 2762 3806
z
" transform="scale(0.015625)"/>
       <path id="SegoeUI-68" d="M 3175 0
L 2663 0
L 2663 1844
Q 2663 2844 1919 2844
Q 1544 2844 1287 2555
Q 1031 2266 1031 1813
L 1031 0
L 519 0
L 519 4738
L 1031 4738
L 1031 2669
L 1044 2669
Q 1413 3275 2094 3275
Q 3175 3275 3175 1972
L 3175 0
z
" transform="scale(0.015625)"/>
       <path id="SegoeUI-ec" d="M 1031 0
L 519 0
L 519 3200
L 1031 3200
L 1031 0
z
M 1152 3806
L 755 3806
L -64 4831
L 461 4831
L 1152 3806
z
" transform="scale(0.015625)"/>
      </defs>
      <use xlink:href="#SegoeUI-54"/>
      <use xlink:href="#SegoeUI-1ef7" transform="translate(52.392578 0)"/>
      <use xlink:href="#SegoeUI-20" transform="translate(100.78125 0)"/>
      <use xlink:href="#SegoeUI-6c" transform="translate(128.173828 0)"/>
      <use xlink:href="#SegoeUI-1ec7" transform="translate(152.392578 0)"/>
      <use xlink:href="#SegoeUI-20" transform="translate(204.6875 0)"/>
      <use xlink:href="#SegoeUI-111" transform="translate(232.080078 0)"/>
      <use xlink:href="#SegoeUI-1ee7" transform="translate(290.966797 0)"/>
      <use xlink:href="#SegoeUI-20" transform="translate(347.558594 0)"/>
      <use xlink:href="#SegoeUI-74" transform="translate(374.951172 0)"/>
      <use xlink:href="#SegoeUI-6f" transform="translate(408.087891 0)"/>
      <use xlink:href="#SegoeUI-e0" transform="translate(465.306641 0)"/>
      <use xlink:href="#SegoeUI-6e" transform="translate(516.185547 0)"/>
      <use xlink:href="#SegoeUI-20" transform="translate(572.777344 0)"/>
      <use xlink:href="#SegoeUI-62" transform="translate(600.169922 0)"/>
      <use xlink:href="#SegoeUI-1ed9" transform="translate(658.958984 0)"/>
      <use xlink:href="#SegoeUI-20" transform="translate(717.552734 0)"/>
      <use xlink:href="#SegoeUI-62" transform="translate(744.945312 0)"/>
      <use xlink:href="#SegoeUI-69" transform="translate(803.734375 0)"/>
      <use xlink:href="#SegoeUI-1ebf" transform="translate(827.953125 0)"/>
      <use xlink:href="#SegoeUI-6e" transform="translate(880.248047 0)"/>
      <use xlink:href="#SegoeUI-20" transform="translate(936.839844 0)"/>
      <use xlink:href="#SegoeUI-6d" transform="translate(964.232422 0)"/>
      <use xlink:href="#SegoeUI-f4" transform="translate(1050.365234 0)"/>
      <use xlink:href="#SegoeUI-20" transform="translate(1108.958984 0)"/>
      <use xlink:href="#SegoeUI-68" transform="translate(1136.351562 0)"/>
      <use xlink:href="#SegoeUI-ec" transform="translate(1192.943359 0)"/>
      <use xlink:href="#SegoeUI-6e" transform="translate(1217.162109 0)"/>
      <use xlink:href="#SegoeUI-68" transform="translate(1273.753906 0)"/>
     </g>
    </g>
   </g>
   <g id="line2d_7">
    <path d="M 82.769233 169.462158
L 101.423778 167.17998
L 120.078324 152.726187
L 138.732869 151.204735
L 157.387415 140.554572
L 176.04196 140.554572
L 194.696506 126.100779
L 213.351051 127.622231
L 232.005597 121.536423
L 250.660142 123.057875
L 269.314688 120.014971
L 287.969233 121.536423
L 306.623778 120.775697
L 325.278324 120.775697
L 343.932869 135.22949
L 362.587415 140.554572
L 381.24196 136.750942
L 399.896506 128.382956
L 418.551051 123.057875
L 437.205597 110.125533
L 455.860142 101.757548
L 474.514688 100.236096
L 493.169233 94.150288
L 511.823778 101.757548
L 530.478324 104.800452
L 549.132869 317.80372
L 567.787415 317.042994
L 586.44196 317.80372
L 605.096506 321.60735
L 623.751051 324.650254
L 642.405597 110.886259
L 661.060142 114.689889
" clip-path="url(#p9ba611e0ad)" style="fill: none; stroke: #a3befa; stroke-linecap: round"/>
    <defs>
     <path id="m875ce8033b" d="M 0 1.9
C 0.503886 1.9 0.987202 1.699804 1.343503 1.343503
C 1.699804 0.987202 1.9 0.503886 1.9 0
C 1.9 -0.503886 1.699804 -0.987202 1.343503 -1.343503
C 0.987202 -1.699804 0.503886 -1.9 0 -1.9
C -0.503886 -1.9 -0.987202 -1.699804 -1.343503 -1.343503
C -1.699804 -0.987202 -1.9 -0.503886 -1.9 0
C -1.9 0.503886 -1.699804 0.987202 -1.343503 1.343503
C -0.987202 1.699804 -0.503886 1.9 0 1.9
z
" style="stroke: #a3befa"/>
    </defs>
    <g clip-path="url(#p9ba611e0ad)">
     <use xlink:href="#m875ce8033b" x="82.769233" y="169.462158" style="fill: #a3befa; stroke: #a3befa"/>
     <use xlink:href="#m875ce8033b" x="101.423778" y="167.17998" style="fill: #a3befa; stroke: #a3befa"/>
     <use xlink:href="#m875ce8033b" x="120.078324" y="152.726187" style="fill: #a3befa; stroke: #a3befa"/>
     <use xlink:href="#m875ce8033b" x="138.732869" y="151.204735" style="fill: #a3befa; stroke: #a3befa"/>
     <use xlink:href="#m875ce8033b" x="157.387415" y="140.554572" style="fill: #a3befa; stroke: #a3befa"/>
     <use xlink:href="#m875ce8033b" x="176.04196" y="140.554572" style="fill: #a3befa; stroke: #a3befa"/>
     <use xlink:href="#m875ce8033b" x="194.696506" y="126.100779" style="fill: #a3befa; stroke: #a3befa"/>
     <use xlink:href="#m875ce8033b" x="213.351051" y="127.622231" style="fill: #a3befa; stroke: #a3befa"/>
     <use xlink:href="#m875ce8033b" x="232.005597" y="121.536423" style="fill: #a3befa; stroke: #a3befa"/>
     <use xlink:href="#m875ce8033b" x="250.660142" y="123.057875" style="fill: #a3befa; stroke: #a3befa"/>
     <use xlink:href="#m875ce8033b" x="269.314688" y="120.014971" style="fill: #a3befa; stroke: #a3befa"/>
     <use xlink:href="#m875ce8033b" x="287.969233" y="121.536423" style="fill: #a3befa; stroke: #a3befa"/>
     <use xlink:href="#m875ce8033b" x="306.623778" y="120.775697" style="fill: #a3befa; stroke: #a3befa"/>
     <use xlink:href="#m875ce8033b" x="325.278324" y="120.775697" style="fill: #a3befa; stroke: #a3befa"/>
     <use xlink:href="#m875ce8033b" x="343.932869" y="135.22949" style="fill: #a3befa; stroke: #a3befa"/>
     <use xlink:href="#m875ce8033b" x="362.587415" y="140.554572" style="fill: #a3befa; stroke: #a3befa"/>
     <use xlink:href="#m875ce8033b" x="381.24196" y="136.750942" style="fill: #a3befa; stroke: #a3befa"/>
     <use xlink:href="#m875ce8033b" x="399.896506" y="128.382956" style="fill: #a3befa; stroke: #a3befa"/>
     <use xlink:href="#m875ce8033b" x="418.551051" y="123.057875" style="fill: #a3befa; stroke: #a3befa"/>
     <use xlink:href="#m875ce8033b" x="437.205597" y="110.125533" style="fill: #a3befa; stroke: #a3befa"/>
     <use xlink:href="#m875ce8033b" x="455.860142" y="101.757548" style="fill: #a3befa; stroke: #a3befa"/>
     <use xlink:href="#m875ce8033b" x="474.514688" y="100.236096" style="fill: #a3befa; stroke: #a3befa"/>
     <use xlink:href="#m875ce8033b" x="493.169233" y="94.150288" style="fill: #a3befa; stroke: #a3befa"/>
     <use xlink:href="#m875ce8033b" x="511.823778" y="101.757548" style="fill: #a3befa; stroke: #a3befa"/>
     <use xlink:href="#m875ce8033b" x="530.478324" y="104.800452" style="fill: #a3befa; stroke: #a3befa"/>
     <use xlink:href="#m875ce8033b" x="549.132869" y="317.80372" style="fill: #a3befa; stroke: #a3befa"/>
     <use xlink:href="#m875ce8033b" x="567.787415" y="317.042994" style="fill: #a3befa; stroke: #a3befa"/>
     <use xlink:href="#m875ce8033b" x="586.44196" y="317.80372" style="fill: #a3befa; stroke: #a3befa"/>
     <use xlink:href="#m875ce8033b" x="605.096506" y="321.60735" style="fill: #a3befa; stroke: #a3befa"/>
     <use xlink:href="#m875ce8033b" x="623.751051" y="324.650254" style="fill: #a3befa; stroke: #a3befa"/>
     <use xlink:href="#m875ce8033b" x="642.405597" y="110.886259" style="fill: #a3befa; stroke: #a3befa"/>
     <use xlink:href="#m875ce8033b" x="661.060142" y="114.689889" style="fill: #a3befa; stroke: #a3befa"/>
    </g>
   </g>
   <g id="line2d_8">
    <path d="M 53.854688 293.840852
L 689.974688 293.840852
" clip-path="url(#p9ba611e0ad)" style="fill: none; stroke-dasharray: 1,1.65; stroke-dashoffset: 0; stroke: #464c55"/>
   </g>
   <g id="patch_3">
    <path d="M 53.854688 366.3
L 53.854688 71.6328
" style="fill: none; stroke: #d7dbe7; stroke-width: 1.25; stroke-linejoin: miter; stroke-linecap: square"/>
   </g>
   <g id="patch_4">
    <path d="M 53.854688 366.3
L 689.974688 366.3
" style="fill: none; stroke: #d7dbe7; stroke-width: 1.25; stroke-linejoin: miter; stroke-linecap: square"/>
   </g>
   <g id="text_17">
    <!-- Ngưỡng 50% -->
    <g style="fill: #464c55" transform="translate(622.549119 284.594781) scale(0.085 -0.085)">
     <defs>
      <path id="SegoeUI-4e" d="M 4200 0
L 3556 0
L 1250 3572
Q 1163 3706 1106 3853
L 1088 3853
Q 1113 3709 1113 3238
L 1113 0
L 588 0
L 588 4481
L 1269 4481
L 3513 966
Q 3653 747 3694 666
L 3706 666
Q 3675 859 3675 1325
L 3675 4481
L 4200 4481
L 4200 0
z
" transform="scale(0.015625)"/>
      <path id="SegoeUI-67" d="M 3250 256
Q 3250 -1506 1563 -1506
Q 969 -1506 525 -1281
L 525 -769
Q 1066 -1069 1556 -1069
Q 2738 -1069 2738 188
L 2738 538
L 2725 538
Q 2359 -75 1625 -75
Q 1028 -75 664 351
Q 300 778 300 1497
Q 300 2313 692 2794
Q 1084 3275 1766 3275
Q 2413 3275 2725 2756
L 2738 2756
L 2738 3200
L 3250 3200
L 3250 256
z
M 2738 1447
L 2738 1919
Q 2738 2300 2480 2572
Q 2222 2844 1838 2844
Q 1363 2844 1094 2498
Q 825 2153 825 1531
Q 825 997 1083 676
Q 1341 356 1766 356
Q 2197 356 2467 662
Q 2738 969 2738 1447
z
" transform="scale(0.015625)"/>
      <path id="SegoeUI-1b0" d="M 3106 0
L 2594 0
L 2594 506
L 2581 506
Q 2263 -75 1594 -75
Q 450 -75 450 1288
L 450 3200
L 959 3200
L 959 1369
Q 959 356 1734 356
Q 2109 356 2351 632
Q 2594 909 2594 1356
L 2594 3200
L 2975 3200
Q 3159 3200 3282 3311
Q 3406 3422 3406 3578
Q 3406 3806 3344 3988
L 3763 3988
Q 3822 3813 3822 3563
Q 3822 2944 3106 2831
L 3106 0
z
" transform="scale(0.015625)"/>
      <path id="SegoeUI-1ee1" d="M 3250 3988
L 3669 3988
Q 3728 3813 3728 3563
Q 3728 2963 3044 2838
Q 3450 2397 3450 1613
Q 3450 847 3017 386
Q 2584 -75 1856 -75
Q 1147 -75 723 373
Q 300 822 300 1563
Q 300 2369 740 2822
Q 1181 3275 1931 3275
Q 2081 3275 2350 3231
Q 2541 3200 2881 3200
Q 3066 3200 3189 3311
Q 3313 3422 3313 3578
Q 3313 3806 3250 3988
z
M 1894 2844
Q 1400 2844 1112 2508
Q 825 2172 825 1581
Q 825 1013 1115 684
Q 1406 356 1894 356
Q 2391 356 2658 678
Q 2925 1000 2925 1594
Q 2925 2194 2658 2519
Q 2391 2844 1894 2844
z
M 2889 4556
Q 2889 4228 2739 4020
Q 2589 3813 2332 3813
Q 2110 3813 1826 3975
Q 1585 4109 1454 4109
Q 1179 4109 1179 3756
L 885 3756
Q 885 4091 1035 4292
Q 1185 4494 1454 4494
Q 1657 4494 1920 4331
Q 2151 4194 2320 4194
Q 2582 4194 2582 4556
L 2889 4556
z
" transform="scale(0.015625)"/>
     </defs>
     <use xlink:href="#SegoeUI-4e"/>
     <use xlink:href="#SegoeUI-67" transform="translate(74.804688 0)"/>
     <use xlink:href="#SegoeUI-1b0" transform="translate(133.691406 0)"/>
     <use xlink:href="#SegoeUI-1ee1" transform="translate(192.480469 0)"/>
     <use xlink:href="#SegoeUI-6e" transform="translate(252.197266 0)"/>
     <use xlink:href="#SegoeUI-67" transform="translate(308.789062 0)"/>
     <use xlink:href="#SegoeUI-20" transform="translate(367.675781 0)"/>
     <use xlink:href="#SegoeUI-35" transform="translate(395.068359 0)"/>
     <use xlink:href="#SegoeUI-30" transform="translate(448.974609 0)"/>
     <use xlink:href="#SegoeUI-25" transform="translate(502.880859 0)"/>
    </g>
   </g>
   <g id="patch_5">
    <path d="M 306.623778 105.37728
Q 306.623778 112.074614 306.623778 118.771948
" style="fill: none; stroke: #c5cad3; stroke-width: 0.8; stroke-linecap: round"/>
   </g>
   <g id="text_18">
    <!-- 2021-Q1 -->
    <g style="fill: #1f2430" transform="translate(291.227528 90.090953) scale(0.08 -0.08)">
     <use xlink:href="#SegoeUI-32"/>
     <use xlink:href="#SegoeUI-30" transform="translate(53.90625 0)"/>
     <use xlink:href="#SegoeUI-32" transform="translate(107.8125 0)"/>
     <use xlink:href="#SegoeUI-31" transform="translate(161.71875 0)"/>
     <use xlink:href="#SegoeUI-2d" transform="translate(215.625 0)"/>
     <use xlink:href="#SegoeUI-51" transform="translate(255.615234 0)"/>
     <use xlink:href="#SegoeUI-31" transform="translate(331.005859 0)"/>
    </g>
    <!-- 85.8% -->
    <g style="fill: #1f2430" transform="translate(296.013778 99.037953) scale(0.08 -0.08)">
     <defs>
      <path id="SegoeUI-2e" d="M 697 -69
Q 553 -69 451 34
Q 350 138 350 281
Q 350 425 451 529
Q 553 634 697 634
Q 844 634 947 529
Q 1050 425 1050 281
Q 1050 138 947 34
Q 844 -69 697 -69
z
" transform="scale(0.015625)"/>
     </defs>
     <use xlink:href="#SegoeUI-38"/>
     <use xlink:href="#SegoeUI-35" transform="translate(53.90625 0)"/>
     <use xlink:href="#SegoeUI-2e" transform="translate(107.8125 0)"/>
     <use xlink:href="#SegoeUI-38" transform="translate(129.492188 0)"/>
     <use xlink:href="#SegoeUI-25" transform="translate(183.398438 0)"/>
    </g>
   </g>
   <g id="patch_6">
    <path d="M 325.278324 135.217875
Q 325.278324 128.996385 325.278324 122.774895
" style="fill: none; stroke: #c5cad3; stroke-width: 0.8; stroke-linecap: round"/>
   </g>
   <g id="text_19">
    <!-- 2021-Q2 -->
    <g style="fill: #1f2430" transform="translate(309.882074 145.642966) scale(0.08 -0.08)">
     <use xlink:href="#SegoeUI-32"/>
     <use xlink:href="#SegoeUI-30" transform="translate(53.90625 0)"/>
     <use xlink:href="#SegoeUI-32" transform="translate(107.8125 0)"/>
     <use xlink:href="#SegoeUI-31" transform="translate(161.71875 0)"/>
     <use xlink:href="#SegoeUI-2d" transform="translate(215.625 0)"/>
     <use xlink:href="#SegoeUI-51" transform="translate(255.615234 0)"/>
     <use xlink:href="#SegoeUI-32" transform="translate(331.005859 0)"/>
    </g>
    <!-- 85.8% -->
    <g style="fill: #1f2430" transform="translate(314.668324 154.589966) scale(0.08 -0.08)">
     <use xlink:href="#SegoeUI-38"/>
     <use xlink:href="#SegoeUI-35" transform="translate(53.90625 0)"/>
     <use xlink:href="#SegoeUI-2e" transform="translate(107.8125 0)"/>
     <use xlink:href="#SegoeUI-38" transform="translate(129.492188 0)"/>
     <use xlink:href="#SegoeUI-25" transform="translate(183.398438 0)"/>
    </g>
   </g>
   <g id="patch_7">
    <path d="M 549.132869 302.405303
Q 549.132869 309.102637 549.132869 315.799971
" style="fill: none; stroke: #c5cad3; stroke-width: 0.8; stroke-linecap: round"/>
   </g>
   <g id="text_20">
    <!-- 2024-Q2 -->
    <g style="fill: #1f2430" transform="translate(533.736619 287.118976) scale(0.08 -0.08)">
     <use xlink:href="#SegoeUI-32"/>
     <use xlink:href="#SegoeUI-30" transform="translate(53.90625 0)"/>
     <use xlink:href="#SegoeUI-32" transform="translate(107.8125 0)"/>
     <use xlink:href="#SegoeUI-34" transform="translate(161.71875 0)"/>
     <use xlink:href="#SegoeUI-2d" transform="translate(215.625 0)"/>
     <use xlink:href="#SegoeUI-51" transform="translate(255.615234 0)"/>
     <use xlink:href="#SegoeUI-32" transform="translate(331.005859 0)"/>
    </g>
    <!-- 45.0% -->
    <g style="fill: #1f2430" transform="translate(538.522869 296.065976) scale(0.08 -0.08)">
     <use xlink:href="#SegoeUI-34"/>
     <use xlink:href="#SegoeUI-35" transform="translate(53.90625 0)"/>
     <use xlink:href="#SegoeUI-2e" transform="translate(107.8125 0)"/>
     <use xlink:href="#SegoeUI-30" transform="translate(129.492188 0)"/>
     <use xlink:href="#SegoeUI-25" transform="translate(183.398438 0)"/>
    </g>
   </g>
   <g id="PathCollection_1">
    <defs>
     <path id="mb28a9c0262" d="M 0 3.082207
C 0.817411 3.082207 1.601453 2.757446 2.179449 2.179449
C 2.757446 1.601453 3.082207 0.817411 3.082207 0
C 3.082207 -0.817411 2.757446 -1.601453 2.179449 -2.179449
C 1.601453 -2.757446 0.817411 -3.082207 0 -3.082207
C -0.817411 -3.082207 -1.601453 -2.757446 -2.179449 -2.179449
C -2.757446 -1.601453 -3.082207 -0.817411 -3.082207 0
C -3.082207 0.817411 -2.757446 1.601453 -2.179449 2.179449
C -1.601453 2.757446 -0.817411 3.082207 0 3.082207
z
" style="stroke: #804126; stroke-width: 0.8"/>
    </defs>
    <g clip-path="url(#p9ba611e0ad)">
     <use xlink:href="#mb28a9c0262" x="549.132869" y="317.80372" style="fill: #f0986e; stroke: #804126; stroke-width: 0.8"/>
     <use xlink:href="#mb28a9c0262" x="567.787415" y="317.042994" style="fill: #f0986e; stroke: #804126; stroke-width: 0.8"/>
     <use xlink:href="#mb28a9c0262" x="586.44196" y="317.80372" style="fill: #f0986e; stroke: #804126; stroke-width: 0.8"/>
     <use xlink:href="#mb28a9c0262" x="605.096506" y="321.60735" style="fill: #f0986e; stroke: #804126; stroke-width: 0.8"/>
     <use xlink:href="#mb28a9c0262" x="623.751051" y="324.650254" style="fill: #f0986e; stroke: #804126; stroke-width: 0.8"/>
    </g>
   </g>
   <g id="legend_1">
    <g id="PathCollection_2">
     <g>
      <use xlink:href="#mb28a9c0262" x="69.254688" y="55.921956" style="fill: #f0986e; stroke: #804126; stroke-width: 0.8"/>
     </g>
    </g>
    <g id="text_21">
     <!-- Bị loại (&lt;50%) -->
     <g style="fill: #262626" transform="translate(89.054688 58.809456) scale(0.11 -0.11)">
      <defs>
       <path id="SegoeUI-42" d="M 588 0
L 588 4481
L 1863 4481
Q 2444 4481 2784 4197
Q 3125 3913 3125 3456
Q 3125 3075 2919 2794
Q 2713 2513 2350 2394
L 2350 2381
Q 2803 2328 3075 2039
Q 3347 1750 3347 1288
Q 3347 713 2934 356
Q 2522 0 1894 0
L 588 0
z
M 1113 4006
L 1113 2559
L 1650 2559
Q 2081 2559 2328 2767
Q 2575 2975 2575 3353
Q 2575 4006 1716 4006
L 1113 4006
z
M 1113 2088
L 1113 475
L 1825 475
Q 2288 475 2542 694
Q 2797 913 2797 1294
Q 2797 2088 1716 2088
L 1113 2088
z
" transform="scale(0.015625)"/>
       <path id="SegoeUI-1ecb" d="M 781 4013
Q 644 4013 547 4106
Q 450 4200 450 4344
Q 450 4488 547 4583
Q 644 4678 781 4678
Q 922 4678 1020 4583
Q 1119 4488 1119 4344
Q 1119 4206 1020 4109
Q 922 4013 781 4013
z
M 1031 0
L 519 0
L 519 3200
L 1031 3200
L 1031 0
z
M 778 -981
Q 650 -981 559 -890
Q 468 -800 468 -672
Q 468 -544 562 -458
Q 656 -372 778 -372
Q 906 -372 996 -458
Q 1087 -544 1087 -672
Q 1087 -800 996 -890
Q 906 -981 778 -981
z
" transform="scale(0.015625)"/>
       <path id="SegoeUI-1ea1" d="M 2809 0
L 2297 0
L 2297 500
L 2284 500
Q 1950 -75 1300 -75
Q 822 -75 551 178
Q 281 431 281 850
Q 281 1747 1338 1894
L 2297 2028
Q 2297 2844 1638 2844
Q 1059 2844 594 2450
L 594 2975
Q 1066 3275 1681 3275
Q 2809 3275 2809 2081
L 2809 0
z
M 2297 1619
L 1525 1513
Q 1169 1463 987 1336
Q 806 1209 806 888
Q 806 653 973 504
Q 1141 356 1419 356
Q 1800 356 2048 623
Q 2297 891 2297 1300
L 2297 1619
z
M 1674 -981
Q 1546 -981 1455 -890
Q 1364 -800 1364 -672
Q 1364 -544 1458 -458
Q 1552 -372 1674 -372
Q 1802 -372 1892 -458
Q 1983 -544 1983 -672
Q 1983 -800 1892 -890
Q 1802 -981 1674 -981
z
" transform="scale(0.015625)"/>
       <path id="SegoeUI-28" d="M 1863 -1019
L 1406 -1019
Q 438 88 438 1709
Q 438 3338 1406 4481
L 1869 4481
Q 888 3294 888 1716
Q 888 150 1863 -1019
z
" transform="scale(0.015625)"/>
       <path id="SegoeUI-3c" d="M 3538 397
L 850 1747
L 850 1931
L 3538 3438
L 3538 2969
L 1531 1856
L 1531 1844
L 3538 863
L 3538 397
z
" transform="scale(0.015625)"/>
       <path id="SegoeUI-29" d="M 531 -1019
L 75 -1019
Q 1050 150 1050 1716
Q 1050 3294 69 4481
L 531 4481
Q 1506 3338 1506 1709
Q 1506 88 531 -1019
z
" transform="scale(0.015625)"/>
      </defs>
      <use xlink:href="#SegoeUI-42"/>
      <use xlink:href="#SegoeUI-1ecb" transform="translate(57.324219 0)"/>
      <use xlink:href="#SegoeUI-20" transform="translate(81.542969 0)"/>
      <use xlink:href="#SegoeUI-6c" transform="translate(108.935547 0)"/>
      <use xlink:href="#SegoeUI-6f" transform="translate(133.154297 0)"/>
      <use xlink:href="#SegoeUI-1ea1" transform="translate(191.748047 0)"/>
      <use xlink:href="#SegoeUI-69" transform="translate(242.626953 0)"/>
      <use xlink:href="#SegoeUI-20" transform="translate(266.845703 0)"/>
      <use xlink:href="#SegoeUI-28" transform="translate(294.238281 0)"/>
      <use xlink:href="#SegoeUI-3c" transform="translate(324.414062 0)"/>
      <use xlink:href="#SegoeUI-35" transform="translate(392.822266 0)"/>
      <use xlink:href="#SegoeUI-30" transform="translate(446.728516 0)"/>
      <use xlink:href="#SegoeUI-25" transform="translate(500.634766 0)"/>
      <use xlink:href="#SegoeUI-29" transform="translate(582.470703 0)"/>
     </g>
    </g>
   </g>
  </g>
  <g id="text_22">
   <!-- CafeF lấp được 2021-Q2 nhưng thiếu dữ liệu đầu vào tại 2024-Q2 -->
   <g style="fill: #1f2430" transform="translate(53.854688 17.457812) scale(0.13 -0.13)">
    <defs>
     <path id="SegoeUI-Semibold-43" d="M 3678 188
Q 3172 -75 2419 -75
Q 1444 -75 856 540
Q 269 1156 269 2156
Q 269 3231 930 3893
Q 1591 4556 2600 4556
Q 3250 4556 3678 4372
L 3678 3634
Q 3225 3903 2678 3903
Q 1950 3903 1498 3437
Q 1047 2972 1047 2194
Q 1047 1453 1469 1014
Q 1891 575 2578 575
Q 3213 575 3678 875
L 3678 188
z
" transform="scale(0.015625)"/>
     <path id="SegoeUI-Semibold-61" d="M 2928 0
L 2225 0
L 2225 500
L 2213 500
Q 1881 -75 1241 -75
Q 769 -75 501 181
Q 234 438 234 859
Q 234 1766 1278 1916
L 2228 2050
Q 2228 2734 1578 2734
Q 1006 2734 547 2341
L 547 2975
Q 1053 3275 1716 3275
Q 2928 3275 2928 2081
L 2928 0
z
M 2228 1572
L 1556 1478
Q 1244 1438 1086 1327
Q 928 1216 928 938
Q 928 734 1073 604
Q 1219 475 1463 475
Q 1794 475 2011 708
Q 2228 941 2228 1294
L 2228 1572
z
" transform="scale(0.015625)"/>
     <path id="SegoeUI-Semibold-66" d="M 2281 4147
Q 2134 4231 1947 4231
Q 1419 4231 1419 3634
L 1419 3200
L 2163 3200
L 2163 2631
L 1422 2631
L 1422 0
L 697 0
L 697 2631
L 150 2631
L 150 3200
L 697 3200
L 697 3719
Q 697 4225 1028 4517
Q 1359 4809 1856 4809
Q 2125 4809 2281 4750
L 2281 4147
z
" transform="scale(0.015625)"/>
     <path id="SegoeUI-Semibold-65" d="M 3181 1403
L 1000 1403
Q 1013 959 1273 718
Q 1534 478 1991 478
Q 2503 478 2931 784
L 2931 200
Q 2494 -75 1775 -75
Q 1069 -75 667 361
Q 266 797 266 1588
Q 266 2334 708 2804
Q 1150 3275 1806 3275
Q 2463 3275 2822 2853
Q 3181 2431 3181 1681
L 3181 1403
z
M 2481 1916
Q 2478 2306 2297 2523
Q 2116 2741 1797 2741
Q 1484 2741 1267 2512
Q 1050 2284 1000 1916
L 2481 1916
z
" transform="scale(0.015625)"/>
     <path id="SegoeUI-Semibold-46" d="M 2972 3850
L 1297 3850
L 1297 2503
L 2841 2503
L 2841 1875
L 1297 1875
L 1297 0
L 553 0
L 553 4481
L 2972 4481
L 2972 3850
z
" transform="scale(0.015625)"/>
     <path id="SegoeUI-Semibold-20" transform="scale(0.015625)"/>
     <path id="SegoeUI-Semibold-6c" d="M 1200 0
L 472 0
L 472 4738
L 1200 4738
L 1200 0
z
" transform="scale(0.015625)"/>
     <path id="SegoeUI-Semibold-1ea5" d="M 2928 0
L 2225 0
L 2225 500
L 2213 500
Q 1881 -75 1241 -75
Q 769 -75 501 181
Q 234 438 234 859
Q 234 1766 1278 1916
L 2228 2050
Q 2228 2734 1578 2734
Q 1006 2734 547 2341
L 547 2975
Q 1053 3275 1716 3275
Q 2928 3275 2928 2081
L 2928 0
z
M 2228 1572
L 1556 1478
Q 1244 1438 1086 1327
Q 928 1216 928 938
Q 928 734 1073 604
Q 1219 475 1463 475
Q 1794 475 2011 708
Q 2228 941 2228 1294
L 2228 1572
z
M 2432 4281
L 2995 5050
L 3679 5050
L 2926 4281
L 2432 4281
z
M 2673 3806
L 2182 3806
L 1689 4253
L 1204 3806
L 729 3806
L 1420 4588
L 1982 4588
L 2673 3806
z
" transform="scale(0.015625)"/>
     <path id="SegoeUI-Semibold-70" d="M 1209 472
L 1197 472
L 1197 -1472
L 472 -1472
L 472 3200
L 1197 3200
L 1197 2638
L 1209 2638
Q 1581 3275 2297 3275
Q 2906 3275 3247 2847
Q 3588 2419 3588 1697
Q 3588 897 3203 415
Q 2819 -66 2153 -66
Q 1541 -66 1209 472
z
M 1191 1734
L 1191 1338
Q 1191 988 1414 744
Q 1638 500 1981 500
Q 2384 500 2614 814
Q 2844 1128 2844 1691
Q 2844 2163 2630 2430
Q 2416 2697 2050 2697
Q 1663 2697 1427 2422
Q 1191 2147 1191 1734
z
" transform="scale(0.015625)"/>
     <path id="SegoeUI-Semibold-111" d="M 3381 0
L 2656 0
L 2656 497
L 2644 497
Q 2309 -75 1613 -75
Q 1000 -75 633 354
Q 266 784 266 1525
Q 266 2319 664 2797
Q 1063 3275 1728 3275
Q 2350 3275 2644 2791
L 2656 2791
L 2656 3713
L 1622 3713
L 1622 4231
L 2656 4231
L 2656 4738
L 3381 4738
L 3381 4231
L 3816 4231
L 3816 3713
L 3381 3713
L 3381 0
z
M 2666 1475
L 2666 1863
Q 2666 2213 2441 2455
Q 2216 2697 1872 2697
Q 1469 2697 1237 2392
Q 1006 2088 1006 1550
Q 1006 1063 1229 781
Q 1453 500 1831 500
Q 2200 500 2433 776
Q 2666 1053 2666 1475
z
" transform="scale(0.015625)"/>
     <path id="SegoeUI-Semibold-1b0" d="M 3263 0
L 2538 0
L 2538 497
L 2525 497
Q 2213 -69 1531 -69
Q 409 -69 409 1291
L 409 3200
L 1134 3200
L 1134 1363
Q 1134 500 1803 500
Q 2125 500 2331 737
Q 2538 975 2538 1359
L 2538 3200
L 3153 3200
Q 3328 3200 3447 3322
Q 3566 3444 3566 3616
Q 3566 3822 3503 3988
L 3994 3988
Q 4050 3822 4050 3588
Q 4050 2925 3263 2806
L 3263 0
z
" transform="scale(0.015625)"/>
     <path id="SegoeUI-Semibold-1ee3" d="M 3272 3988
L 3772 3988
Q 3838 3816 3838 3569
Q 3838 2950 3141 2822
Q 3556 2388 3556 1613
Q 3556 847 3104 386
Q 2653 -75 1894 -75
Q 1153 -75 709 373
Q 266 822 266 1563
Q 266 2369 722 2822
Q 1178 3275 1953 3275
Q 2094 3275 2347 3231
Q 2525 3200 2847 3200
Q 3053 3200 3192 3319
Q 3331 3438 3331 3606
Q 3331 3819 3272 3988
z
M 1925 2697
Q 1503 2697 1256 2400
Q 1009 2103 1009 1581
Q 1009 1078 1259 789
Q 1509 500 1928 500
Q 2356 500 2586 784
Q 2816 1069 2816 1594
Q 2816 2122 2586 2409
Q 2356 2697 1925 2697
z
M 1895 -1088
Q 1735 -1088 1621 -981
Q 1507 -875 1507 -725
Q 1507 -575 1624 -473
Q 1741 -372 1895 -372
Q 2054 -372 2166 -473
Q 2279 -575 2279 -725
Q 2279 -875 2166 -981
Q 2054 -1088 1895 -1088
z
" transform="scale(0.015625)"/>
     <path id="SegoeUI-Semibold-63" d="M 2763 147
Q 2378 -75 1853 -75
Q 1141 -75 703 370
Q 266 816 266 1525
Q 266 2316 736 2795
Q 1206 3275 1994 3275
Q 2431 3275 2766 3122
L 2766 2447
Q 2431 2697 2053 2697
Q 1594 2697 1300 2386
Q 1006 2075 1006 1572
Q 1006 1075 1282 787
Q 1559 500 2025 500
Q 2416 500 2763 778
L 2763 147
z
" transform="scale(0.015625)"/>
     <path id="SegoeUI-Semibold-32" d="M 3119 0
L 306 0
L 306 347
Q 306 559 365 745
Q 425 931 525 1095
Q 625 1259 759 1404
Q 894 1550 1047 1686
Q 1200 1822 1359 1948
Q 1519 2075 1672 2203
Q 1816 2325 1934 2442
Q 2053 2559 2137 2684
Q 2222 2809 2269 2948
Q 2316 3088 2316 3250
Q 2316 3428 2261 3561
Q 2206 3694 2107 3783
Q 2009 3872 1875 3917
Q 1741 3963 1581 3963
Q 1306 3963 1022 3834
Q 738 3706 475 3450
L 475 4147
Q 613 4250 753 4326
Q 894 4403 1044 4454
Q 1194 4506 1359 4531
Q 1525 4556 1713 4556
Q 2016 4556 2262 4476
Q 2509 4397 2684 4242
Q 2859 4088 2954 3856
Q 3050 3625 3050 3325
Q 3050 3053 2983 2836
Q 2916 2619 2792 2431
Q 2669 2244 2494 2075
Q 2319 1906 2103 1728
Q 1922 1581 1742 1442
Q 1563 1303 1419 1170
Q 1275 1038 1186 905
Q 1097 772 1097 638
L 1097 622
L 3119 622
L 3119 0
z
" transform="scale(0.015625)"/>
     <path id="SegoeUI-Semibold-30" d="M 1728 -75
Q 1028 -75 636 497
Q 244 1069 244 2150
Q 244 3338 653 3947
Q 1063 4556 1834 4556
Q 3313 4556 3313 2259
Q 3313 1122 2895 523
Q 2478 -75 1728 -75
z
M 1800 3978
Q 984 3978 984 2181
Q 984 500 1784 500
Q 2572 500 2572 2209
Q 2572 3978 1800 3978
z
" transform="scale(0.015625)"/>
     <path id="SegoeUI-Semibold-31" d="M 1922 4581
L 1922 0
L 1197 0
L 1197 3694
Q 1000 3553 773 3454
Q 547 3356 256 3281
L 256 3900
Q 438 3959 606 4025
Q 775 4091 939 4172
Q 1103 4253 1270 4353
Q 1438 4453 1616 4581
L 1922 4581
z
" transform="scale(0.015625)"/>
     <path id="SegoeUI-Semibold-2d" d="M 2156 1481
L 450 1481
L 450 2016
L 2156 2016
L 2156 1481
z
" transform="scale(0.015625)"/>
     <path id="SegoeUI-Semibold-51" d="M 2400 -75
Q 1916 -75 1522 90
Q 1128 256 850 554
Q 572 853 419 1268
Q 266 1684 266 2188
Q 266 2725 420 3162
Q 575 3600 861 3909
Q 1147 4219 1556 4387
Q 1966 4556 2472 4556
Q 2941 4556 3328 4390
Q 3716 4225 3991 3926
Q 4266 3628 4417 3212
Q 4569 2797 4569 2297
Q 4569 1634 4347 1136
Q 4125 638 3722 334
L 5022 -603
L 3891 -603
L 3091 19
Q 2931 -25 2759 -50
Q 2588 -75 2400 -75
z
M 2434 3903
Q 2128 3903 1873 3783
Q 1619 3663 1434 3442
Q 1250 3222 1148 2915
Q 1047 2609 1047 2234
Q 1047 1863 1145 1556
Q 1244 1250 1422 1033
Q 1600 816 1850 695
Q 2100 575 2403 575
Q 2725 575 2981 687
Q 3238 800 3417 1011
Q 3597 1222 3694 1528
Q 3791 1834 3791 2225
Q 3791 2625 3697 2937
Q 3603 3250 3428 3464
Q 3253 3678 3001 3790
Q 2750 3903 2434 3903
z
" transform="scale(0.015625)"/>
     <path id="SegoeUI-Semibold-6e" d="M 3322 0
L 2597 0
L 2597 1803
Q 2597 2700 1963 2700
Q 1631 2700 1415 2451
Q 1200 2203 1200 1825
L 1200 0
L 472 0
L 472 3200
L 1200 3200
L 1200 2669
L 1213 2669
Q 1572 3275 2250 3275
Q 2772 3275 3047 2936
Q 3322 2597 3322 1956
L 3322 0
z
" transform="scale(0.015625)"/>
     <path id="SegoeUI-Semibold-68" d="M 3316 0
L 2591 0
L 2591 1750
Q 2591 2700 1956 2700
Q 1638 2700 1419 2425
Q 1200 2150 1200 1722
L 1200 0
L 472 0
L 472 4738
L 1200 4738
L 1200 2669
L 1213 2669
Q 1575 3275 2250 3275
Q 3316 3275 3316 1972
L 3316 0
z
" transform="scale(0.015625)"/>
     <path id="SegoeUI-Semibold-67" d="M 3384 256
Q 3384 -1506 1613 -1506
Q 988 -1506 522 -1297
L 522 -634
Q 1047 -934 1519 -934
Q 2659 -934 2659 188
L 2659 538
L 2647 538
Q 2288 -75 1566 -75
Q 981 -75 623 351
Q 266 778 266 1497
Q 266 2313 650 2794
Q 1034 3275 1706 3275
Q 2341 3275 2647 2756
L 2659 2756
L 2659 3200
L 3384 3200
L 3384 256
z
M 2666 1466
L 2666 1881
Q 2666 2219 2442 2458
Q 2219 2697 1884 2697
Q 1472 2697 1239 2392
Q 1006 2088 1006 1541
Q 1006 1069 1229 786
Q 1453 503 1822 503
Q 2197 503 2431 773
Q 2666 1044 2666 1466
z
" transform="scale(0.015625)"/>
     <path id="SegoeUI-Semibold-74" d="M 2159 34
Q 1947 -72 1600 -72
Q 669 -72 669 822
L 669 2631
L 134 2631
L 134 3200
L 669 3200
L 669 3941
L 1394 4147
L 1394 3200
L 2159 3200
L 2159 2631
L 1394 2631
L 1394 1031
Q 1394 747 1497 625
Q 1600 503 1841 503
Q 2025 503 2159 609
L 2159 34
z
" transform="scale(0.015625)"/>
     <path id="SegoeUI-Semibold-69" d="M 838 3872
Q 659 3872 532 3987
Q 406 4103 406 4281
Q 406 4459 532 4578
Q 659 4697 838 4697
Q 1022 4697 1150 4578
Q 1278 4459 1278 4281
Q 1278 4113 1150 3992
Q 1022 3872 838 3872
z
M 1197 0
L 472 0
L 472 3200
L 1197 3200
L 1197 0
z
" transform="scale(0.015625)"/>
     <path id="SegoeUI-Semibold-1ebf" d="M 3181 1403
L 1000 1403
Q 1013 959 1273 718
Q 1534 478 1991 478
Q 2503 478 2931 784
L 2931 200
Q 2494 -75 1775 -75
Q 1069 -75 667 361
Q 266 797 266 1588
Q 266 2334 708 2804
Q 1150 3275 1806 3275
Q 2463 3275 2822 2853
Q 3181 2431 3181 1681
L 3181 1403
z
M 2481 1916
Q 2478 2306 2297 2523
Q 2116 2741 1797 2741
Q 1484 2741 1267 2512
Q 1050 2284 1000 1916
L 2481 1916
z
M 2480 4281
L 3043 5050
L 3727 5050
L 2974 4281
L 2480 4281
z
M 2721 3806
L 2230 3806
L 1737 4253
L 1252 3806
L 777 3806
L 1468 4588
L 2030 4588
L 2721 3806
z
" transform="scale(0.015625)"/>
     <path id="SegoeUI-Semibold-75" d="M 3263 0
L 2538 0
L 2538 506
L 2525 506
Q 2209 -75 1544 -75
Q 409 -75 409 1288
L 409 3200
L 1134 3200
L 1134 1363
Q 1134 500 1800 500
Q 2122 500 2330 737
Q 2538 975 2538 1359
L 2538 3200
L 3263 3200
L 3263 0
z
" transform="scale(0.015625)"/>
     <path id="SegoeUI-Semibold-64" d="M 3381 0
L 2656 0
L 2656 544
L 2644 544
Q 2294 -75 1566 -75
Q 975 -75 620 354
Q 266 784 266 1525
Q 266 2319 658 2797
Q 1050 3275 1703 3275
Q 2350 3275 2644 2756
L 2656 2756
L 2656 4738
L 3381 4738
L 3381 0
z
M 2666 1463
L 2666 1881
Q 2666 2222 2444 2459
Q 2222 2697 1878 2697
Q 1472 2697 1239 2394
Q 1006 2091 1006 1553
Q 1006 1066 1229 783
Q 1453 500 1831 500
Q 2203 500 2434 773
Q 2666 1047 2666 1463
z
" transform="scale(0.015625)"/>
     <path id="SegoeUI-Semibold-1eef" d="M 3263 0
L 2538 0
L 2538 497
L 2525 497
Q 2213 -69 1531 -69
Q 409 -69 409 1291
L 409 3200
L 1134 3200
L 1134 1363
Q 1134 500 1803 500
Q 2125 500 2331 737
Q 2538 975 2538 1359
L 2538 3200
L 3153 3200
Q 3328 3200 3447 3322
Q 3566 3444 3566 3616
Q 3566 3822 3503 3988
L 3994 3988
Q 4050 3822 4050 3588
Q 4050 2925 3263 2806
L 3263 0
z
M 2910 4609
Q 2910 4247 2749 4017
Q 2588 3788 2313 3788
Q 2088 3788 1797 3938
Q 1554 4078 1419 4078
Q 1157 4078 1157 3731
L 797 3731
Q 797 4103 956 4326
Q 1116 4550 1404 4550
Q 1616 4550 1894 4391
Q 2119 4253 2285 4253
Q 2538 4253 2538 4609
L 2910 4609
z
" transform="scale(0.015625)"/>
     <path id="SegoeUI-Semibold-1ec7" d="M 3181 1403
L 1000 1403
Q 1013 959 1273 718
Q 1534 478 1991 478
Q 2503 478 2931 784
L 2931 200
Q 2494 -75 1775 -75
Q 1069 -75 667 361
Q 266 797 266 1588
Q 266 2334 708 2804
Q 1150 3275 1806 3275
Q 2463 3275 2822 2853
Q 3181 2431 3181 1681
L 3181 1403
z
M 2481 1916
Q 2478 2306 2297 2523
Q 2116 2741 1797 2741
Q 1484 2741 1267 2512
Q 1050 2284 1000 1916
L 2481 1916
z
M 2765 3763
L 2265 3763
L 1762 4422
L 1272 3763
L 787 3763
L 1487 4788
L 2062 4788
L 2765 3763
z
M 1847 -1088
Q 1687 -1088 1573 -981
Q 1459 -875 1459 -725
Q 1459 -575 1576 -473
Q 1693 -372 1847 -372
Q 2006 -372 2118 -473
Q 2231 -575 2231 -725
Q 2231 -875 2118 -981
Q 2006 -1088 1847 -1088
z
" transform="scale(0.015625)"/>
     <path id="SegoeUI-Semibold-1ea7" d="M 2928 0
L 2225 0
L 2225 500
L 2213 500
Q 1881 -75 1241 -75
Q 769 -75 501 181
Q 234 438 234 859
Q 234 1766 1278 1916
L 2228 2050
Q 2228 2734 1578 2734
Q 1006 2734 547 2341
L 547 2975
Q 1053 3275 1716 3275
Q 2928 3275 2928 2081
L 2928 0
z
M 2228 1572
L 1556 1478
Q 1244 1438 1086 1327
Q 928 1216 928 938
Q 928 734 1073 604
Q 1219 475 1463 475
Q 1794 475 2011 708
Q 2228 941 2228 1294
L 2228 1572
z
M 983 4281
L 489 4281
L -264 5050
L 420 5050
L 983 4281
z
M 739 3806
L 1429 4588
L 1995 4588
L 2686 3806
L 2211 3806
L 1726 4253
L 1229 3806
L 739 3806
z
" transform="scale(0.015625)"/>
     <path id="SegoeUI-Semibold-76" d="M 3228 3200
L 1991 0
L 1206 0
L 28 3200
L 816 3200
L 1525 963
Q 1606 716 1625 531
L 1634 531
Q 1663 763 1722 950
L 2466 3200
L 3228 3200
z
" transform="scale(0.015625)"/>
     <path id="SegoeUI-Semibold-e0" d="M 2928 0
L 2225 0
L 2225 500
L 2213 500
Q 1881 -75 1241 -75
Q 769 -75 501 181
Q 234 438 234 859
Q 234 1766 1278 1916
L 2228 2050
Q 2228 2734 1578 2734
Q 1006 2734 547 2341
L 547 2975
Q 1053 3275 1716 3275
Q 2928 3275 2928 2081
L 2928 0
z
M 2228 1572
L 1556 1478
Q 1244 1438 1086 1327
Q 928 1216 928 938
Q 928 734 1073 604
Q 1219 475 1463 475
Q 1794 475 2011 708
Q 2228 941 2228 1294
L 2228 1572
z
M 2247 3763
L 1706 3763
L 888 4788
L 1556 4788
L 2247 3763
z
" transform="scale(0.015625)"/>
     <path id="SegoeUI-Semibold-6f" d="M 1891 -75
Q 1150 -75 708 373
Q 266 822 266 1563
Q 266 2369 727 2822
Q 1188 3275 1969 3275
Q 2719 3275 3137 2834
Q 3556 2394 3556 1613
Q 3556 847 3104 386
Q 2653 -75 1891 -75
z
M 1925 2697
Q 1500 2697 1253 2400
Q 1006 2103 1006 1581
Q 1006 1078 1256 789
Q 1506 500 1925 500
Q 2353 500 2583 784
Q 2813 1069 2813 1594
Q 2813 2122 2583 2409
Q 2353 2697 1925 2697
z
" transform="scale(0.015625)"/>
     <path id="SegoeUI-Semibold-1ea1" d="M 2928 0
L 2225 0
L 2225 500
L 2213 500
Q 1881 -75 1241 -75
Q 769 -75 501 181
Q 234 438 234 859
Q 234 1766 1278 1916
L 2228 2050
Q 2228 2734 1578 2734
Q 1006 2734 547 2341
L 547 2975
Q 1053 3275 1716 3275
Q 2928 3275 2928 2081
L 2928 0
z
M 2228 1572
L 1556 1478
Q 1244 1438 1086 1327
Q 928 1216 928 938
Q 928 734 1073 604
Q 1219 475 1463 475
Q 1794 475 2011 708
Q 2228 941 2228 1294
L 2228 1572
z
M 1679 -1088
Q 1519 -1088 1405 -981
Q 1291 -875 1291 -725
Q 1291 -575 1408 -473
Q 1525 -372 1679 -372
Q 1838 -372 1950 -473
Q 2063 -575 2063 -725
Q 2063 -875 1950 -981
Q 1838 -1088 1679 -1088
z
" transform="scale(0.015625)"/>
     <path id="SegoeUI-Semibold-34" d="M 2894 4481
L 2894 1588
L 3559 1588
L 3559 984
L 2894 984
L 2894 0
L 2191 0
L 2191 984
L 163 984
L 163 1594
Q 438 1903 727 2264
Q 1016 2625 1283 3001
Q 1550 3378 1778 3756
Q 2006 4134 2163 4481
L 2894 4481
z
M 2191 1588
L 2191 3469
Q 1850 2856 1517 2400
Q 1184 1944 894 1588
L 2191 1588
z
" transform="scale(0.015625)"/>
    </defs>
    <use xlink:href="#SegoeUI-Semibold-43"/>
    <use xlink:href="#SegoeUI-Semibold-61" transform="translate(62.109375 0)"/>
    <use xlink:href="#SegoeUI-Semibold-66" transform="translate(114.306641 0)"/>
    <use xlink:href="#SegoeUI-Semibold-65" transform="translate(148.779297 0)"/>
    <use xlink:href="#SegoeUI-Semibold-46" transform="translate(201.904297 0)"/>
    <use xlink:href="#SegoeUI-Semibold-20" transform="translate(252.148438 0)"/>
    <use xlink:href="#SegoeUI-Semibold-6c" transform="translate(279.638672 0)"/>
    <use xlink:href="#SegoeUI-Semibold-1ea5" transform="translate(305.761719 0)"/>
    <use xlink:href="#SegoeUI-Semibold-70" transform="translate(357.958984 0)"/>
    <use xlink:href="#SegoeUI-Semibold-20" transform="translate(418.212891 0)"/>
    <use xlink:href="#SegoeUI-Semibold-111" transform="translate(445.703125 0)"/>
    <use xlink:href="#SegoeUI-Semibold-1b0" transform="translate(506.542969 0)"/>
    <use xlink:href="#SegoeUI-Semibold-1ee3" transform="translate(568.945312 0)"/>
    <use xlink:href="#SegoeUI-Semibold-63" transform="translate(630.126953 0)"/>
    <use xlink:href="#SegoeUI-Semibold-20" transform="translate(677.148438 0)"/>
    <use xlink:href="#SegoeUI-Semibold-32" transform="translate(704.638672 0)"/>
    <use xlink:href="#SegoeUI-Semibold-30" transform="translate(760.15625 0)"/>
    <use xlink:href="#SegoeUI-Semibold-32" transform="translate(815.673828 0)"/>
    <use xlink:href="#SegoeUI-Semibold-31" transform="translate(871.191406 0)"/>
    <use xlink:href="#SegoeUI-Semibold-2d" transform="translate(911.425781 0)"/>
    <use xlink:href="#SegoeUI-Semibold-51" transform="translate(951.611328 0)"/>
    <use xlink:href="#SegoeUI-Semibold-32" transform="translate(1027.197266 0)"/>
    <use xlink:href="#SegoeUI-Semibold-20" transform="translate(1082.714844 0)"/>
    <use xlink:href="#SegoeUI-Semibold-6e" transform="translate(1110.205078 0)"/>
    <use xlink:href="#SegoeUI-Semibold-68" transform="translate(1168.554688 0)"/>
    <use xlink:href="#SegoeUI-Semibold-1b0" transform="translate(1226.757812 0)"/>
    <use xlink:href="#SegoeUI-Semibold-6e" transform="translate(1289.160156 0)"/>
    <use xlink:href="#SegoeUI-Semibold-67" transform="translate(1347.509766 0)"/>
    <use xlink:href="#SegoeUI-Semibold-20" transform="translate(1407.763672 0)"/>
    <use xlink:href="#SegoeUI-Semibold-74" transform="translate(1435.253906 0)"/>
    <use xlink:href="#SegoeUI-Semibold-68" transform="translate(1471.386719 0)"/>
    <use xlink:href="#SegoeUI-Semibold-69" transform="translate(1529.589844 0)"/>
    <use xlink:href="#SegoeUI-Semibold-1ebf" transform="translate(1555.712891 0)"/>
    <use xlink:href="#SegoeUI-Semibold-75" transform="translate(1608.837891 0)"/>
    <use xlink:href="#SegoeUI-Semibold-20" transform="translate(1667.1875 0)"/>
    <use xlink:href="#SegoeUI-Semibold-64" transform="translate(1694.677734 0)"/>
    <use xlink:href="#SegoeUI-Semibold-1eef" transform="translate(1754.931641 0)"/>
    <use xlink:href="#SegoeUI-Semibold-20" transform="translate(1817.333984 0)"/>
    <use xlink:href="#SegoeUI-Semibold-6c" transform="translate(1844.824219 0)"/>
    <use xlink:href="#SegoeUI-Semibold-69" transform="translate(1870.947266 0)"/>
    <use xlink:href="#SegoeUI-Semibold-1ec7" transform="translate(1897.070312 0)"/>
    <use xlink:href="#SegoeUI-Semibold-75" transform="translate(1950.195312 0)"/>
    <use xlink:href="#SegoeUI-Semibold-20" transform="translate(2008.544922 0)"/>
    <use xlink:href="#SegoeUI-Semibold-111" transform="translate(2036.035156 0)"/>
    <use xlink:href="#SegoeUI-Semibold-1ea7" transform="translate(2096.875 0)"/>
    <use xlink:href="#SegoeUI-Semibold-75" transform="translate(2149.072266 0)"/>
    <use xlink:href="#SegoeUI-Semibold-20" transform="translate(2207.421875 0)"/>
    <use xlink:href="#SegoeUI-Semibold-76" transform="translate(2234.912109 0)"/>
    <use xlink:href="#SegoeUI-Semibold-e0" transform="translate(2284.019531 0)"/>
    <use xlink:href="#SegoeUI-Semibold-6f" transform="translate(2336.216797 0)"/>
    <use xlink:href="#SegoeUI-Semibold-20" transform="translate(2395.933594 0)"/>
    <use xlink:href="#SegoeUI-Semibold-74" transform="translate(2423.423828 0)"/>
    <use xlink:href="#SegoeUI-Semibold-1ea1" transform="translate(2459.556641 0)"/>
    <use xlink:href="#SegoeUI-Semibold-69" transform="translate(2511.753906 0)"/>
    <use xlink:href="#SegoeUI-Semibold-20" transform="translate(2537.876953 0)"/>
    <use xlink:href="#SegoeUI-Semibold-32" transform="translate(2565.367188 0)"/>
    <use xlink:href="#SegoeUI-Semibold-30" transform="translate(2620.884766 0)"/>
    <use xlink:href="#SegoeUI-Semibold-32" transform="translate(2676.402344 0)"/>
    <use xlink:href="#SegoeUI-Semibold-34" transform="translate(2731.919922 0)"/>
    <use xlink:href="#SegoeUI-Semibold-2d" transform="translate(2789.537109 0)"/>
    <use xlink:href="#SegoeUI-Semibold-51" transform="translate(2829.722656 0)"/>
    <use xlink:href="#SegoeUI-Semibold-32" transform="translate(2905.308594 0)"/>
   </g>
  </g>
  <g id="text_23">
   <!-- Coverage trên 635 mã hiện niêm yết HOSE/HNX phi tài chính. Thiếu 2024-Q2 lan sang bốn quý kế tiếp vì ROA và các -->
   <g style="fill: #6f768a" transform="translate(53.854688 36.873562) scale(0.09 -0.09)">
    <defs>
     <path id="SegoeUI-43" d="M 3638 188
Q 3141 -75 2400 -75
Q 1444 -75 869 540
Q 294 1156 294 2156
Q 294 3231 941 3893
Q 1588 4556 2581 4556
Q 3219 4556 3638 4372
L 3638 3813
Q 3156 4081 2575 4081
Q 1803 4081 1323 3565
Q 844 3050 844 2188
Q 844 1369 1292 883
Q 1741 397 2469 397
Q 3144 397 3638 697
L 3638 188
z
" transform="scale(0.015625)"/>
     <path id="SegoeUI-76" d="M 3034 3200
L 1759 0
L 1256 0
L 44 3200
L 606 3200
L 1419 875
Q 1509 619 1531 428
L 1544 428
Q 1575 669 1644 863
L 2494 3200
L 3034 3200
z
" transform="scale(0.015625)"/>
     <path id="SegoeUI-65" d="M 3091 1472
L 831 1472
Q 844 938 1119 647
Q 1394 356 1875 356
Q 2416 356 2869 713
L 2869 231
Q 2447 -75 1753 -75
Q 1075 -75 687 361
Q 300 797 300 1588
Q 300 2334 723 2804
Q 1147 3275 1775 3275
Q 2403 3275 2747 2869
Q 3091 2463 3091 1741
L 3091 1472
z
M 2566 1906
Q 2563 2350 2352 2597
Q 2141 2844 1766 2844
Q 1403 2844 1150 2584
Q 897 2325 838 1906
L 2566 1906
z
" transform="scale(0.015625)"/>
     <path id="SegoeUI-72" d="M 2188 2681
Q 2053 2784 1800 2784
Q 1472 2784 1251 2475
Q 1031 2166 1031 1631
L 1031 0
L 519 0
L 519 3200
L 1031 3200
L 1031 2541
L 1044 2541
Q 1153 2878 1378 3067
Q 1603 3256 1881 3256
Q 2081 3256 2188 3213
L 2188 2681
z
" transform="scale(0.015625)"/>
     <path id="SegoeUI-61" d="M 2809 0
L 2297 0
L 2297 500
L 2284 500
Q 1950 -75 1300 -75
Q 822 -75 551 178
Q 281 431 281 850
Q 281 1747 1338 1894
L 2297 2028
Q 2297 2844 1638 2844
Q 1059 2844 594 2450
L 594 2975
Q 1066 3275 1681 3275
Q 2809 3275 2809 2081
L 2809 0
z
M 2297 1619
L 1525 1513
Q 1169 1463 987 1336
Q 806 1209 806 888
Q 806 653 973 504
Q 1141 356 1419 356
Q 1800 356 2048 623
Q 2297 891 2297 1300
L 2297 1619
z
" transform="scale(0.015625)"/>
     <path id="SegoeUI-ea" d="M 3091 1472
L 831 1472
Q 844 938 1119 647
Q 1394 356 1875 356
Q 2416 356 2869 713
L 2869 231
Q 2447 -75 1753 -75
Q 1075 -75 687 361
Q 300 797 300 1588
Q 300 2334 723 2804
Q 1147 3275 1775 3275
Q 2403 3275 2747 2869
Q 3091 2463 3091 1741
L 3091 1472
z
M 2566 1906
Q 2563 2350 2352 2597
Q 2141 2844 1766 2844
Q 1403 2844 1150 2584
Q 897 2325 838 1906
L 2566 1906
z
M 2626 3806
L 2245 3806
L 1732 4525
L 1217 3806
L 864 3806
L 1535 4844
L 1951 4844
L 2626 3806
z
" transform="scale(0.015625)"/>
     <path id="SegoeUI-e3" d="M 2809 0
L 2297 0
L 2297 500
L 2284 500
Q 1950 -75 1300 -75
Q 822 -75 551 178
Q 281 431 281 850
Q 281 1747 1338 1894
L 2297 2028
Q 2297 2844 1638 2844
Q 1059 2844 594 2450
L 594 2975
Q 1066 3275 1681 3275
Q 2809 3275 2809 2081
L 2809 0
z
M 2297 1619
L 1525 1513
Q 1169 1463 987 1336
Q 806 1209 806 888
Q 806 653 973 504
Q 1141 356 1419 356
Q 1800 356 2048 623
Q 2297 891 2297 1300
L 2297 1619
z
M 2641 4556
Q 2641 4228 2491 4020
Q 2341 3813 2084 3813
Q 1862 3813 1578 3975
Q 1337 4109 1206 4109
Q 931 4109 931 3756
L 637 3756
Q 637 4091 787 4292
Q 937 4494 1206 4494
Q 1409 4494 1672 4331
Q 1903 4194 2072 4194
Q 2334 4194 2334 4556
L 2641 4556
z
" transform="scale(0.015625)"/>
     <path id="SegoeUI-79" d="M 3066 3200
L 1594 -513
Q 1200 -1506 488 -1506
Q 288 -1506 153 -1466
L 153 -1006
Q 319 -1063 456 -1063
Q 844 -1063 1038 -600
L 1294 6
L 44 3200
L 613 3200
L 1478 738
Q 1494 691 1544 494
L 1563 494
Q 1578 569 1625 731
L 2534 3200
L 3066 3200
z
" transform="scale(0.015625)"/>
     <path id="SegoeUI-48" d="M 3956 0
L 3431 0
L 3431 2044
L 1113 2044
L 1113 0
L 588 0
L 588 4481
L 1113 4481
L 1113 2516
L 3431 2516
L 3431 4481
L 3956 4481
L 3956 0
z
" transform="scale(0.015625)"/>
     <path id="SegoeUI-4f" d="M 2394 -75
Q 1441 -75 867 553
Q 294 1181 294 2188
Q 294 3269 878 3912
Q 1463 4556 2469 4556
Q 3397 4556 3964 3931
Q 4531 3306 4531 2297
Q 4531 1200 3950 562
Q 3369 -75 2394 -75
z
M 2431 4081
Q 1725 4081 1284 3572
Q 844 3063 844 2234
Q 844 1406 1273 901
Q 1703 397 2394 397
Q 3131 397 3556 878
Q 3981 1359 3981 2225
Q 3981 3113 3568 3597
Q 3156 4081 2431 4081
z
" transform="scale(0.015625)"/>
     <path id="SegoeUI-53" d="M 378 181
L 378 800
Q 484 706 632 631
Q 781 556 945 504
Q 1109 453 1275 425
Q 1441 397 1581 397
Q 2066 397 2305 576
Q 2544 756 2544 1094
Q 2544 1275 2464 1409
Q 2384 1544 2243 1655
Q 2103 1766 1911 1867
Q 1719 1969 1497 2081
Q 1263 2200 1059 2322
Q 856 2444 706 2591
Q 556 2738 470 2923
Q 384 3109 384 3359
Q 384 3666 518 3892
Q 653 4119 872 4266
Q 1091 4413 1370 4484
Q 1650 4556 1941 4556
Q 2603 4556 2906 4397
L 2906 3806
Q 2509 4081 1888 4081
Q 1716 4081 1544 4045
Q 1372 4009 1237 3928
Q 1103 3847 1018 3719
Q 934 3591 934 3406
Q 934 3234 998 3109
Q 1063 2984 1188 2881
Q 1313 2778 1492 2681
Q 1672 2584 1906 2469
Q 2147 2350 2362 2219
Q 2578 2088 2740 1928
Q 2903 1769 2998 1575
Q 3094 1381 3094 1131
Q 3094 800 2964 570
Q 2834 341 2614 197
Q 2394 53 2106 -11
Q 1819 -75 1500 -75
Q 1394 -75 1237 -58
Q 1081 -41 918 -8
Q 756 25 611 73
Q 466 122 378 181
z
" transform="scale(0.015625)"/>
     <path id="SegoeUI-45" d="M 2963 0
L 588 0
L 588 4481
L 2863 4481
L 2863 4006
L 1113 4006
L 1113 2516
L 2731 2516
L 2731 2044
L 1113 2044
L 1113 475
L 2963 475
L 2963 0
z
" transform="scale(0.015625)"/>
     <path id="SegoeUI-2f" d="M 2541 4481
L 391 -744
L -88 -744
L 2056 4481
L 2541 4481
z
" transform="scale(0.015625)"/>
     <path id="SegoeUI-58" d="M 3681 0
L 3041 0
L 2009 1716
Q 1963 1794 1906 1938
L 1894 1938
Q 1863 1866 1788 1716
L 725 0
L 81 0
L 1581 2253
L 200 4481
L 844 4481
L 1759 2906
Q 1850 2750 1919 2594
L 1931 2594
Q 2031 2800 2106 2919
L 3059 4481
L 3663 4481
L 2253 2259
L 3681 0
z
" transform="scale(0.015625)"/>
     <path id="SegoeUI-70" d="M 1044 463
L 1031 463
L 1031 -1472
L 519 -1472
L 519 3200
L 1031 3200
L 1031 2638
L 1044 2638
Q 1422 3275 2150 3275
Q 2769 3275 3116 2845
Q 3463 2416 3463 1694
Q 3463 891 3072 408
Q 2681 -75 2003 -75
Q 1381 -75 1044 463
z
M 1031 1753
L 1031 1306
Q 1031 909 1289 632
Q 1547 356 1944 356
Q 2409 356 2673 712
Q 2938 1069 2938 1703
Q 2938 2238 2691 2541
Q 2444 2844 2022 2844
Q 1575 2844 1303 2533
Q 1031 2222 1031 1753
z
" transform="scale(0.015625)"/>
     <path id="SegoeUI-63" d="M 2700 147
Q 2331 -75 1825 -75
Q 1141 -75 720 370
Q 300 816 300 1525
Q 300 2316 753 2795
Q 1206 3275 1963 3275
Q 2384 3275 2706 3119
L 2706 2594
Q 2350 2844 1944 2844
Q 1453 2844 1139 2492
Q 825 2141 825 1569
Q 825 1006 1120 681
Q 1416 356 1913 356
Q 2331 356 2700 634
L 2700 147
z
" transform="scale(0.015625)"/>
     <path id="SegoeUI-ed" d="M 1031 0
L 519 0
L 519 3200
L 1031 3200
L 1031 0
z
M 1494 4831
L 675 3806
L 278 3806
L 975 4831
L 1494 4831
z
" transform="scale(0.015625)"/>
     <path id="SegoeUI-73" d="M 325 116
L 325 666
Q 744 356 1247 356
Q 1922 356 1922 806
Q 1922 934 1864 1023
Q 1806 1113 1707 1181
Q 1609 1250 1476 1304
Q 1344 1359 1191 1419
Q 978 1503 817 1589
Q 656 1675 548 1783
Q 441 1891 386 2028
Q 331 2166 331 2350
Q 331 2575 434 2748
Q 538 2922 709 3039
Q 881 3156 1101 3215
Q 1322 3275 1556 3275
Q 1972 3275 2300 3131
L 2300 2613
Q 1947 2844 1488 2844
Q 1344 2844 1228 2811
Q 1113 2778 1030 2718
Q 947 2659 901 2576
Q 856 2494 856 2394
Q 856 2269 901 2184
Q 947 2100 1034 2034
Q 1122 1969 1247 1916
Q 1372 1863 1531 1800
Q 1744 1719 1912 1633
Q 2081 1547 2200 1439
Q 2319 1331 2383 1190
Q 2447 1050 2447 856
Q 2447 619 2342 444
Q 2238 269 2063 153
Q 1888 38 1659 -18
Q 1431 -75 1181 -75
Q 688 -75 325 116
z
" transform="scale(0.015625)"/>
     <path id="SegoeUI-1ed1" d="M 1856 -75
Q 1147 -75 723 373
Q 300 822 300 1563
Q 300 2369 740 2822
Q 1181 3275 1931 3275
Q 2647 3275 3048 2834
Q 3450 2394 3450 1613
Q 3450 847 3017 386
Q 2584 -75 1856 -75
z
M 1894 2844
Q 1400 2844 1112 2508
Q 825 2172 825 1581
Q 825 1013 1115 684
Q 1406 356 1894 356
Q 2391 356 2658 678
Q 2925 1000 2925 1594
Q 2925 2194 2658 2519
Q 2391 2844 1894 2844
z
M 2587 4281
L 3149 5050
L 3674 5050
L 2983 4281
L 2587 4281
z
M 2793 3806
L 2415 3806
L 1902 4269
L 1383 3806
L 1030 3806
L 1705 4588
L 2118 4588
L 2793 3806
z
" transform="scale(0.015625)"/>
     <path id="SegoeUI-71" d="M 3250 -1472
L 2738 -1472
L 2738 550
L 2725 550
Q 2391 -75 1631 -75
Q 1028 -75 664 354
Q 300 784 300 1525
Q 300 2322 700 2798
Q 1100 3275 1775 3275
Q 2431 3275 2725 2756
L 2738 2756
L 2738 3200
L 3250 3200
L 3250 -1472
z
M 2738 1441
L 2738 1906
Q 2738 2300 2480 2572
Q 2222 2844 1825 2844
Q 1363 2844 1094 2501
Q 825 2159 825 1538
Q 825 984 1084 670
Q 1344 356 1753 356
Q 2203 356 2470 664
Q 2738 972 2738 1441
z
" transform="scale(0.015625)"/>
     <path id="SegoeUI-6b" d="M 3175 0
L 2456 0
L 1044 1538
L 1031 1538
L 1031 0
L 519 0
L 519 4738
L 1031 4738
L 1031 1734
L 1044 1734
L 2388 3200
L 3059 3200
L 1575 1656
L 3175 0
z
" transform="scale(0.015625)"/>
     <path id="SegoeUI-52" d="M 3800 0
L 3175 0
L 2425 1256
Q 2322 1431 2225 1554
Q 2128 1678 2026 1756
Q 1925 1834 1808 1870
Q 1691 1906 1544 1906
L 1113 1906
L 1113 0
L 588 0
L 588 4481
L 1925 4481
Q 2219 4481 2467 4407
Q 2716 4334 2898 4184
Q 3081 4034 3184 3811
Q 3288 3588 3288 3288
Q 3288 3053 3217 2858
Q 3147 2663 3017 2509
Q 2888 2356 2705 2248
Q 2522 2141 2294 2081
L 2294 2069
Q 2406 2019 2489 1955
Q 2572 1891 2647 1803
Q 2722 1716 2795 1605
Q 2869 1494 2959 1347
L 3800 0
z
M 1113 4006
L 1113 2381
L 1825 2381
Q 2022 2381 2189 2440
Q 2356 2500 2478 2611
Q 2600 2722 2669 2883
Q 2738 3044 2738 3244
Q 2738 3603 2505 3804
Q 2272 4006 1831 4006
L 1113 4006
z
" transform="scale(0.015625)"/>
     <path id="SegoeUI-41" d="M 4056 0
L 3475 0
L 3000 1256
L 1100 1256
L 653 0
L 69 0
L 1788 4481
L 2331 4481
L 4056 0
z
M 2828 1728
L 2125 3638
Q 2091 3731 2056 3938
L 2044 3938
Q 2013 3747 1972 3638
L 1275 1728
L 2828 1728
z
" transform="scale(0.015625)"/>
     <path id="SegoeUI-e1" d="M 2809 0
L 2297 0
L 2297 500
L 2284 500
Q 1950 -75 1300 -75
Q 822 -75 551 178
Q 281 431 281 850
Q 281 1747 1338 1894
L 2297 2028
Q 2297 2844 1638 2844
Q 1059 2844 594 2450
L 594 2975
Q 1066 3275 1681 3275
Q 2809 3275 2809 2081
L 2809 0
z
M 2297 1619
L 1525 1513
Q 1169 1463 987 1336
Q 806 1209 806 888
Q 806 653 973 504
Q 1141 356 1419 356
Q 1800 356 2048 623
Q 2297 891 2297 1300
L 2297 1619
z
M 2366 4831
L 1547 3806
L 1150 3806
L 1847 4831
L 2366 4831
z
" transform="scale(0.015625)"/>
    </defs>
    <use xlink:href="#SegoeUI-43"/>
    <use xlink:href="#SegoeUI-6f" transform="translate(61.914062 0)"/>
    <use xlink:href="#SegoeUI-76" transform="translate(120.507812 0)"/>
    <use xlink:href="#SegoeUI-65" transform="translate(167.783203 0)"/>
    <use xlink:href="#SegoeUI-72" transform="translate(220.078125 0)"/>
    <use xlink:href="#SegoeUI-61" transform="translate(254.84375 0)"/>
    <use xlink:href="#SegoeUI-67" transform="translate(305.722656 0)"/>
    <use xlink:href="#SegoeUI-65" transform="translate(364.609375 0)"/>
    <use xlink:href="#SegoeUI-20" transform="translate(416.904297 0)"/>
    <use xlink:href="#SegoeUI-74" transform="translate(444.296875 0)"/>
    <use xlink:href="#SegoeUI-72" transform="translate(478.183594 0)"/>
    <use xlink:href="#SegoeUI-ea" transform="translate(511.574219 0)"/>
    <use xlink:href="#SegoeUI-6e" transform="translate(563.869141 0)"/>
    <use xlink:href="#SegoeUI-20" transform="translate(620.460938 0)"/>
    <use xlink:href="#SegoeUI-36" transform="translate(647.853516 0)"/>
    <use xlink:href="#SegoeUI-33" transform="translate(701.759766 0)"/>
    <use xlink:href="#SegoeUI-35" transform="translate(755.666016 0)"/>
    <use xlink:href="#SegoeUI-20" transform="translate(809.572266 0)"/>
    <use xlink:href="#SegoeUI-6d" transform="translate(836.964844 0)"/>
    <use xlink:href="#SegoeUI-e3" transform="translate(923.097656 0)"/>
    <use xlink:href="#SegoeUI-20" transform="translate(973.976562 0)"/>
    <use xlink:href="#SegoeUI-68" transform="translate(1001.369141 0)"/>
    <use xlink:href="#SegoeUI-69" transform="translate(1057.960938 0)"/>
    <use xlink:href="#SegoeUI-1ec7" transform="translate(1082.179688 0)"/>
    <use xlink:href="#SegoeUI-6e" transform="translate(1134.474609 0)"/>
    <use xlink:href="#SegoeUI-20" transform="translate(1191.066406 0)"/>
    <use xlink:href="#SegoeUI-6e" transform="translate(1218.458984 0)"/>
    <use xlink:href="#SegoeUI-69" transform="translate(1275.050781 0)"/>
    <use xlink:href="#SegoeUI-ea" transform="translate(1299.269531 0)"/>
    <use xlink:href="#SegoeUI-6d" transform="translate(1351.564453 0)"/>
    <use xlink:href="#SegoeUI-20" transform="translate(1437.697266 0)"/>
    <use xlink:href="#SegoeUI-79" transform="translate(1465.089844 0)"/>
    <use xlink:href="#SegoeUI-1ebf" transform="translate(1513.478516 0)"/>
    <use xlink:href="#SegoeUI-74" transform="translate(1565.773438 0)"/>
    <use xlink:href="#SegoeUI-20" transform="translate(1599.660156 0)"/>
    <use xlink:href="#SegoeUI-48" transform="translate(1627.052734 0)"/>
    <use xlink:href="#SegoeUI-4f" transform="translate(1698.048828 0)"/>
    <use xlink:href="#SegoeUI-53" transform="translate(1773.439453 0)"/>
    <use xlink:href="#SegoeUI-45" transform="translate(1826.564453 0)"/>
    <use xlink:href="#SegoeUI-2f" transform="translate(1877.150391 0)"/>
    <use xlink:href="#SegoeUI-48" transform="translate(1916.115234 0)"/>
    <use xlink:href="#SegoeUI-4e" transform="translate(1987.111328 0)"/>
    <use xlink:href="#SegoeUI-58" transform="translate(2061.916016 0)"/>
    <use xlink:href="#SegoeUI-20" transform="translate(2120.900391 0)"/>
    <use xlink:href="#SegoeUI-70" transform="translate(2148.292969 0)"/>
    <use xlink:href="#SegoeUI-68" transform="translate(2207.082031 0)"/>
    <use xlink:href="#SegoeUI-69" transform="translate(2263.673828 0)"/>
    <use xlink:href="#SegoeUI-20" transform="translate(2287.892578 0)"/>
    <use xlink:href="#SegoeUI-74" transform="translate(2315.285156 0)"/>
    <use xlink:href="#SegoeUI-e0" transform="translate(2349.171875 0)"/>
    <use xlink:href="#SegoeUI-69" transform="translate(2400.050781 0)"/>
    <use xlink:href="#SegoeUI-20" transform="translate(2424.269531 0)"/>
    <use xlink:href="#SegoeUI-63" transform="translate(2451.662109 0)"/>
    <use xlink:href="#SegoeUI-68" transform="translate(2497.853516 0)"/>
    <use xlink:href="#SegoeUI-ed" transform="translate(2554.445312 0)"/>
    <use xlink:href="#SegoeUI-6e" transform="translate(2578.664062 0)"/>
    <use xlink:href="#SegoeUI-68" transform="translate(2635.255859 0)"/>
    <use xlink:href="#SegoeUI-2e" transform="translate(2691.847656 0)"/>
    <use xlink:href="#SegoeUI-20" transform="translate(2713.527344 0)"/>
    <use xlink:href="#SegoeUI-54" transform="translate(2740.919922 0)"/>
    <use xlink:href="#SegoeUI-68" transform="translate(2793.3125 0)"/>
    <use xlink:href="#SegoeUI-69" transform="translate(2849.904297 0)"/>
    <use xlink:href="#SegoeUI-1ebf" transform="translate(2874.123047 0)"/>
    <use xlink:href="#SegoeUI-75" transform="translate(2926.417969 0)"/>
    <use xlink:href="#SegoeUI-20" transform="translate(2983.009766 0)"/>
    <use xlink:href="#SegoeUI-32" transform="translate(3010.402344 0)"/>
    <use xlink:href="#SegoeUI-30" transform="translate(3064.308594 0)"/>
    <use xlink:href="#SegoeUI-32" transform="translate(3118.214844 0)"/>
    <use xlink:href="#SegoeUI-34" transform="translate(3172.121094 0)"/>
    <use xlink:href="#SegoeUI-2d" transform="translate(3226.027344 0)"/>
    <use xlink:href="#SegoeUI-51" transform="translate(3266.017578 0)"/>
    <use xlink:href="#SegoeUI-32" transform="translate(3341.408203 0)"/>
    <use xlink:href="#SegoeUI-20" transform="translate(3395.314453 0)"/>
    <use xlink:href="#SegoeUI-6c" transform="translate(3422.707031 0)"/>
    <use xlink:href="#SegoeUI-61" transform="translate(3446.925781 0)"/>
    <use xlink:href="#SegoeUI-6e" transform="translate(3497.804688 0)"/>
    <use xlink:href="#SegoeUI-20" transform="translate(3554.396484 0)"/>
    <use xlink:href="#SegoeUI-73" transform="translate(3581.789062 0)"/>
    <use xlink:href="#SegoeUI-61" transform="translate(3624.220703 0)"/>
    <use xlink:href="#SegoeUI-6e" transform="translate(3675.099609 0)"/>
    <use xlink:href="#SegoeUI-67" transform="translate(3731.691406 0)"/>
    <use xlink:href="#SegoeUI-20" transform="translate(3790.578125 0)"/>
    <use xlink:href="#SegoeUI-62" transform="translate(3817.970703 0)"/>
    <use xlink:href="#SegoeUI-1ed1" transform="translate(3876.759766 0)"/>
    <use xlink:href="#SegoeUI-6e" transform="translate(3935.353516 0)"/>
    <use xlink:href="#SegoeUI-20" transform="translate(3991.945312 0)"/>
    <use xlink:href="#SegoeUI-71" transform="translate(4019.337891 0)"/>
    <use xlink:href="#SegoeUI-75" transform="translate(4078.224609 0)"/>
    <use xlink:href="#SegoeUI-fd" transform="translate(4134.816406 0)"/>
    <use xlink:href="#SegoeUI-20" transform="translate(4183.205078 0)"/>
    <use xlink:href="#SegoeUI-6b" transform="translate(4210.597656 0)"/>
    <use xlink:href="#SegoeUI-1ebf" transform="translate(4260.304688 0)"/>
    <use xlink:href="#SegoeUI-20" transform="translate(4312.599609 0)"/>
    <use xlink:href="#SegoeUI-74" transform="translate(4339.992188 0)"/>
    <use xlink:href="#SegoeUI-69" transform="translate(4373.878906 0)"/>
    <use xlink:href="#SegoeUI-1ebf" transform="translate(4398.097656 0)"/>
    <use xlink:href="#SegoeUI-70" transform="translate(4450.392578 0)"/>
    <use xlink:href="#SegoeUI-20" transform="translate(4509.181641 0)"/>
    <use xlink:href="#SegoeUI-76" transform="translate(4536.574219 0)"/>
    <use xlink:href="#SegoeUI-ec" transform="translate(4584.474609 0)"/>
    <use xlink:href="#SegoeUI-20" transform="translate(4608.693359 0)"/>
    <use xlink:href="#SegoeUI-52" transform="translate(4636.085938 0)"/>
    <use xlink:href="#SegoeUI-4f" transform="translate(4694.900391 0)"/>
    <use xlink:href="#SegoeUI-41" transform="translate(4768.916016 0)"/>
    <use xlink:href="#SegoeUI-20" transform="translate(4833.417969 0)"/>
    <use xlink:href="#SegoeUI-76" transform="translate(4860.810547 0)"/>
    <use xlink:href="#SegoeUI-e0" transform="translate(4906.960938 0)"/>
    <use xlink:href="#SegoeUI-20" transform="translate(4957.839844 0)"/>
    <use xlink:href="#SegoeUI-63" transform="translate(4985.232422 0)"/>
    <use xlink:href="#SegoeUI-e1" transform="translate(5031.423828 0)"/>
    <use xlink:href="#SegoeUI-63" transform="translate(5082.302734 0)"/>
   </g>
   <!-- biến hoạt động dùng cửa sổ TTM. -->
   <g style="fill: #6f768a" transform="translate(53.854688 47.942044) scale(0.09 -0.09)">
    <defs>
     <path id="SegoeUI-64" d="M 3250 0
L 2738 0
L 2738 544
L 2725 544
Q 2369 -75 1625 -75
Q 1022 -75 661 354
Q 300 784 300 1525
Q 300 2319 700 2797
Q 1100 3275 1766 3275
Q 2425 3275 2725 2756
L 2738 2756
L 2738 4738
L 3250 4738
L 3250 0
z
M 2738 1447
L 2738 1919
Q 2738 2306 2481 2575
Q 2225 2844 1831 2844
Q 1363 2844 1094 2500
Q 825 2156 825 1550
Q 825 997 1083 676
Q 1341 356 1775 356
Q 2203 356 2470 665
Q 2738 975 2738 1447
z
" transform="scale(0.015625)"/>
     <path id="SegoeUI-f9" d="M 3106 0
L 2594 0
L 2594 506
L 2581 506
Q 2263 -75 1594 -75
Q 450 -75 450 1288
L 450 3200
L 959 3200
L 959 1369
Q 959 356 1734 356
Q 2109 356 2351 632
Q 2594 909 2594 1356
L 2594 3200
L 3106 3200
L 3106 0
z
M 2200 3806
L 1803 3806
L 984 4831
L 1509 4831
L 2200 3806
z
" transform="scale(0.015625)"/>
     <path id="SegoeUI-1eed" d="M 3106 0
L 2594 0
L 2594 506
L 2581 506
Q 2263 -75 1594 -75
Q 450 -75 450 1288
L 450 3200
L 959 3200
L 959 1369
Q 959 356 1734 356
Q 2109 356 2351 632
Q 2594 909 2594 1356
L 2594 3200
L 2975 3200
Q 3159 3200 3282 3311
Q 3406 3422 3406 3578
Q 3406 3806 3344 3988
L 3763 3988
Q 3822 3813 3822 3563
Q 3822 2944 3106 2831
L 3106 0
z
M 1454 4909
Q 1570 4922 1704 4922
Q 1979 4922 2156 4790
Q 2333 4659 2333 4438
Q 2333 4247 2212 4115
Q 2092 3984 1914 3963
L 1914 3806
L 1576 3806
L 1576 4166
Q 1926 4166 1926 4403
Q 1926 4600 1633 4600
Q 1579 4600 1454 4575
L 1454 4909
z
" transform="scale(0.015625)"/>
     <path id="SegoeUI-1ed5" d="M 1856 -75
Q 1147 -75 723 373
Q 300 822 300 1563
Q 300 2369 740 2822
Q 1181 3275 1931 3275
Q 2647 3275 3048 2834
Q 3450 2394 3450 1613
Q 3450 847 3017 386
Q 2584 -75 1856 -75
z
M 1894 2844
Q 1400 2844 1112 2508
Q 825 2172 825 1581
Q 825 1013 1115 684
Q 1406 356 1894 356
Q 2391 356 2658 678
Q 2925 1000 2925 1594
Q 2925 2194 2658 2519
Q 2391 2844 1894 2844
z
M 2562 5381
Q 2675 5394 2812 5394
Q 3090 5394 3263 5264
Q 3437 5134 3437 4909
Q 3437 4722 3320 4590
Q 3203 4459 3025 4438
L 3025 4281
L 2684 4281
L 2684 4641
Q 3037 4641 3037 4875
Q 3037 5075 2740 5075
Q 2687 5075 2562 5050
L 2562 5381
z
M 2806 3806
L 2431 3806
L 1918 4269
L 1400 3806
L 1050 3806
L 1718 4588
L 2137 4588
L 2806 3806
z
" transform="scale(0.015625)"/>
     <path id="SegoeUI-4d" d="M 5156 0
L 4634 0
L 4634 3006
Q 4634 3363 4678 3878
L 4666 3878
Q 4591 3575 4531 3444
L 3000 0
L 2744 0
L 1216 3419
Q 1150 3569 1081 3878
L 1069 3878
Q 1094 3609 1094 3000
L 1094 0
L 588 0
L 588 4481
L 1281 4481
L 2656 1356
Q 2816 997 2863 819
L 2881 819
Q 3016 1188 3097 1369
L 4500 4481
L 5156 4481
L 5156 0
z
" transform="scale(0.015625)"/>
    </defs>
    <use xlink:href="#SegoeUI-62"/>
    <use xlink:href="#SegoeUI-69" transform="translate(58.789062 0)"/>
    <use xlink:href="#SegoeUI-1ebf" transform="translate(83.007812 0)"/>
    <use xlink:href="#SegoeUI-6e" transform="translate(135.302734 0)"/>
    <use xlink:href="#SegoeUI-20" transform="translate(191.894531 0)"/>
    <use xlink:href="#SegoeUI-68" transform="translate(219.287109 0)"/>
    <use xlink:href="#SegoeUI-6f" transform="translate(275.878906 0)"/>
    <use xlink:href="#SegoeUI-1ea1" transform="translate(334.472656 0)"/>
    <use xlink:href="#SegoeUI-74" transform="translate(385.351562 0)"/>
    <use xlink:href="#SegoeUI-20" transform="translate(419.238281 0)"/>
    <use xlink:href="#SegoeUI-111" transform="translate(446.630859 0)"/>
    <use xlink:href="#SegoeUI-1ed9" transform="translate(505.517578 0)"/>
    <use xlink:href="#SegoeUI-6e" transform="translate(564.111328 0)"/>
    <use xlink:href="#SegoeUI-67" transform="translate(620.703125 0)"/>
    <use xlink:href="#SegoeUI-20" transform="translate(679.589844 0)"/>
    <use xlink:href="#SegoeUI-64" transform="translate(706.982422 0)"/>
    <use xlink:href="#SegoeUI-f9" transform="translate(765.869141 0)"/>
    <use xlink:href="#SegoeUI-6e" transform="translate(822.460938 0)"/>
    <use xlink:href="#SegoeUI-67" transform="translate(879.052734 0)"/>
    <use xlink:href="#SegoeUI-20" transform="translate(937.939453 0)"/>
    <use xlink:href="#SegoeUI-63" transform="translate(965.332031 0)"/>
    <use xlink:href="#SegoeUI-1eed" transform="translate(1011.523438 0)"/>
    <use xlink:href="#SegoeUI-61" transform="translate(1070.3125 0)"/>
    <use xlink:href="#SegoeUI-20" transform="translate(1121.191406 0)"/>
    <use xlink:href="#SegoeUI-73" transform="translate(1148.583984 0)"/>
    <use xlink:href="#SegoeUI-1ed5" transform="translate(1191.015625 0)"/>
    <use xlink:href="#SegoeUI-20" transform="translate(1249.609375 0)"/>
    <use xlink:href="#SegoeUI-54" transform="translate(1277.001953 0)"/>
    <use xlink:href="#SegoeUI-54" transform="translate(1331.269531 0)"/>
    <use xlink:href="#SegoeUI-4d" transform="translate(1383.662109 0)"/>
    <use xlink:href="#SegoeUI-2e" transform="translate(1473.457031 0)"/>
   </g>
  </g>
 </g>
 <defs>
  <clipPath id="p9ba611e0ad">
   <rect x="53.854688" y="71.6328" width="636.12" height="294.6672"/>
  </clipPath>
 </defs>
</svg>
