<?xml version="1.0" encoding="utf-8" standalone="no"?>
<!DOCTYPE svg PUBLIC "-//W3C//DTD SVG 1.1//EN"
  "http://www.w3.org/Graphics/SVG/1.1/DTD/svg11.dtd">
<svg xmlns:xlink="http://www.w3.org/1999/xlink" width="687.438281pt" height="352.617187pt" viewBox="0 0 687.438281 352.617187" xmlns="http://www.w3.org/2000/svg" version="1.1">
 <metadata>
  <rdf:RDF xmlns:dc="http://purl.org/dc/elements/1.1/" xmlns:cc="http://creativecommons.org/ns#" xmlns:rdf="http://www.w3.org/1999/02/22-rdf-syntax-ns#">
   <cc:Work>
    <dc:type rdf:resource="http://purl.org/dc/dcmitype/StillImage"/>
    <dc:date>2026-07-09T18:34:30.192572</dc:date>
    <dc:format>image/svg+xml</dc:format>
    <dc:creator>
     <cc:Agent>
      <dc:title>Matplotlib v3.10.8, https://matplotlib.org/</dc:title>
     </cc:Agent>
    </dc:creator>
   </cc:Work>
  </rdf:RDF>
 </metadata>
 <defs>
  <style type="text/css">*{stroke-linejoin: round; stroke-linecap: butt}</style>
 </defs>
 <g id="figure_1">
  <g id="patch_1">
   <path d="M 0 352.617187
L 687.438281 352.617187
L 687.438281 0
L 0 0
z
" style="fill: #fcfcfd"/>
  </g>
  <g id="axes_1">
   <g id="patch_2">
    <path d="M 111.078281 309.6
L 680.238281 309.6
L 680.238281 50.4
L 111.078281 50.4
z
" style="fill: #ffffff"/>
   </g>
   <g id="matplotlib.axis_1">
    <g id="xtick_1">
     <g id="text_1">
      <!-- −0.07 -->
      <g style="fill: #262626" transform="translate(133.94175 327.243437) scale(0.11 -0.11)">
       <defs>
        <path id="SegoeUI-2212" d="M 3663 1656
L 725 1656
L 725 2075
L 3663 2075
L 3663 1656
z
" transform="scale(0.015625)"/>
        <path id="SegoeUI-30" d="M 3188 2259
Q 3188 1697 3086 1262
Q 2984 828 2792 529
Q 2600 231 2320 76
Q 2041 -78 1684 -78
Q 1347 -78 1083 70
Q 819 219 637 503
Q 456 788 362 1202
Q 269 1616 269 2150
Q 269 2738 367 3188
Q 466 3638 656 3942
Q 847 4247 1130 4401
Q 1413 4556 1778 4556
Q 3188 4556 3188 2259
z
M 2663 2209
Q 2663 4122 1753 4122
Q 794 4122 794 2175
Q 794 359 1734 359
Q 2663 359 2663 2209
z
" transform="scale(0.015625)"/>
        <path id="SegoeUI-2e" d="M 697 -69
Q 553 -69 451 34
Q 350 138 350 281
Q 350 425 451 529
Q 553 634 697 634
Q 844 634 947 529
Q 1050 425 1050 281
Q 1050 138 947 34
Q 844 -69 697 -69
z
" transform="scale(0.015625)"/>
        <path id="SegoeUI-37" d="M 3156 4184
Q 3053 4006 2908 3740
Q 2763 3475 2600 3144
Q 2438 2813 2269 2431
Q 2100 2050 1953 1644
Q 1806 1238 1695 820
Q 1584 403 1534 0
L 984 0
Q 1041 400 1158 817
Q 1275 1234 1423 1636
Q 1572 2038 1737 2409
Q 1903 2781 2059 3093
Q 2216 3406 2345 3645
Q 2475 3884 2553 4019
L 306 4019
L 306 4481
L 3156 4481
L 3156 4184
z
" transform="scale(0.015625)"/>
       </defs>
       <use xlink:href="#SegoeUI-2212"/>
       <use xlink:href="#SegoeUI-30" transform="translate(68.408203 0)"/>
       <use xlink:href="#SegoeUI-2e" transform="translate(122.314453 0)"/>
       <use xlink:href="#SegoeUI-30" transform="translate(143.994141 0)"/>
       <use xlink:href="#SegoeUI-37" transform="translate(197.900391 0)"/>
      </g>
     </g>
    </g>
    <g id="xtick_2">
     <g id="text_2">
      <!-- −0.06 -->
      <g style="fill: #262626" transform="translate(204.000546 327.243437) scale(0.11 -0.11)">
       <defs>
        <path id="SegoeUI-36" d="M 3194 1422
Q 3194 1094 3087 819
Q 2981 544 2793 344
Q 2606 144 2347 33
Q 2088 -78 1784 -78
Q 1447 -78 1180 62
Q 913 203 727 467
Q 541 731 444 1112
Q 347 1494 347 1972
Q 347 2556 476 3032
Q 606 3509 845 3848
Q 1084 4188 1421 4372
Q 1759 4556 2175 4556
Q 2638 4556 2919 4428
L 2919 3944
Q 2572 4122 2188 4122
Q 1888 4122 1647 3987
Q 1406 3853 1234 3608
Q 1063 3363 970 3016
Q 878 2669 878 2244
L 891 2244
Q 1200 2803 1913 2803
Q 2206 2803 2442 2703
Q 2678 2603 2845 2420
Q 3013 2238 3103 1984
Q 3194 1731 3194 1422
z
M 2669 1356
Q 2669 1591 2609 1778
Q 2550 1966 2439 2097
Q 2328 2228 2165 2298
Q 2003 2369 1797 2369
Q 1606 2369 1443 2297
Q 1281 2225 1162 2101
Q 1044 1978 976 1814
Q 909 1650 909 1466
Q 909 1234 975 1032
Q 1041 831 1159 681
Q 1278 531 1442 445
Q 1606 359 1806 359
Q 2000 359 2159 432
Q 2319 506 2431 637
Q 2544 769 2606 951
Q 2669 1134 2669 1356
z
" transform="scale(0.015625)"/>
       </defs>
       <use xlink:href="#SegoeUI-2212"/>
       <use xlink:href="#SegoeUI-30" transform="translate(68.408203 0)"/>
       <use xlink:href="#SegoeUI-2e" transform="translate(122.314453 0)"/>
       <use xlink:href="#SegoeUI-30" transform="translate(143.994141 0)"/>
       <use xlink:href="#SegoeUI-36" transform="translate(197.900391 0)"/>
      </g>
     </g>
    </g>
    <g id="xtick_3">
     <g id="text_3">
      <!-- −0.05 -->
      <g style="fill: #262626" transform="translate(274.059341 327.243437) scale(0.11 -0.11)">
       <defs>
        <path id="SegoeUI-35" d="M 3028 1369
Q 3028 1041 2915 775
Q 2803 509 2595 318
Q 2388 128 2094 25
Q 1800 -78 1441 -78
Q 816 -78 513 109
L 513 653
Q 969 359 1447 359
Q 1691 359 1886 431
Q 2081 503 2218 631
Q 2356 759 2429 940
Q 2503 1122 2503 1338
Q 2503 1775 2209 2023
Q 1916 2272 1356 2272
Q 1266 2272 1166 2269
Q 1066 2266 966 2261
Q 866 2256 770 2250
Q 675 2244 597 2234
L 750 4481
L 2822 4481
L 2822 4019
L 1194 4019
L 1103 2703
Q 1203 2709 1315 2714
Q 1428 2719 1516 2719
Q 1872 2719 2153 2625
Q 2434 2531 2629 2357
Q 2825 2184 2926 1932
Q 3028 1681 3028 1369
z
" transform="scale(0.015625)"/>
       </defs>
       <use xlink:href="#SegoeUI-2212"/>
       <use xlink:href="#SegoeUI-30" transform="translate(68.408203 0)"/>
       <use xlink:href="#SegoeUI-2e" transform="translate(122.314453 0)"/>
       <use xlink:href="#SegoeUI-30" transform="translate(143.994141 0)"/>
       <use xlink:href="#SegoeUI-35" transform="translate(197.900391 0)"/>
      </g>
     </g>
    </g>
    <g id="xtick_4">
     <g id="text_4">
      <!-- −0.04 -->
      <g style="fill: #262626" transform="translate(344.118136 327.243437) scale(0.11 -0.11)">
       <defs>
        <path id="SegoeUI-34" d="M 2656 4481
L 2656 1522
L 3231 1522
L 3231 1053
L 2656 1053
L 2656 0
L 2150 0
L 2150 1053
L 44 1053
L 44 1497
Q 338 1828 638 2204
Q 938 2581 1211 2968
Q 1484 3356 1717 3742
Q 1950 4128 2109 4481
L 2656 4481
z
M 622 1522
L 2150 1522
L 2150 3716
Q 1916 3306 1706 2984
Q 1497 2663 1308 2400
Q 1119 2138 947 1925
Q 775 1713 622 1522
z
" transform="scale(0.015625)"/>
       </defs>
       <use xlink:href="#SegoeUI-2212"/>
       <use xlink:href="#SegoeUI-30" transform="translate(68.408203 0)"/>
       <use xlink:href="#SegoeUI-2e" transform="translate(122.314453 0)"/>
       <use xlink:href="#SegoeUI-30" transform="translate(143.994141 0)"/>
       <use xlink:href="#SegoeUI-34" transform="translate(197.900391 0)"/>
      </g>
     </g>
    </g>
    <g id="xtick_5">
     <g id="text_5">
      <!-- −0.03 -->
      <g style="fill: #262626" transform="translate(414.176931 327.243437) scale(0.11 -0.11)">
       <defs>
        <path id="SegoeUI-33" d="M 2978 1269
Q 2978 966 2864 717
Q 2750 469 2542 292
Q 2334 116 2043 19
Q 1753 -78 1403 -78
Q 763 -78 384 166
L 384 716
Q 838 359 1422 359
Q 1656 359 1845 418
Q 2034 478 2170 590
Q 2306 703 2379 862
Q 2453 1022 2453 1222
Q 2453 2100 1203 2100
L 831 2100
L 831 2534
L 1184 2534
Q 2291 2534 2291 3359
Q 2291 4122 1447 4122
Q 972 4122 556 3803
L 556 4300
Q 984 4556 1575 4556
Q 1856 4556 2084 4478
Q 2313 4400 2475 4259
Q 2638 4119 2727 3922
Q 2816 3725 2816 3488
Q 2816 2603 1922 2350
L 1922 2338
Q 2150 2313 2344 2227
Q 2538 2141 2678 2003
Q 2819 1866 2898 1680
Q 2978 1494 2978 1269
z
" transform="scale(0.015625)"/>
       </defs>
       <use xlink:href="#SegoeUI-2212"/>
       <use xlink:href="#SegoeUI-30" transform="translate(68.408203 0)"/>
       <use xlink:href="#SegoeUI-2e" transform="translate(122.314453 0)"/>
       <use xlink:href="#SegoeUI-30" transform="translate(143.994141 0)"/>
       <use xlink:href="#SegoeUI-33" transform="translate(197.900391 0)"/>
      </g>
     </g>
    </g>
    <g id="xtick_6">
     <g id="text_6">
      <!-- −0.02 -->
      <g style="fill: #262626" transform="translate(484.235726 327.243437) scale(0.11 -0.11)">
       <defs>
        <path id="SegoeUI-32" d="M 2413 3306
Q 2413 3513 2348 3666
Q 2284 3819 2173 3920
Q 2063 4022 1913 4072
Q 1763 4122 1588 4122
Q 1438 4122 1294 4081
Q 1150 4041 1014 3969
Q 878 3897 751 3797
Q 625 3697 516 3575
L 516 4125
Q 731 4334 998 4445
Q 1266 4556 1650 4556
Q 1925 4556 2159 4476
Q 2394 4397 2566 4244
Q 2738 4091 2836 3866
Q 2934 3641 2934 3350
Q 2934 3084 2873 2868
Q 2813 2653 2689 2462
Q 2566 2272 2378 2097
Q 2191 1922 1938 1741
Q 1622 1516 1417 1356
Q 1213 1197 1092 1058
Q 972 919 923 780
Q 875 641 875 459
L 3106 459
L 3106 0
L 341 0
L 341 222
Q 341 509 403 728
Q 466 947 609 1144
Q 753 1341 986 1537
Q 1219 1734 1556 1981
Q 1800 2156 1964 2315
Q 2128 2475 2228 2634
Q 2328 2794 2370 2958
Q 2413 3122 2413 3306
z
" transform="scale(0.015625)"/>
       </defs>
       <use xlink:href="#SegoeUI-2212"/>
       <use xlink:href="#SegoeUI-30" transform="translate(68.408203 0)"/>
       <use xlink:href="#SegoeUI-2e" transform="translate(122.314453 0)"/>
       <use xlink:href="#SegoeUI-30" transform="translate(143.994141 0)"/>
       <use xlink:href="#SegoeUI-32" transform="translate(197.900391 0)"/>
      </g>
     </g>
    </g>
    <g id="xtick_7">
     <g id="text_7">
      <!-- −0.01 -->
      <g style="fill: #262626" transform="translate(554.294521 327.243437) scale(0.11 -0.11)">
       <defs>
        <path id="SegoeUI-31" d="M 2263 0
L 1750 0
L 1750 3872
Q 1691 3813 1577 3736
Q 1463 3659 1320 3584
Q 1178 3509 1020 3443
Q 863 3378 713 3341
L 713 3859
Q 881 3906 1070 3986
Q 1259 4066 1442 4164
Q 1625 4263 1787 4370
Q 1950 4478 2069 4581
L 2263 4581
L 2263 0
z
" transform="scale(0.015625)"/>
       </defs>
       <use xlink:href="#SegoeUI-2212"/>
       <use xlink:href="#SegoeUI-30" transform="translate(68.408203 0)"/>
       <use xlink:href="#SegoeUI-2e" transform="translate(122.314453 0)"/>
       <use xlink:href="#SegoeUI-30" transform="translate(143.994141 0)"/>
       <use xlink:href="#SegoeUI-31" transform="translate(197.900391 0)"/>
      </g>
     </g>
    </g>
    <g id="xtick_8">
     <g id="text_8">
      <!-- 0.00 -->
      <g style="fill: #262626" transform="translate(628.11566 327.243437) scale(0.11 -0.11)">
       <use xlink:href="#SegoeUI-30"/>
       <use xlink:href="#SegoeUI-2e" transform="translate(53.90625 0)"/>
       <use xlink:href="#SegoeUI-30" transform="translate(75.585938 0)"/>
       <use xlink:href="#SegoeUI-30" transform="translate(129.492188 0)"/>
      </g>
     </g>
    </g>
    <g id="text_9">
     <!-- Theta DML Random Forest -->
     <g style="fill: #1f2430" transform="translate(325.124531 342.657187) scale(0.12 -0.12)">
      <defs>
       <path id="SegoeUI-54" d="M 3238 4006
L 1944 4006
L 1944 0
L 1419 0
L 1419 4006
L 128 4006
L 128 4481
L 3238 4481
L 3238 4006
z
" transform="scale(0.015625)"/>
       <path id="SegoeUI-68" d="M 3175 0
L 2663 0
L 2663 1844
Q 2663 2844 1919 2844
Q 1544 2844 1287 2555
Q 1031 2266 1031 1813
L 1031 0
L 519 0
L 519 4738
L 1031 4738
L 1031 2669
L 1044 2669
Q 1413 3275 2094 3275
Q 3175 3275 3175 1972
L 3175 0
z
" transform="scale(0.015625)"/>
       <path id="SegoeUI-65" d="M 3091 1472
L 831 1472
Q 844 938 1119 647
Q 1394 356 1875 356
Q 2416 356 2869 713
L 2869 231
Q 2447 -75 1753 -75
Q 1075 -75 687 361
Q 300 797 300 1588
Q 300 2334 723 2804
Q 1147 3275 1775 3275
Q 2403 3275 2747 2869
Q 3091 2463 3091 1741
L 3091 1472
z
M 2566 1906
Q 2563 2350 2352 2597
Q 2141 2844 1766 2844
Q 1403 2844 1150 2584
Q 897 2325 838 1906
L 2566 1906
z
" transform="scale(0.015625)"/>
       <path id="SegoeUI-74" d="M 2003 31
Q 1822 -69 1525 -69
Q 684 -69 684 869
L 684 2763
L 134 2763
L 134 3200
L 684 3200
L 684 3981
L 1197 4147
L 1197 3200
L 2003 3200
L 2003 2763
L 1197 2763
L 1197 959
Q 1197 638 1306 500
Q 1416 363 1669 363
Q 1863 363 2003 469
L 2003 31
z
" transform="scale(0.015625)"/>
       <path id="SegoeUI-61" d="M 2809 0
L 2297 0
L 2297 500
L 2284 500
Q 1950 -75 1300 -75
Q 822 -75 551 178
Q 281 431 281 850
Q 281 1747 1338 1894
L 2297 2028
Q 2297 2844 1638 2844
Q 1059 2844 594 2450
L 594 2975
Q 1066 3275 1681 3275
Q 2809 3275 2809 2081
L 2809 0
z
M 2297 1619
L 1525 1513
Q 1169 1463 987 1336
Q 806 1209 806 888
Q 806 653 973 504
Q 1141 356 1419 356
Q 1800 356 2048 623
Q 2297 891 2297 1300
L 2297 1619
z
" transform="scale(0.015625)"/>
       <path id="SegoeUI-20" transform="scale(0.015625)"/>
       <path id="SegoeUI-44" d="M 588 0
L 588 4481
L 1825 4481
Q 4194 4481 4194 2297
Q 4194 1259 3536 629
Q 2878 0 1775 0
L 588 0
z
M 1113 4006
L 1113 475
L 1781 475
Q 2663 475 3153 947
Q 3644 1419 3644 2284
Q 3644 4006 1813 4006
L 1113 4006
z
" transform="scale(0.015625)"/>
       <path id="SegoeUI-4d" d="M 5156 0
L 4634 0
L 4634 3006
Q 4634 3363 4678 3878
L 4666 3878
Q 4591 3575 4531 3444
L 3000 0
L 2744 0
L 1216 3419
Q 1150 3569 1081 3878
L 1069 3878
Q 1094 3609 1094 3000
L 1094 0
L 588 0
L 588 4481
L 1281 4481
L 2656 1356
Q 2816 997 2863 819
L 2881 819
Q 3016 1188 3097 1369
L 4500 4481
L 5156 4481
L 5156 0
z
" transform="scale(0.015625)"/>
       <path id="SegoeUI-4c" d="M 2913 0
L 588 0
L 588 4481
L 1113 4481
L 1113 475
L 2913 475
L 2913 0
z
" transform="scale(0.015625)"/>
       <path id="SegoeUI-52" d="M 3800 0
L 3175 0
L 2425 1256
Q 2322 1431 2225 1554
Q 2128 1678 2026 1756
Q 1925 1834 1808 1870
Q 1691 1906 1544 1906
L 1113 1906
L 1113 0
L 588 0
L 588 4481
L 1925 4481
Q 2219 4481 2467 4407
Q 2716 4334 2898 4184
Q 3081 4034 3184 3811
Q 3288 3588 3288 3288
Q 3288 3053 3217 2858
Q 3147 2663 3017 2509
Q 2888 2356 2705 2248
Q 2522 2141 2294 2081
L 2294 2069
Q 2406 2019 2489 1955
Q 2572 1891 2647 1803
Q 2722 1716 2795 1605
Q 2869 1494 2959 1347
L 3800 0
z
M 1113 4006
L 1113 2381
L 1825 2381
Q 2022 2381 2189 2440
Q 2356 2500 2478 2611
Q 2600 2722 2669 2883
Q 2738 3044 2738 3244
Q 2738 3603 2505 3804
Q 2272 4006 1831 4006
L 1113 4006
z
" transform="scale(0.015625)"/>
       <path id="SegoeUI-6e" d="M 3175 0
L 2663 0
L 2663 1825
Q 2663 2844 1919 2844
Q 1534 2844 1282 2555
Q 1031 2266 1031 1825
L 1031 0
L 519 0
L 519 3200
L 1031 3200
L 1031 2669
L 1044 2669
Q 1406 3275 2094 3275
Q 2619 3275 2897 2936
Q 3175 2597 3175 1956
L 3175 0
z
" transform="scale(0.015625)"/>
       <path id="SegoeUI-64" d="M 3250 0
L 2738 0
L 2738 544
L 2725 544
Q 2369 -75 1625 -75
Q 1022 -75 661 354
Q 300 784 300 1525
Q 300 2319 700 2797
Q 1100 3275 1766 3275
Q 2425 3275 2725 2756
L 2738 2756
L 2738 4738
L 3250 4738
L 3250 0
z
M 2738 1447
L 2738 1919
Q 2738 2306 2481 2575
Q 2225 2844 1831 2844
Q 1363 2844 1094 2500
Q 825 2156 825 1550
Q 825 997 1083 676
Q 1341 356 1775 356
Q 2203 356 2470 665
Q 2738 975 2738 1447
z
" transform="scale(0.015625)"/>
       <path id="SegoeUI-6f" d="M 1856 -75
Q 1147 -75 723 373
Q 300 822 300 1563
Q 300 2369 740 2822
Q 1181 3275 1931 3275
Q 2647 3275 3048 2834
Q 3450 2394 3450 1613
Q 3450 847 3017 386
Q 2584 -75 1856 -75
z
M 1894 2844
Q 1400 2844 1112 2508
Q 825 2172 825 1581
Q 825 1013 1115 684
Q 1406 356 1894 356
Q 2391 356 2658 678
Q 2925 1000 2925 1594
Q 2925 2194 2658 2519
Q 2391 2844 1894 2844
z
" transform="scale(0.015625)"/>
       <path id="SegoeUI-6d" d="M 5063 0
L 4550 0
L 4550 1838
Q 4550 2369 4386 2606
Q 4222 2844 3834 2844
Q 3506 2844 3276 2544
Q 3047 2244 3047 1825
L 3047 0
L 2534 0
L 2534 1900
Q 2534 2844 1806 2844
Q 1469 2844 1250 2561
Q 1031 2278 1031 1825
L 1031 0
L 519 0
L 519 3200
L 1031 3200
L 1031 2694
L 1044 2694
Q 1384 3275 2038 3275
Q 2366 3275 2609 3092
Q 2853 2909 2944 2613
Q 3300 3275 4006 3275
Q 5063 3275 5063 1972
L 5063 0
z
" transform="scale(0.015625)"/>
       <path id="SegoeUI-46" d="M 2863 4006
L 1113 4006
L 1113 2456
L 2731 2456
L 2731 1984
L 1113 1984
L 1113 0
L 588 0
L 588 4481
L 2863 4481
L 2863 4006
z
" transform="scale(0.015625)"/>
       <path id="SegoeUI-72" d="M 2188 2681
Q 2053 2784 1800 2784
Q 1472 2784 1251 2475
Q 1031 2166 1031 1631
L 1031 0
L 519 0
L 519 3200
L 1031 3200
L 1031 2541
L 1044 2541
Q 1153 2878 1378 3067
Q 1603 3256 1881 3256
Q 2081 3256 2188 3213
L 2188 2681
z
" transform="scale(0.015625)"/>
       <path id="SegoeUI-73" d="M 325 116
L 325 666
Q 744 356 1247 356
Q 1922 356 1922 806
Q 1922 934 1864 1023
Q 1806 1113 1707 1181
Q 1609 1250 1476 1304
Q 1344 1359 1191 1419
Q 978 1503 817 1589
Q 656 1675 548 1783
Q 441 1891 386 2028
Q 331 2166 331 2350
Q 331 2575 434 2748
Q 538 2922 709 3039
Q 881 3156 1101 3215
Q 1322 3275 1556 3275
Q 1972 3275 2300 3131
L 2300 2613
Q 1947 2844 1488 2844
Q 1344 2844 1228 2811
Q 1113 2778 1030 2718
Q 947 2659 901 2576
Q 856 2494 856 2394
Q 856 2269 901 2184
Q 947 2100 1034 2034
Q 1122 1969 1247 1916
Q 1372 1863 1531 1800
Q 1744 1719 1912 1633
Q 2081 1547 2200 1439
Q 2319 1331 2383 1190
Q 2447 1050 2447 856
Q 2447 619 2342 444
Q 2238 269 2063 153
Q 1888 38 1659 -18
Q 1431 -75 1181 -75
Q 688 -75 325 116
z
" transform="scale(0.015625)"/>
      </defs>
      <use xlink:href="#SegoeUI-54"/>
      <use xlink:href="#SegoeUI-68" transform="translate(52.392578 0)"/>
      <use xlink:href="#SegoeUI-65" transform="translate(108.984375 0)"/>
      <use xlink:href="#SegoeUI-74" transform="translate(161.279297 0)"/>
      <use xlink:href="#SegoeUI-61" transform="translate(195.166016 0)"/>
      <use xlink:href="#SegoeUI-20" transform="translate(246.044922 0)"/>
      <use xlink:href="#SegoeUI-44" transform="translate(273.4375 0)"/>
      <use xlink:href="#SegoeUI-4d" transform="translate(343.554688 0)"/>
      <use xlink:href="#SegoeUI-4c" transform="translate(433.349609 0)"/>
      <use xlink:href="#SegoeUI-20" transform="translate(480.419922 0)"/>
      <use xlink:href="#SegoeUI-52" transform="translate(507.8125 0)"/>
      <use xlink:href="#SegoeUI-61" transform="translate(567.626953 0)"/>
      <use xlink:href="#SegoeUI-6e" transform="translate(618.505859 0)"/>
      <use xlink:href="#SegoeUI-64" transform="translate(675.097656 0)"/>
      <use xlink:href="#SegoeUI-6f" transform="translate(733.984375 0)"/>
      <use xlink:href="#SegoeUI-6d" transform="translate(792.578125 0)"/>
      <use xlink:href="#SegoeUI-20" transform="translate(878.710938 0)"/>
      <use xlink:href="#SegoeUI-46" transform="translate(906.103516 0)"/>
      <use xlink:href="#SegoeUI-6f" transform="translate(954.931641 0)"/>
      <use xlink:href="#SegoeUI-72" transform="translate(1013.525391 0)"/>
      <use xlink:href="#SegoeUI-65" transform="translate(1046.916016 0)"/>
      <use xlink:href="#SegoeUI-73" transform="translate(1099.210938 0)"/>
      <use xlink:href="#SegoeUI-74" transform="translate(1141.642578 0)"/>
     </g>
    </g>
   </g>
   <g id="matplotlib.axis_2">
    <g id="ytick_1">
     <g id="text_10">
      <!-- At least 16 quarters -->
      <g style="fill: #262626" transform="translate(7.2 301.889901) scale(0.11 -0.11)">
       <defs>
        <path id="SegoeUI-41" d="M 4056 0
L 3475 0
L 3000 1256
L 1100 1256
L 653 0
L 69 0
L 1788 4481
L 2331 4481
L 4056 0
z
M 2828 1728
L 2125 3638
Q 2091 3731 2056 3938
L 2044 3938
Q 2013 3747 1972 3638
L 1275 1728
L 2828 1728
z
" transform="scale(0.015625)"/>
        <path id="SegoeUI-6c" d="M 1031 0
L 519 0
L 519 4738
L 1031 4738
L 1031 0
z
" transform="scale(0.015625)"/>
        <path id="SegoeUI-71" d="M 3250 -1472
L 2738 -1472
L 2738 550
L 2725 550
Q 2391 -75 1631 -75
Q 1028 -75 664 354
Q 300 784 300 1525
Q 300 2322 700 2798
Q 1100 3275 1775 3275
Q 2431 3275 2725 2756
L 2738 2756
L 2738 3200
L 3250 3200
L 3250 -1472
z
M 2738 1441
L 2738 1906
Q 2738 2300 2480 2572
Q 2222 2844 1825 2844
Q 1363 2844 1094 2501
Q 825 2159 825 1538
Q 825 984 1084 670
Q 1344 356 1753 356
Q 2203 356 2470 664
Q 2738 972 2738 1441
z
" transform="scale(0.015625)"/>
        <path id="SegoeUI-75" d="M 3106 0
L 2594 0
L 2594 506
L 2581 506
Q 2263 -75 1594 -75
Q 450 -75 450 1288
L 450 3200
L 959 3200
L 959 1369
Q 959 356 1734 356
Q 2109 356 2351 632
Q 2594 909 2594 1356
L 2594 3200
L 3106 3200
L 3106 0
z
" transform="scale(0.015625)"/>
       </defs>
       <use xlink:href="#SegoeUI-41"/>
       <use xlink:href="#SegoeUI-74" transform="translate(63.126953 0)"/>
       <use xlink:href="#SegoeUI-20" transform="translate(97.013672 0)"/>
       <use xlink:href="#SegoeUI-6c" transform="translate(124.40625 0)"/>
       <use xlink:href="#SegoeUI-65" transform="translate(148.625 0)"/>
       <use xlink:href="#SegoeUI-61" transform="translate(200.919922 0)"/>
       <use xlink:href="#SegoeUI-73" transform="translate(251.798828 0)"/>
       <use xlink:href="#SegoeUI-74" transform="translate(294.230469 0)"/>
       <use xlink:href="#SegoeUI-20" transform="translate(328.117188 0)"/>
       <use xlink:href="#SegoeUI-31" transform="translate(355.509766 0)"/>
       <use xlink:href="#SegoeUI-36" transform="translate(409.416016 0)"/>
       <use xlink:href="#SegoeUI-20" transform="translate(463.322266 0)"/>
       <use xlink:href="#SegoeUI-71" transform="translate(490.714844 0)"/>
       <use xlink:href="#SegoeUI-75" transform="translate(549.601562 0)"/>
       <use xlink:href="#SegoeUI-61" transform="translate(606.193359 0)"/>
       <use xlink:href="#SegoeUI-72" transform="translate(657.072266 0)"/>
       <use xlink:href="#SegoeUI-74" transform="translate(694.712891 0)"/>
       <use xlink:href="#SegoeUI-65" transform="translate(727.849609 0)"/>
       <use xlink:href="#SegoeUI-72" transform="translate(780.144531 0)"/>
       <use xlink:href="#SegoeUI-73" transform="translate(815.535156 0)"/>
      </g>
     </g>
    </g>
    <g id="ytick_2">
     <g id="text_11">
      <!-- Exclude 2021-Q2 -->
      <g style="fill: #262626" transform="translate(19.4925 184.071719) scale(0.11 -0.11)">
       <defs>
        <path id="SegoeUI-45" d="M 2963 0
L 588 0
L 588 4481
L 2863 4481
L 2863 4006
L 1113 4006
L 1113 2516
L 2731 2516
L 2731 2044
L 1113 2044
L 1113 475
L 2963 475
L 2963 0
z
" transform="scale(0.015625)"/>
        <path id="SegoeUI-78" d="M 2856 3200
L 1781 1581
L 2838 0
L 2241 0
L 1613 1038
Q 1553 1134 1472 1281
L 1459 1281
Q 1444 1253 1313 1038
L 672 0
L 81 0
L 1172 1569
L 128 3200
L 725 3200
L 1344 2106
Q 1413 1984 1478 1856
L 1491 1856
L 2291 3200
L 2856 3200
z
" transform="scale(0.015625)"/>
        <path id="SegoeUI-63" d="M 2700 147
Q 2331 -75 1825 -75
Q 1141 -75 720 370
Q 300 816 300 1525
Q 300 2316 753 2795
Q 1206 3275 1963 3275
Q 2384 3275 2706 3119
L 2706 2594
Q 2350 2844 1944 2844
Q 1453 2844 1139 2492
Q 825 2141 825 1569
Q 825 1006 1120 681
Q 1416 356 1913 356
Q 2331 356 2700 634
L 2700 147
z
" transform="scale(0.015625)"/>
        <path id="SegoeUI-2d" d="M 2156 1581
L 450 1581
L 450 1984
L 2156 1984
L 2156 1581
z
" transform="scale(0.015625)"/>
        <path id="SegoeUI-51" d="M 2394 -75
Q 1444 -75 866 553
Q 294 1181 294 2188
Q 294 3272 878 3913
Q 1466 4556 2469 4556
Q 3394 4556 3963 3931
Q 4531 3306 4531 2297
Q 4531 1200 3950 563
Q 3813 409 3656 300
L 4916 -603
L 3963 -603
L 3119 28
Q 2788 -75 2394 -75
z
M 2431 4081
Q 1725 4081 1284 3572
Q 844 3063 844 2234
Q 844 1409 1272 900
Q 1703 397 2394 397
Q 3131 397 3556 878
Q 3981 1359 3981 2225
Q 3981 3116 3569 3597
Q 3156 4081 2431 4081
z
" transform="scale(0.015625)"/>
       </defs>
       <use xlink:href="#SegoeUI-45"/>
       <use xlink:href="#SegoeUI-78" transform="translate(50.585938 0)"/>
       <use xlink:href="#SegoeUI-63" transform="translate(95.734375 0)"/>
       <use xlink:href="#SegoeUI-6c" transform="translate(141.925781 0)"/>
       <use xlink:href="#SegoeUI-75" transform="translate(166.144531 0)"/>
       <use xlink:href="#SegoeUI-64" transform="translate(222.736328 0)"/>
       <use xlink:href="#SegoeUI-65" transform="translate(281.623047 0)"/>
       <use xlink:href="#SegoeUI-20" transform="translate(333.917969 0)"/>
       <use xlink:href="#SegoeUI-32" transform="translate(361.310547 0)"/>
       <use xlink:href="#SegoeUI-30" transform="translate(415.216797 0)"/>
       <use xlink:href="#SegoeUI-32" transform="translate(469.123047 0)"/>
       <use xlink:href="#SegoeUI-31" transform="translate(523.029297 0)"/>
       <use xlink:href="#SegoeUI-2d" transform="translate(576.935547 0)"/>
       <use xlink:href="#SegoeUI-51" transform="translate(616.925781 0)"/>
       <use xlink:href="#SegoeUI-32" transform="translate(692.316406 0)"/>
      </g>
     </g>
    </g>
    <g id="ytick_3">
     <g id="text_12">
      <!-- Primary sample -->
      <g style="fill: #262626" transform="translate(26.633906 66.253537) scale(0.11 -0.11)">
       <defs>
        <path id="SegoeUI-50" d="M 1113 1694
L 1113 0
L 588 0
L 588 4481
L 1819 4481
Q 2538 4481 2933 4131
Q 3328 3781 3328 3144
Q 3328 2506 2889 2100
Q 2450 1694 1703 1694
L 1113 1694
z
M 1113 4006
L 1113 2169
L 1663 2169
Q 2206 2169 2492 2417
Q 2778 2666 2778 3119
Q 2778 4006 1728 4006
L 1113 4006
z
" transform="scale(0.015625)"/>
        <path id="SegoeUI-69" d="M 781 4013
Q 644 4013 547 4106
Q 450 4200 450 4344
Q 450 4488 547 4583
Q 644 4678 781 4678
Q 922 4678 1020 4583
Q 1119 4488 1119 4344
Q 1119 4206 1020 4109
Q 922 4013 781 4013
z
M 1031 0
L 519 0
L 519 3200
L 1031 3200
L 1031 0
z
" transform="scale(0.015625)"/>
        <path id="SegoeUI-79" d="M 3066 3200
L 1594 -513
Q 1200 -1506 488 -1506
Q 288 -1506 153 -1466
L 153 -1006
Q 319 -1063 456 -1063
Q 844 -1063 1038 -600
L 1294 6
L 44 3200
L 613 3200
L 1478 738
Q 1494 691 1544 494
L 1563 494
Q 1578 569 1625 731
L 2534 3200
L 3066 3200
z
" transform="scale(0.015625)"/>
        <path id="SegoeUI-70" d="M 1044 463
L 1031 463
L 1031 -1472
L 519 -1472
L 519 3200
L 1031 3200
L 1031 2638
L 1044 2638
Q 1422 3275 2150 3275
Q 2769 3275 3116 2845
Q 3463 2416 3463 1694
Q 3463 891 3072 408
Q 2681 -75 2003 -75
Q 1381 -75 1044 463
z
M 1031 1753
L 1031 1306
Q 1031 909 1289 632
Q 1547 356 1944 356
Q 2409 356 2673 712
Q 2938 1069 2938 1703
Q 2938 2238 2691 2541
Q 2444 2844 2022 2844
Q 1575 2844 1303 2533
Q 1031 2222 1031 1753
z
" transform="scale(0.015625)"/>
       </defs>
       <use xlink:href="#SegoeUI-50"/>
       <use xlink:href="#SegoeUI-72" transform="translate(56.005859 0)"/>
       <use xlink:href="#SegoeUI-69" transform="translate(90.771484 0)"/>
       <use xlink:href="#SegoeUI-6d" transform="translate(114.990234 0)"/>
       <use xlink:href="#SegoeUI-61" transform="translate(201.123047 0)"/>
       <use xlink:href="#SegoeUI-72" transform="translate(252.001953 0)"/>
       <use xlink:href="#SegoeUI-79" transform="translate(290.767578 0)"/>
       <use xlink:href="#SegoeUI-20" transform="translate(339.15625 0)"/>
       <use xlink:href="#SegoeUI-73" transform="translate(366.548828 0)"/>
       <use xlink:href="#SegoeUI-61" transform="translate(408.980469 0)"/>
       <use xlink:href="#SegoeUI-6d" transform="translate(459.859375 0)"/>
       <use xlink:href="#SegoeUI-70" transform="translate(545.992188 0)"/>
       <use xlink:href="#SegoeUI-6c" transform="translate(604.78125 0)"/>
       <use xlink:href="#SegoeUI-65" transform="translate(629 0)"/>
      </g>
     </g>
    </g>
   </g>
   <g id="line2d_1">
    <path d="M 638.203004 309.6
L 638.203004 50.4
" clip-path="url(#p14427ec1e5)" style="fill: none; stroke-dasharray: 1,1.65; stroke-dashoffset: 0; stroke: #1f2430"/>
   </g>
   <g id="LineCollection_1">
    <path d="M 204.679781 297.818182
L 475.277549 297.818182
" clip-path="url(#p14427ec1e5)" style="fill: none; stroke: #386411"/>
   </g>
   <g id="line2d_2">
    <defs>
     <path id="m4ab2257d90" d="M 0 3
L 0 -3
" style="stroke: #386411"/>
    </defs>
    <g clip-path="url(#p14427ec1e5)">
     <use xlink:href="#m4ab2257d90" x="204.679781" y="297.818182" style="fill: #386411; stroke: #386411"/>
    </g>
   </g>
   <g id="line2d_3">
    <g clip-path="url(#p14427ec1e5)">
     <use xlink:href="#m4ab2257d90" x="475.277549" y="297.818182" style="fill: #386411; stroke: #386411"/>
    </g>
   </g>
   <g id="LineCollection_2">
    <path d="M 169.949396 180
L 440.164527 180
" clip-path="url(#p14427ec1e5)" style="fill: none; stroke: #386411"/>
   </g>
   <g id="line2d_4">
    <g clip-path="url(#p14427ec1e5)">
     <use xlink:href="#m4ab2257d90" x="169.949396" y="180" style="fill: #386411; stroke: #386411"/>
    </g>
   </g>
   <g id="line2d_5">
    <g clip-path="url(#p14427ec1e5)">
     <use xlink:href="#m4ab2257d90" x="440.164527" y="180" style="fill: #386411; stroke: #386411"/>
    </g>
   </g>
   <g id="LineCollection_3">
    <path d="M 167.125317 62.181818
L 438.767056 62.181818
" clip-path="url(#p14427ec1e5)" style="fill: none; stroke: #386411"/>
   </g>
   <g id="line2d_6">
    <g clip-path="url(#p14427ec1e5)">
     <use xlink:href="#m4ab2257d90" x="167.125317" y="62.181818" style="fill: #386411; stroke: #386411"/>
    </g>
   </g>
   <g id="line2d_7">
    <g clip-path="url(#p14427ec1e5)">
     <use xlink:href="#m4ab2257d90" x="438.767056" y="62.181818" style="fill: #386411; stroke: #386411"/>
    </g>
   </g>
   <g id="line2d_8">
    <defs>
     <path id="m5da82ab4fa" d="M 0 3
C 0.795609 3 1.55874 2.683901 2.12132 2.12132
C 2.683901 1.55874 3 0.795609 3 0
C 3 -0.795609 2.683901 -1.55874 2.12132 -2.12132
C 1.55874 -2.683901 0.795609 -3 0 -3
C -0.795609 -3 -1.55874 -2.683901 -2.12132 -2.12132
C -2.683901 -1.55874 -3 -0.795609 -3 0
C -3 0.795609 -2.683901 1.55874 -2.12132 2.12132
C -1.55874 2.683901 -0.795609 3 0 3
z
" style="stroke: #386411"/>
    </defs>
    <g clip-path="url(#p14427ec1e5)">
     <use xlink:href="#m5da82ab4fa" x="340.415029" y="297.818182" style="fill: #a3d576; stroke: #386411"/>
    </g>
   </g>
   <g id="line2d_9">
    <g clip-path="url(#p14427ec1e5)">
     <use xlink:href="#m5da82ab4fa" x="305.056961" y="180" style="fill: #a3d576; stroke: #386411"/>
    </g>
   </g>
   <g id="line2d_10">
    <g clip-path="url(#p14427ec1e5)">
     <use xlink:href="#m5da82ab4fa" x="302.816095" y="62.181818" style="fill: #a3d576; stroke: #386411"/>
    </g>
   </g>
   <g id="patch_3">
    <path d="M 111.078281 309.6
L 111.078281 50.4
" style="fill: none; stroke: #d7dbe7; stroke-width: 1.25; stroke-linejoin: miter; stroke-linecap: square"/>
   </g>
   <g id="patch_4">
    <path d="M 111.078281 309.6
L 680.238281 309.6
" style="fill: none; stroke: #d7dbe7; stroke-width: 1.25; stroke-linejoin: miter; stroke-linecap: square"/>
   </g>
   <g id="text_13">
    <!-- -0.0425 -->
    <g style="fill: #262626" transform="translate(489.289308 299.900018) scale(0.085 -0.085)">
     <defs>
      <path id="Consolas-2d" d="M 2694 1447
L 825 1447
L 825 1959
L 2694 1959
L 2694 1447
z
" transform="scale(0.015625)"/>
      <path id="Consolas-30" d="M 3244 2041
Q 3244 1572 3150 1186
Q 3056 800 2865 523
Q 2675 247 2392 95
Q 2109 -56 1728 -56
Q 1400 -56 1131 67
Q 863 191 672 447
Q 481 703 378 1100
Q 275 1497 275 2041
Q 275 2509 370 2896
Q 466 3284 655 3561
Q 844 3838 1128 3989
Q 1413 4141 1791 4141
Q 2119 4141 2387 4017
Q 2656 3894 2847 3636
Q 3038 3378 3141 2981
Q 3244 2584 3244 2041
z
M 2694 2022
Q 2694 2128 2686 2233
Q 2678 2338 2669 2438
L 941 1153
Q 988 991 1059 853
Q 1131 716 1232 617
Q 1334 519 1464 464
Q 1594 409 1759 409
Q 1972 409 2145 512
Q 2319 616 2441 819
Q 2563 1022 2628 1323
Q 2694 1625 2694 2022
z
M 825 2059
Q 825 1963 826 1866
Q 828 1769 838 1678
L 2566 2956
Q 2519 3116 2447 3247
Q 2375 3378 2275 3473
Q 2175 3569 2047 3622
Q 1919 3675 1759 3675
Q 1547 3675 1373 3572
Q 1200 3469 1078 3264
Q 956 3059 890 2757
Q 825 2456 825 2059
z
" transform="scale(0.015625)"/>
      <path id="Consolas-2e" d="M 1734 984
Q 1841 984 1936 943
Q 2031 903 2101 831
Q 2172 759 2212 664
Q 2253 569 2253 459
Q 2253 353 2212 259
Q 2172 166 2101 95
Q 2031 25 1936 -15
Q 1841 -56 1734 -56
Q 1625 -56 1531 -15
Q 1438 25 1367 95
Q 1297 166 1256 259
Q 1216 353 1216 459
Q 1216 569 1256 664
Q 1297 759 1367 831
Q 1438 903 1531 943
Q 1625 984 1734 984
z
" transform="scale(0.015625)"/>
      <path id="Consolas-34" d="M 3353 903
L 2656 903
L 2656 0
L 2100 0
L 2100 903
L 134 903
L 134 1381
L 1875 4084
L 2656 4084
L 2656 1381
L 3353 1381
L 3353 903
z
M 2100 3559
L 678 1381
L 2100 1381
L 2100 3559
z
" transform="scale(0.015625)"/>
      <path id="Consolas-32" d="M 3150 0
L 459 0
L 459 488
L 1516 1538
Q 1775 1794 1937 1981
Q 2100 2169 2190 2323
Q 2281 2478 2312 2615
Q 2344 2753 2344 2913
Q 2344 3063 2303 3198
Q 2263 3334 2178 3437
Q 2094 3541 1959 3600
Q 1825 3659 1638 3659
Q 1378 3659 1165 3543
Q 953 3428 775 3244
L 475 3603
Q 706 3847 1007 3994
Q 1309 4141 1709 4141
Q 1981 4141 2204 4059
Q 2428 3978 2590 3825
Q 2753 3672 2842 3450
Q 2931 3228 2931 2950
Q 2931 2716 2868 2516
Q 2806 2316 2679 2117
Q 2553 1919 2361 1706
Q 2169 1494 1906 1241
L 1166 519
L 3150 519
L 3150 0
z
" transform="scale(0.015625)"/>
      <path id="Consolas-35" d="M 3047 1306
Q 3047 1003 2915 753
Q 2784 503 2554 323
Q 2325 144 2012 44
Q 1700 -56 1338 -56
Q 1247 -56 1142 -51
Q 1038 -47 934 -39
Q 831 -31 732 -22
Q 634 -13 556 0
L 556 494
Q 725 453 942 434
Q 1159 416 1381 416
Q 1631 416 1831 475
Q 2031 534 2172 645
Q 2313 756 2388 914
Q 2463 1072 2463 1269
Q 2463 1650 2189 1823
Q 1916 1997 1403 1997
L 628 1997
L 628 4084
L 2828 4084
L 2828 3609
L 1141 3609
L 1141 2463
L 1497 2463
Q 1791 2463 2069 2409
Q 2347 2356 2564 2223
Q 2781 2091 2914 1867
Q 3047 1644 3047 1306
z
" transform="scale(0.015625)"/>
     </defs>
     <use xlink:href="#Consolas-2d"/>
     <use xlink:href="#Consolas-30" transform="translate(54.980469 0)"/>
     <use xlink:href="#Consolas-2e" transform="translate(109.960938 0)"/>
     <use xlink:href="#Consolas-30" transform="translate(164.941406 0)"/>
     <use xlink:href="#Consolas-34" transform="translate(219.921875 0)"/>
     <use xlink:href="#Consolas-32" transform="translate(274.902344 0)"/>
     <use xlink:href="#Consolas-35" transform="translate(329.882812 0)"/>
    </g>
   </g>
   <g id="text_14">
    <!-- -0.0476 -->
    <g style="fill: #262626" transform="translate(454.176286 182.081836) scale(0.085 -0.085)">
     <defs>
      <path id="Consolas-37" d="M 3128 3578
L 1416 0
L 794 0
L 2572 3578
L 366 3578
L 366 4084
L 3128 4084
L 3128 3578
z
" transform="scale(0.015625)"/>
      <path id="Consolas-36" d="M 3200 1294
Q 3200 1013 3098 766
Q 2997 519 2809 336
Q 2622 153 2358 48
Q 2094 -56 1772 -56
Q 1434 -56 1175 51
Q 916 159 741 382
Q 566 606 475 947
Q 384 1288 384 1753
Q 384 2066 425 2359
Q 466 2653 559 2912
Q 653 3172 809 3387
Q 966 3603 1198 3758
Q 1431 3913 1747 3998
Q 2063 4084 2478 4084
L 2881 4084
L 2881 3609
L 2444 3609
Q 2078 3609 1809 3521
Q 1541 3434 1359 3275
Q 1178 3116 1081 2891
Q 984 2666 959 2388
L 947 2259
Q 1144 2375 1401 2445
Q 1659 2516 1959 2516
Q 2269 2516 2501 2425
Q 2734 2334 2889 2173
Q 3044 2013 3122 1788
Q 3200 1563 3200 1294
z
M 2631 1259
Q 2631 1447 2586 1598
Q 2541 1750 2444 1854
Q 2347 1959 2198 2017
Q 2050 2075 1844 2075
Q 1725 2075 1603 2053
Q 1481 2031 1364 1992
Q 1247 1953 1140 1903
Q 1034 1853 947 1797
Q 947 1394 1003 1123
Q 1059 853 1170 690
Q 1281 528 1443 459
Q 1606 391 1819 391
Q 1997 391 2145 448
Q 2294 506 2401 618
Q 2509 731 2570 892
Q 2631 1053 2631 1259
z
" transform="scale(0.015625)"/>
     </defs>
     <use xlink:href="#Consolas-2d"/>
     <use xlink:href="#Consolas-30" transform="translate(54.980469 0)"/>
     <use xlink:href="#Consolas-2e" transform="translate(109.960938 0)"/>
     <use xlink:href="#Consolas-30" transform="translate(164.941406 0)"/>
     <use xlink:href="#Consolas-34" transform="translate(219.921875 0)"/>
     <use xlink:href="#Consolas-37" transform="translate(274.902344 0)"/>
     <use xlink:href="#Consolas-36" transform="translate(329.882812 0)"/>
    </g>
   </g>
   <g id="text_15">
    <!-- -0.0479 -->
    <g style="fill: #262626" transform="translate(452.778815 64.263654) scale(0.085 -0.085)">
     <defs>
      <path id="Consolas-39" d="M 3128 2272
Q 3128 1675 2984 1245
Q 2841 816 2559 539
Q 2278 263 1862 131
Q 1447 0 903 0
L 563 0
L 563 475
L 941 475
Q 1344 475 1637 556
Q 1931 638 2126 795
Q 2322 953 2425 1179
Q 2528 1406 2553 1697
L 2566 1825
Q 2369 1709 2112 1639
Q 1856 1569 1556 1569
Q 1247 1569 1012 1659
Q 778 1750 623 1912
Q 469 2075 391 2298
Q 313 2522 313 2784
Q 313 3069 416 3316
Q 519 3563 705 3745
Q 891 3928 1150 4034
Q 1409 4141 1722 4141
Q 2025 4141 2283 4041
Q 2541 3941 2728 3717
Q 2916 3494 3022 3137
Q 3128 2781 3128 2272
z
M 1697 3694
Q 1522 3694 1373 3636
Q 1225 3578 1117 3467
Q 1009 3356 946 3193
Q 884 3031 884 2822
Q 884 2631 929 2481
Q 975 2331 1070 2226
Q 1166 2122 1316 2065
Q 1466 2009 1672 2009
Q 1788 2009 1911 2031
Q 2034 2053 2151 2090
Q 2269 2128 2375 2178
Q 2481 2228 2566 2284
Q 2566 2688 2506 2958
Q 2447 3228 2334 3392
Q 2222 3556 2061 3625
Q 1900 3694 1697 3694
z
" transform="scale(0.015625)"/>
     </defs>
     <use xlink:href="#Consolas-2d"/>
     <use xlink:href="#Consolas-30" transform="translate(54.980469 0)"/>
     <use xlink:href="#Consolas-2e" transform="translate(109.960938 0)"/>
     <use xlink:href="#Consolas-30" transform="translate(164.941406 0)"/>
     <use xlink:href="#Consolas-34" transform="translate(219.921875 0)"/>
     <use xlink:href="#Consolas-37" transform="translate(274.902344 0)"/>
     <use xlink:href="#Consolas-39" transform="translate(329.882812 0)"/>
    </g>
   </g>
  </g>
  <g id="text_16">
   <!-- Kết luận không phụ thuộc vào 2021-Q2 hay quy tắc tối thiểu 16 quý -->
   <g style="fill: #1f2430" transform="translate(111.078281 18.156562) scale(0.13 -0.13)">
    <defs>
     <path id="SegoeUI-Semibold-4b" d="M 3944 0
L 2975 0
L 1416 2050
Q 1328 2166 1309 2206
L 1297 2206
L 1297 0
L 553 0
L 553 4481
L 1297 4481
L 1297 2375
L 1309 2375
Q 1347 2444 1416 2528
L 2919 4481
L 3809 4481
L 2050 2331
L 3944 0
z
" transform="scale(0.015625)"/>
     <path id="SegoeUI-Semibold-1ebf" d="M 3181 1403
L 1000 1403
Q 1013 959 1273 718
Q 1534 478 1991 478
Q 2503 478 2931 784
L 2931 200
Q 2494 -75 1775 -75
Q 1069 -75 667 361
Q 266 797 266 1588
Q 266 2334 708 2804
Q 1150 3275 1806 3275
Q 2463 3275 2822 2853
Q 3181 2431 3181 1681
L 3181 1403
z
M 2481 1916
Q 2478 2306 2297 2523
Q 2116 2741 1797 2741
Q 1484 2741 1267 2512
Q 1050 2284 1000 1916
L 2481 1916
z
M 2480 4281
L 3043 5050
L 3727 5050
L 2974 4281
L 2480 4281
z
M 2721 3806
L 2230 3806
L 1737 4253
L 1252 3806
L 777 3806
L 1468 4588
L 2030 4588
L 2721 3806
z
" transform="scale(0.015625)"/>
     <path id="SegoeUI-Semibold-74" d="M 2159 34
Q 1947 -72 1600 -72
Q 669 -72 669 822
L 669 2631
L 134 2631
L 134 3200
L 669 3200
L 669 3941
L 1394 4147
L 1394 3200
L 2159 3200
L 2159 2631
L 1394 2631
L 1394 1031
Q 1394 747 1497 625
Q 1600 503 1841 503
Q 2025 503 2159 609
L 2159 34
z
" transform="scale(0.015625)"/>
     <path id="SegoeUI-Semibold-20" transform="scale(0.015625)"/>
     <path id="SegoeUI-Semibold-6c" d="M 1200 0
L 472 0
L 472 4738
L 1200 4738
L 1200 0
z
" transform="scale(0.015625)"/>
     <path id="SegoeUI-Semibold-75" d="M 3263 0
L 2538 0
L 2538 506
L 2525 506
Q 2209 -75 1544 -75
Q 409 -75 409 1288
L 409 3200
L 1134 3200
L 1134 1363
Q 1134 500 1800 500
Q 2122 500 2330 737
Q 2538 975 2538 1359
L 2538 3200
L 3263 3200
L 3263 0
z
" transform="scale(0.015625)"/>
     <path id="SegoeUI-Semibold-1ead" d="M 2928 0
L 2225 0
L 2225 500
L 2213 500
Q 1881 -75 1241 -75
Q 769 -75 501 181
Q 234 438 234 859
Q 234 1766 1278 1916
L 2228 2050
Q 2228 2734 1578 2734
Q 1006 2734 547 2341
L 547 2975
Q 1053 3275 1716 3275
Q 2928 3275 2928 2081
L 2928 0
z
M 2228 1572
L 1556 1478
Q 1244 1438 1086 1327
Q 928 1216 928 938
Q 928 734 1073 604
Q 1219 475 1463 475
Q 1794 475 2011 708
Q 2228 941 2228 1294
L 2228 1572
z
M 2685 3763
L 2185 3763
L 1682 4422
L 1192 3763
L 707 3763
L 1407 4788
L 1982 4788
L 2685 3763
z
M 1671 -1088
Q 1511 -1088 1397 -981
Q 1283 -875 1283 -725
Q 1283 -575 1400 -473
Q 1517 -372 1671 -372
Q 1830 -372 1942 -473
Q 2055 -575 2055 -725
Q 2055 -875 1942 -981
Q 1830 -1088 1671 -1088
z
" transform="scale(0.015625)"/>
     <path id="SegoeUI-Semibold-6e" d="M 3322 0
L 2597 0
L 2597 1803
Q 2597 2700 1963 2700
Q 1631 2700 1415 2451
Q 1200 2203 1200 1825
L 1200 0
L 472 0
L 472 3200
L 1200 3200
L 1200 2669
L 1213 2669
Q 1572 3275 2250 3275
Q 2772 3275 3047 2936
Q 3322 2597 3322 1956
L 3322 0
z
" transform="scale(0.015625)"/>
     <path id="SegoeUI-Semibold-6b" d="M 3375 0
L 2456 0
L 1213 1538
L 1200 1538
L 1200 0
L 472 0
L 472 4738
L 1200 4738
L 1200 1734
L 1213 1734
L 2388 3200
L 3259 3200
L 1938 1656
L 3375 0
z
" transform="scale(0.015625)"/>
     <path id="SegoeUI-Semibold-68" d="M 3316 0
L 2591 0
L 2591 1750
Q 2591 2700 1956 2700
Q 1638 2700 1419 2425
Q 1200 2150 1200 1722
L 1200 0
L 472 0
L 472 4738
L 1200 4738
L 1200 2669
L 1213 2669
Q 1575 3275 2250 3275
Q 3316 3275 3316 1972
L 3316 0
z
" transform="scale(0.015625)"/>
     <path id="SegoeUI-Semibold-f4" d="M 1891 -75
Q 1150 -75 708 373
Q 266 822 266 1563
Q 266 2369 727 2822
Q 1188 3275 1969 3275
Q 2719 3275 3137 2834
Q 3556 2394 3556 1613
Q 3556 847 3104 386
Q 2653 -75 1891 -75
z
M 1925 2697
Q 1500 2697 1253 2400
Q 1006 2103 1006 1581
Q 1006 1078 1256 789
Q 1506 500 1925 500
Q 2353 500 2583 784
Q 2813 1069 2813 1594
Q 2813 2122 2583 2409
Q 2353 2697 1925 2697
z
M 2909 3763
L 2409 3763
L 1906 4422
L 1416 3763
L 931 3763
L 1631 4788
L 2206 4788
L 2909 3763
z
" transform="scale(0.015625)"/>
     <path id="SegoeUI-Semibold-67" d="M 3384 256
Q 3384 -1506 1613 -1506
Q 988 -1506 522 -1297
L 522 -634
Q 1047 -934 1519 -934
Q 2659 -934 2659 188
L 2659 538
L 2647 538
Q 2288 -75 1566 -75
Q 981 -75 623 351
Q 266 778 266 1497
Q 266 2313 650 2794
Q 1034 3275 1706 3275
Q 2341 3275 2647 2756
L 2659 2756
L 2659 3200
L 3384 3200
L 3384 256
z
M 2666 1466
L 2666 1881
Q 2666 2219 2442 2458
Q 2219 2697 1884 2697
Q 1472 2697 1239 2392
Q 1006 2088 1006 1541
Q 1006 1069 1229 786
Q 1453 503 1822 503
Q 2197 503 2431 773
Q 2666 1044 2666 1466
z
" transform="scale(0.015625)"/>
     <path id="SegoeUI-Semibold-70" d="M 1209 472
L 1197 472
L 1197 -1472
L 472 -1472
L 472 3200
L 1197 3200
L 1197 2638
L 1209 2638
Q 1581 3275 2297 3275
Q 2906 3275 3247 2847
Q 3588 2419 3588 1697
Q 3588 897 3203 415
Q 2819 -66 2153 -66
Q 1541 -66 1209 472
z
M 1191 1734
L 1191 1338
Q 1191 988 1414 744
Q 1638 500 1981 500
Q 2384 500 2614 814
Q 2844 1128 2844 1691
Q 2844 2163 2630 2430
Q 2416 2697 2050 2697
Q 1663 2697 1427 2422
Q 1191 2147 1191 1734
z
" transform="scale(0.015625)"/>
     <path id="SegoeUI-Semibold-1ee5" d="M 3263 0
L 2538 0
L 2538 506
L 2525 506
Q 2209 -75 1544 -75
Q 409 -75 409 1288
L 409 3200
L 1134 3200
L 1134 1363
Q 1134 500 1800 500
Q 2122 500 2330 737
Q 2538 975 2538 1359
L 2538 3200
L 3263 3200
L 3263 0
z
M 1783 -1088
Q 1623 -1088 1509 -981
Q 1395 -875 1395 -725
Q 1395 -575 1512 -473
Q 1629 -372 1783 -372
Q 1942 -372 2054 -473
Q 2167 -575 2167 -725
Q 2167 -875 2054 -981
Q 1942 -1088 1783 -1088
z
" transform="scale(0.015625)"/>
     <path id="SegoeUI-Semibold-1ed9" d="M 1891 -75
Q 1150 -75 708 373
Q 266 822 266 1563
Q 266 2369 727 2822
Q 1188 3275 1969 3275
Q 2719 3275 3137 2834
Q 3556 2394 3556 1613
Q 3556 847 3104 386
Q 2653 -75 1891 -75
z
M 1925 2697
Q 1500 2697 1253 2400
Q 1006 2103 1006 1581
Q 1006 1078 1256 789
Q 1506 500 1925 500
Q 2353 500 2583 784
Q 2813 1069 2813 1594
Q 2813 2122 2583 2409
Q 2353 2697 1925 2697
z
M 2949 3763
L 2449 3763
L 1946 4422
L 1456 3763
L 971 3763
L 1671 4788
L 2246 4788
L 2949 3763
z
M 1895 -1088
Q 1735 -1088 1621 -981
Q 1507 -875 1507 -725
Q 1507 -575 1624 -473
Q 1741 -372 1895 -372
Q 2054 -372 2166 -473
Q 2279 -575 2279 -725
Q 2279 -875 2166 -981
Q 2054 -1088 1895 -1088
z
" transform="scale(0.015625)"/>
     <path id="SegoeUI-Semibold-63" d="M 2763 147
Q 2378 -75 1853 -75
Q 1141 -75 703 370
Q 266 816 266 1525
Q 266 2316 736 2795
Q 1206 3275 1994 3275
Q 2431 3275 2766 3122
L 2766 2447
Q 2431 2697 2053 2697
Q 1594 2697 1300 2386
Q 1006 2075 1006 1572
Q 1006 1075 1282 787
Q 1559 500 2025 500
Q 2416 500 2763 778
L 2763 147
z
" transform="scale(0.015625)"/>
     <path id="SegoeUI-Semibold-76" d="M 3228 3200
L 1991 0
L 1206 0
L 28 3200
L 816 3200
L 1525 963
Q 1606 716 1625 531
L 1634 531
Q 1663 763 1722 950
L 2466 3200
L 3228 3200
z
" transform="scale(0.015625)"/>
     <path id="SegoeUI-Semibold-e0" d="M 2928 0
L 2225 0
L 2225 500
L 2213 500
Q 1881 -75 1241 -75
Q 769 -75 501 181
Q 234 438 234 859
Q 234 1766 1278 1916
L 2228 2050
Q 2228 2734 1578 2734
Q 1006 2734 547 2341
L 547 2975
Q 1053 3275 1716 3275
Q 2928 3275 2928 2081
L 2928 0
z
M 2228 1572
L 1556 1478
Q 1244 1438 1086 1327
Q 928 1216 928 938
Q 928 734 1073 604
Q 1219 475 1463 475
Q 1794 475 2011 708
Q 2228 941 2228 1294
L 2228 1572
z
M 2247 3763
L 1706 3763
L 888 4788
L 1556 4788
L 2247 3763
z
" transform="scale(0.015625)"/>
     <path id="SegoeUI-Semibold-6f" d="M 1891 -75
Q 1150 -75 708 373
Q 266 822 266 1563
Q 266 2369 727 2822
Q 1188 3275 1969 3275
Q 2719 3275 3137 2834
Q 3556 2394 3556 1613
Q 3556 847 3104 386
Q 2653 -75 1891 -75
z
M 1925 2697
Q 1500 2697 1253 2400
Q 1006 2103 1006 1581
Q 1006 1078 1256 789
Q 1506 500 1925 500
Q 2353 500 2583 784
Q 2813 1069 2813 1594
Q 2813 2122 2583 2409
Q 2353 2697 1925 2697
z
" transform="scale(0.015625)"/>
     <path id="SegoeUI-Semibold-32" d="M 3119 0
L 306 0
L 306 347
Q 306 559 365 745
Q 425 931 525 1095
Q 625 1259 759 1404
Q 894 1550 1047 1686
Q 1200 1822 1359 1948
Q 1519 2075 1672 2203
Q 1816 2325 1934 2442
Q 2053 2559 2137 2684
Q 2222 2809 2269 2948
Q 2316 3088 2316 3250
Q 2316 3428 2261 3561
Q 2206 3694 2107 3783
Q 2009 3872 1875 3917
Q 1741 3963 1581 3963
Q 1306 3963 1022 3834
Q 738 3706 475 3450
L 475 4147
Q 613 4250 753 4326
Q 894 4403 1044 4454
Q 1194 4506 1359 4531
Q 1525 4556 1713 4556
Q 2016 4556 2262 4476
Q 2509 4397 2684 4242
Q 2859 4088 2954 3856
Q 3050 3625 3050 3325
Q 3050 3053 2983 2836
Q 2916 2619 2792 2431
Q 2669 2244 2494 2075
Q 2319 1906 2103 1728
Q 1922 1581 1742 1442
Q 1563 1303 1419 1170
Q 1275 1038 1186 905
Q 1097 772 1097 638
L 1097 622
L 3119 622
L 3119 0
z
" transform="scale(0.015625)"/>
     <path id="SegoeUI-Semibold-30" d="M 1728 -75
Q 1028 -75 636 497
Q 244 1069 244 2150
Q 244 3338 653 3947
Q 1063 4556 1834 4556
Q 3313 4556 3313 2259
Q 3313 1122 2895 523
Q 2478 -75 1728 -75
z
M 1800 3978
Q 984 3978 984 2181
Q 984 500 1784 500
Q 2572 500 2572 2209
Q 2572 3978 1800 3978
z
" transform="scale(0.015625)"/>
     <path id="SegoeUI-Semibold-31" d="M 1922 4581
L 1922 0
L 1197 0
L 1197 3694
Q 1000 3553 773 3454
Q 547 3356 256 3281
L 256 3900
Q 438 3959 606 4025
Q 775 4091 939 4172
Q 1103 4253 1270 4353
Q 1438 4453 1616 4581
L 1922 4581
z
" transform="scale(0.015625)"/>
     <path id="SegoeUI-Semibold-2d" d="M 2156 1481
L 450 1481
L 450 2016
L 2156 2016
L 2156 1481
z
" transform="scale(0.015625)"/>
     <path id="SegoeUI-Semibold-51" d="M 2400 -75
Q 1916 -75 1522 90
Q 1128 256 850 554
Q 572 853 419 1268
Q 266 1684 266 2188
Q 266 2725 420 3162
Q 575 3600 861 3909
Q 1147 4219 1556 4387
Q 1966 4556 2472 4556
Q 2941 4556 3328 4390
Q 3716 4225 3991 3926
Q 4266 3628 4417 3212
Q 4569 2797 4569 2297
Q 4569 1634 4347 1136
Q 4125 638 3722 334
L 5022 -603
L 3891 -603
L 3091 19
Q 2931 -25 2759 -50
Q 2588 -75 2400 -75
z
M 2434 3903
Q 2128 3903 1873 3783
Q 1619 3663 1434 3442
Q 1250 3222 1148 2915
Q 1047 2609 1047 2234
Q 1047 1863 1145 1556
Q 1244 1250 1422 1033
Q 1600 816 1850 695
Q 2100 575 2403 575
Q 2725 575 2981 687
Q 3238 800 3417 1011
Q 3597 1222 3694 1528
Q 3791 1834 3791 2225
Q 3791 2625 3697 2937
Q 3603 3250 3428 3464
Q 3253 3678 3001 3790
Q 2750 3903 2434 3903
z
" transform="scale(0.015625)"/>
     <path id="SegoeUI-Semibold-61" d="M 2928 0
L 2225 0
L 2225 500
L 2213 500
Q 1881 -75 1241 -75
Q 769 -75 501 181
Q 234 438 234 859
Q 234 1766 1278 1916
L 2228 2050
Q 2228 2734 1578 2734
Q 1006 2734 547 2341
L 547 2975
Q 1053 3275 1716 3275
Q 2928 3275 2928 2081
L 2928 0
z
M 2228 1572
L 1556 1478
Q 1244 1438 1086 1327
Q 928 1216 928 938
Q 928 734 1073 604
Q 1219 475 1463 475
Q 1794 475 2011 708
Q 2228 941 2228 1294
L 2228 1572
z
" transform="scale(0.015625)"/>
     <path id="SegoeUI-Semibold-79" d="M 3244 3200
L 1800 -513
Q 1350 -1506 538 -1506
Q 309 -1506 156 -1466
L 156 -863
Q 328 -919 469 -919
Q 875 -919 1075 -519
L 1291 6
L 19 3200
L 822 3200
L 1584 875
Q 1597 831 1641 644
L 1656 644
Q 1672 716 1713 869
L 2513 3200
L 3244 3200
z
" transform="scale(0.015625)"/>
     <path id="SegoeUI-Semibold-71" d="M 3381 -1472
L 2656 -1472
L 2656 550
L 2644 550
Q 2316 -75 1572 -75
Q 981 -75 623 354
Q 266 784 266 1525
Q 266 2322 658 2798
Q 1050 3275 1713 3275
Q 2356 3275 2644 2756
L 2656 2756
L 2656 3200
L 3381 3200
L 3381 -1472
z
M 2666 1456
L 2666 1869
Q 2666 2216 2442 2456
Q 2219 2697 1875 2697
Q 1472 2697 1239 2395
Q 1006 2094 1006 1544
Q 1006 1056 1231 778
Q 1456 500 1813 500
Q 2203 500 2434 772
Q 2666 1044 2666 1456
z
" transform="scale(0.015625)"/>
     <path id="SegoeUI-Semibold-1eaf" d="M 2928 0
L 2225 0
L 2225 500
L 2213 500
Q 1881 -75 1241 -75
Q 769 -75 501 181
Q 234 438 234 859
Q 234 1766 1278 1916
L 2228 2050
Q 2228 2734 1578 2734
Q 1006 2734 547 2341
L 547 2975
Q 1053 3275 1716 3275
Q 2928 3275 2928 2081
L 2928 0
z
M 2228 1572
L 1556 1478
Q 1244 1438 1086 1327
Q 928 1216 928 938
Q 928 734 1073 604
Q 1219 475 1463 475
Q 1794 475 2011 708
Q 2228 941 2228 1294
L 2228 1572
z
M 1428 4531
L 1993 5300
L 2675 5300
L 1921 4531
L 1428 4531
z
M 2671 4594
Q 2637 4241 2376 4023
Q 2115 3806 1743 3806
Q 1350 3806 1101 4022
Q 853 4238 837 4594
L 1237 4594
Q 1271 4222 1756 4222
Q 2215 4222 2268 4594
L 2671 4594
z
" transform="scale(0.015625)"/>
     <path id="SegoeUI-Semibold-1ed1" d="M 1891 -75
Q 1150 -75 708 373
Q 266 822 266 1563
Q 266 2369 727 2822
Q 1188 3275 1969 3275
Q 2719 3275 3137 2834
Q 3556 2394 3556 1613
Q 3556 847 3104 386
Q 2653 -75 1891 -75
z
M 1925 2697
Q 1500 2697 1253 2400
Q 1006 2103 1006 1581
Q 1006 1078 1256 789
Q 1506 500 1925 500
Q 2353 500 2583 784
Q 2813 1069 2813 1594
Q 2813 2122 2583 2409
Q 2353 2697 1925 2697
z
M 2688 4281
L 3251 5050
L 3935 5050
L 3182 4281
L 2688 4281
z
M 2929 3806
L 2438 3806
L 1945 4253
L 1460 3806
L 985 3806
L 1676 4588
L 2238 4588
L 2929 3806
z
" transform="scale(0.015625)"/>
     <path id="SegoeUI-Semibold-69" d="M 838 3872
Q 659 3872 532 3987
Q 406 4103 406 4281
Q 406 4459 532 4578
Q 659 4697 838 4697
Q 1022 4697 1150 4578
Q 1278 4459 1278 4281
Q 1278 4113 1150 3992
Q 1022 3872 838 3872
z
M 1197 0
L 472 0
L 472 3200
L 1197 3200
L 1197 0
z
" transform="scale(0.015625)"/>
     <path id="SegoeUI-Semibold-1ec3" d="M 3181 1403
L 1000 1403
Q 1013 959 1273 718
Q 1534 478 1991 478
Q 2503 478 2931 784
L 2931 200
Q 2494 -75 1775 -75
Q 1069 -75 667 361
Q 266 797 266 1588
Q 266 2334 708 2804
Q 1150 3275 1806 3275
Q 2463 3275 2822 2853
Q 3181 2431 3181 1681
L 3181 1403
z
M 2481 1916
Q 2478 2306 2297 2523
Q 2116 2741 1797 2741
Q 1484 2741 1267 2512
Q 1050 2284 1000 1916
L 2481 1916
z
M 2539 5381
Q 2673 5394 2839 5394
Q 3123 5394 3299 5262
Q 3476 5131 3476 4906
Q 3476 4719 3354 4587
Q 3232 4456 3048 4434
L 3048 4281
L 2664 4281
L 2664 4653
Q 3026 4653 3026 4872
Q 3026 5059 2745 5059
Q 2682 5059 2539 5031
L 2539 5381
z
M 2814 3806
L 2326 3806
L 1832 4253
L 1348 3806
L 873 3806
L 1561 4588
L 2129 4588
L 2814 3806
z
" transform="scale(0.015625)"/>
     <path id="SegoeUI-Semibold-36" d="M 3328 1441
Q 3328 1103 3217 825
Q 3106 547 2909 345
Q 2713 144 2442 33
Q 2172 -78 1856 -78
Q 1519 -78 1236 53
Q 953 184 748 443
Q 544 703 431 1089
Q 319 1475 319 1984
Q 319 2606 467 3087
Q 616 3569 875 3894
Q 1134 4219 1484 4387
Q 1834 4556 2241 4556
Q 2494 4556 2701 4522
Q 2909 4488 3034 4428
L 3034 3775
Q 2875 3856 2694 3912
Q 2513 3969 2278 3969
Q 2016 3969 1794 3862
Q 1572 3756 1411 3551
Q 1250 3347 1158 3045
Q 1066 2744 1063 2350
L 1081 2350
Q 1225 2572 1470 2700
Q 1716 2828 2047 2828
Q 2341 2828 2577 2733
Q 2813 2638 2980 2458
Q 3147 2278 3237 2020
Q 3328 1763 3328 1441
z
M 2597 1381
Q 2597 1575 2551 1734
Q 2506 1894 2414 2008
Q 2322 2122 2183 2184
Q 2044 2247 1856 2247
Q 1669 2247 1526 2180
Q 1384 2113 1287 2003
Q 1191 1894 1142 1753
Q 1094 1613 1094 1466
Q 1094 1306 1139 1139
Q 1184 972 1278 834
Q 1372 697 1517 608
Q 1663 519 1863 519
Q 2041 519 2178 584
Q 2316 650 2408 765
Q 2500 881 2548 1039
Q 2597 1197 2597 1381
z
" transform="scale(0.015625)"/>
     <path id="SegoeUI-Semibold-fd" d="M 3244 3200
L 1800 -513
Q 1350 -1506 538 -1506
Q 309 -1506 156 -1466
L 156 -863
Q 328 -919 469 -919
Q 875 -919 1075 -519
L 1291 6
L 19 3200
L 822 3200
L 1584 875
Q 1597 831 1641 644
L 1656 644
Q 1672 716 1713 869
L 2513 3200
L 3244 3200
z
M 2639 4831
L 1745 3806
L 1208 3806
L 1964 4831
L 2639 4831
z
" transform="scale(0.015625)"/>
    </defs>
    <use xlink:href="#SegoeUI-Semibold-4b"/>
    <use xlink:href="#SegoeUI-Semibold-1ebf" transform="translate(61.083984 0)"/>
    <use xlink:href="#SegoeUI-Semibold-74" transform="translate(114.208984 0)"/>
    <use xlink:href="#SegoeUI-Semibold-20" transform="translate(150.341797 0)"/>
    <use xlink:href="#SegoeUI-Semibold-6c" transform="translate(177.832031 0)"/>
    <use xlink:href="#SegoeUI-Semibold-75" transform="translate(203.955078 0)"/>
    <use xlink:href="#SegoeUI-Semibold-1ead" transform="translate(262.304688 0)"/>
    <use xlink:href="#SegoeUI-Semibold-6e" transform="translate(314.501953 0)"/>
    <use xlink:href="#SegoeUI-Semibold-20" transform="translate(372.851562 0)"/>
    <use xlink:href="#SegoeUI-Semibold-6b" transform="translate(400.341797 0)"/>
    <use xlink:href="#SegoeUI-Semibold-68" transform="translate(452.832031 0)"/>
    <use xlink:href="#SegoeUI-Semibold-f4" transform="translate(511.035156 0)"/>
    <use xlink:href="#SegoeUI-Semibold-6e" transform="translate(570.751953 0)"/>
    <use xlink:href="#SegoeUI-Semibold-67" transform="translate(629.101562 0)"/>
    <use xlink:href="#SegoeUI-Semibold-20" transform="translate(689.355469 0)"/>
    <use xlink:href="#SegoeUI-Semibold-70" transform="translate(716.845703 0)"/>
    <use xlink:href="#SegoeUI-Semibold-68" transform="translate(777.099609 0)"/>
    <use xlink:href="#SegoeUI-Semibold-1ee5" transform="translate(835.302734 0)"/>
    <use xlink:href="#SegoeUI-Semibold-20" transform="translate(893.652344 0)"/>
    <use xlink:href="#SegoeUI-Semibold-74" transform="translate(921.142578 0)"/>
    <use xlink:href="#SegoeUI-Semibold-68" transform="translate(957.275391 0)"/>
    <use xlink:href="#SegoeUI-Semibold-75" transform="translate(1015.478516 0)"/>
    <use xlink:href="#SegoeUI-Semibold-1ed9" transform="translate(1073.828125 0)"/>
    <use xlink:href="#SegoeUI-Semibold-63" transform="translate(1133.544922 0)"/>
    <use xlink:href="#SegoeUI-Semibold-20" transform="translate(1180.566406 0)"/>
    <use xlink:href="#SegoeUI-Semibold-76" transform="translate(1208.056641 0)"/>
    <use xlink:href="#SegoeUI-Semibold-e0" transform="translate(1257.164062 0)"/>
    <use xlink:href="#SegoeUI-Semibold-6f" transform="translate(1309.361328 0)"/>
    <use xlink:href="#SegoeUI-Semibold-20" transform="translate(1369.078125 0)"/>
    <use xlink:href="#SegoeUI-Semibold-32" transform="translate(1396.568359 0)"/>
    <use xlink:href="#SegoeUI-Semibold-30" transform="translate(1452.085938 0)"/>
    <use xlink:href="#SegoeUI-Semibold-32" transform="translate(1507.603516 0)"/>
    <use xlink:href="#SegoeUI-Semibold-31" transform="translate(1563.121094 0)"/>
    <use xlink:href="#SegoeUI-Semibold-2d" transform="translate(1603.355469 0)"/>
    <use xlink:href="#SegoeUI-Semibold-51" transform="translate(1643.541016 0)"/>
    <use xlink:href="#SegoeUI-Semibold-32" transform="translate(1719.126953 0)"/>
    <use xlink:href="#SegoeUI-Semibold-20" transform="translate(1774.644531 0)"/>
    <use xlink:href="#SegoeUI-Semibold-68" transform="translate(1802.134766 0)"/>
    <use xlink:href="#SegoeUI-Semibold-61" transform="translate(1860.337891 0)"/>
    <use xlink:href="#SegoeUI-Semibold-79" transform="translate(1912.535156 0)"/>
    <use xlink:href="#SegoeUI-Semibold-20" transform="translate(1963.365234 0)"/>
    <use xlink:href="#SegoeUI-Semibold-71" transform="translate(1990.855469 0)"/>
    <use xlink:href="#SegoeUI-Semibold-75" transform="translate(2051.109375 0)"/>
    <use xlink:href="#SegoeUI-Semibold-79" transform="translate(2109.458984 0)"/>
    <use xlink:href="#SegoeUI-Semibold-20" transform="translate(2160.289062 0)"/>
    <use xlink:href="#SegoeUI-Semibold-74" transform="translate(2187.779297 0)"/>
    <use xlink:href="#SegoeUI-Semibold-1eaf" transform="translate(2223.912109 0)"/>
    <use xlink:href="#SegoeUI-Semibold-63" transform="translate(2276.109375 0)"/>
    <use xlink:href="#SegoeUI-Semibold-20" transform="translate(2323.130859 0)"/>
    <use xlink:href="#SegoeUI-Semibold-74" transform="translate(2350.621094 0)"/>
    <use xlink:href="#SegoeUI-Semibold-1ed1" transform="translate(2386.753906 0)"/>
    <use xlink:href="#SegoeUI-Semibold-69" transform="translate(2446.470703 0)"/>
    <use xlink:href="#SegoeUI-Semibold-20" transform="translate(2472.59375 0)"/>
    <use xlink:href="#SegoeUI-Semibold-74" transform="translate(2500.083984 0)"/>
    <use xlink:href="#SegoeUI-Semibold-68" transform="translate(2536.216797 0)"/>
    <use xlink:href="#SegoeUI-Semibold-69" transform="translate(2594.419922 0)"/>
    <use xlink:href="#SegoeUI-Semibold-1ec3" transform="translate(2620.542969 0)"/>
    <use xlink:href="#SegoeUI-Semibold-75" transform="translate(2673.667969 0)"/>
    <use xlink:href="#SegoeUI-Semibold-20" transform="translate(2732.017578 0)"/>
    <use xlink:href="#SegoeUI-Semibold-31" transform="translate(2759.507812 0)"/>
    <use xlink:href="#SegoeUI-Semibold-36" transform="translate(2799.742188 0)"/>
    <use xlink:href="#SegoeUI-Semibold-20" transform="translate(2855.552734 0)"/>
    <use xlink:href="#SegoeUI-Semibold-71" transform="translate(2883.042969 0)"/>
    <use xlink:href="#SegoeUI-Semibold-75" transform="translate(2943.296875 0)"/>
    <use xlink:href="#SegoeUI-Semibold-fd" transform="translate(3001.646484 0)"/>
   </g>
  </g>
  <g id="text_17">
   <!-- Khoảng tin cậy 95%. Năm seed Random Forest cho theta từ -0.0494 đến -0.0470. -->
   <g style="fill: #6f768a" transform="translate(111.078281 33.309562) scale(0.09 -0.09)">
    <defs>
     <path id="SegoeUI-4b" d="M 3706 0
L 2975 0
L 1244 2050
Q 1147 2166 1125 2206
L 1113 2206
L 1113 0
L 588 0
L 588 4481
L 1113 4481
L 1113 2375
L 1125 2375
Q 1169 2444 1244 2528
L 2919 4481
L 3572 4481
L 1650 2331
L 3706 0
z
" transform="scale(0.015625)"/>
     <path id="SegoeUI-1ea3" d="M 2809 0
L 2297 0
L 2297 500
L 2284 500
Q 1950 -75 1300 -75
Q 822 -75 551 178
Q 281 431 281 850
Q 281 1747 1338 1894
L 2297 2028
Q 2297 2844 1638 2844
Q 1059 2844 594 2450
L 594 2975
Q 1066 3275 1681 3275
Q 2809 3275 2809 2081
L 2809 0
z
M 2297 1619
L 1525 1513
Q 1169 1463 987 1336
Q 806 1209 806 888
Q 806 653 973 504
Q 1141 356 1419 356
Q 1800 356 2048 623
Q 2297 891 2297 1300
L 2297 1619
z
M 1294 4909
Q 1410 4922 1544 4922
Q 1819 4922 1996 4790
Q 2173 4659 2173 4438
Q 2173 4247 2052 4115
Q 1932 3984 1754 3963
L 1754 3806
L 1416 3806
L 1416 4166
Q 1766 4166 1766 4403
Q 1766 4600 1473 4600
Q 1419 4600 1294 4575
L 1294 4909
z
" transform="scale(0.015625)"/>
     <path id="SegoeUI-67" d="M 3250 256
Q 3250 -1506 1563 -1506
Q 969 -1506 525 -1281
L 525 -769
Q 1066 -1069 1556 -1069
Q 2738 -1069 2738 188
L 2738 538
L 2725 538
Q 2359 -75 1625 -75
Q 1028 -75 664 351
Q 300 778 300 1497
Q 300 2313 692 2794
Q 1084 3275 1766 3275
Q 2413 3275 2725 2756
L 2738 2756
L 2738 3200
L 3250 3200
L 3250 256
z
M 2738 1447
L 2738 1919
Q 2738 2300 2480 2572
Q 2222 2844 1838 2844
Q 1363 2844 1094 2498
Q 825 2153 825 1531
Q 825 997 1083 676
Q 1341 356 1766 356
Q 2197 356 2467 662
Q 2738 969 2738 1447
z
" transform="scale(0.015625)"/>
     <path id="SegoeUI-1ead" d="M 2809 0
L 2297 0
L 2297 500
L 2284 500
Q 1950 -75 1300 -75
Q 822 -75 551 178
Q 281 431 281 850
Q 281 1747 1338 1894
L 2297 2028
Q 2297 2844 1638 2844
Q 1059 2844 594 2450
L 594 2975
Q 1066 3275 1681 3275
Q 2809 3275 2809 2081
L 2809 0
z
M 2297 1619
L 1525 1513
Q 1169 1463 987 1336
Q 806 1209 806 888
Q 806 653 973 504
Q 1141 356 1419 356
Q 1800 356 2048 623
Q 2297 891 2297 1300
L 2297 1619
z
M 2522 3806
L 2141 3806
L 1628 4525
L 1113 3806
L 760 3806
L 1431 4844
L 1847 4844
L 2522 3806
z
M 1674 -981
Q 1546 -981 1455 -890
Q 1364 -800 1364 -672
Q 1364 -544 1458 -458
Q 1552 -372 1674 -372
Q 1802 -372 1892 -458
Q 1983 -544 1983 -672
Q 1983 -800 1892 -890
Q 1802 -981 1674 -981
z
" transform="scale(0.015625)"/>
     <path id="SegoeUI-39" d="M 3138 2509
Q 3138 1894 3016 1414
Q 2894 934 2659 601
Q 2425 269 2087 95
Q 1750 -78 1319 -78
Q 875 -78 538 78
L 538 569
Q 909 359 1331 359
Q 1634 359 1873 484
Q 2113 609 2278 848
Q 2444 1088 2531 1438
Q 2619 1788 2619 2241
L 2606 2241
Q 2319 1663 1606 1663
Q 1319 1663 1078 1764
Q 838 1866 663 2052
Q 488 2238 391 2494
Q 294 2750 294 3059
Q 294 3391 401 3666
Q 509 3941 701 4139
Q 894 4338 1158 4447
Q 1422 4556 1734 4556
Q 2072 4556 2333 4420
Q 2594 4284 2772 4023
Q 2950 3763 3044 3381
Q 3138 3000 3138 2509
z
M 2584 2969
Q 2584 3228 2517 3440
Q 2450 3653 2331 3804
Q 2213 3956 2048 4039
Q 1884 4122 1691 4122
Q 1506 4122 1347 4048
Q 1188 3975 1070 3842
Q 953 3709 886 3526
Q 819 3344 819 3128
Q 819 2891 883 2703
Q 947 2516 1065 2386
Q 1184 2256 1351 2187
Q 1519 2119 1722 2119
Q 1900 2119 2058 2186
Q 2216 2253 2333 2367
Q 2450 2481 2517 2636
Q 2584 2791 2584 2969
z
" transform="scale(0.015625)"/>
     <path id="SegoeUI-25" d="M 1263 2234
Q 800 2234 525 2539
Q 250 2844 250 3353
Q 250 3909 540 4229
Q 831 4550 1325 4550
Q 1803 4550 2067 4253
Q 2331 3956 2331 3419
Q 2331 2881 2036 2557
Q 1741 2234 1263 2234
z
M 1306 4206
Q 1009 4206 837 3986
Q 666 3766 666 3381
Q 666 3003 834 2792
Q 1003 2581 1294 2581
Q 1588 2581 1753 2800
Q 1919 3019 1919 3406
Q 1919 3784 1755 3995
Q 1591 4206 1306 4206
z
M 4263 4481
L 1388 -31
L 941 -31
L 3813 4481
L 4263 4481
z
M 3931 -69
Q 3469 -69 3194 237
Q 2919 544 2919 1050
Q 2919 1606 3212 1929
Q 3506 2253 3994 2253
Q 4469 2253 4734 1953
Q 5000 1653 5000 1113
Q 5000 578 4704 254
Q 4409 -69 3931 -69
z
M 3975 1900
Q 3675 1900 3504 1681
Q 3334 1463 3334 1075
Q 3334 703 3503 492
Q 3672 281 3963 281
Q 4256 281 4422 501
Q 4588 722 4588 1106
Q 4588 1488 4423 1694
Q 4259 1900 3975 1900
z
" transform="scale(0.015625)"/>
     <path id="SegoeUI-4e" d="M 4200 0
L 3556 0
L 1250 3572
Q 1163 3706 1106 3853
L 1088 3853
Q 1113 3709 1113 3238
L 1113 0
L 588 0
L 588 4481
L 1269 4481
L 3513 966
Q 3653 747 3694 666
L 3706 666
Q 3675 859 3675 1325
L 3675 4481
L 4200 4481
L 4200 0
z
" transform="scale(0.015625)"/>
     <path id="SegoeUI-103" d="M 2809 0
L 2297 0
L 2297 500
L 2284 500
Q 1950 -75 1300 -75
Q 822 -75 551 178
Q 281 431 281 850
Q 281 1747 1338 1894
L 2297 2028
Q 2297 2844 1638 2844
Q 1059 2844 594 2450
L 594 2975
Q 1066 3275 1681 3275
Q 2809 3275 2809 2081
L 2809 0
z
M 2297 1619
L 1525 1513
Q 1169 1463 987 1336
Q 806 1209 806 888
Q 806 653 973 504
Q 1141 356 1419 356
Q 1800 356 2048 623
Q 2297 891 2297 1300
L 2297 1619
z
M 2519 4594
Q 2488 4241 2242 4023
Q 1997 3806 1647 3806
Q 1282 3806 1050 4022
Q 819 4238 804 4594
L 1116 4594
Q 1154 4109 1654 4109
Q 1866 4109 2017 4240
Q 2169 4372 2201 4594
L 2519 4594
z
" transform="scale(0.015625)"/>
     <path id="SegoeUI-1eeb" d="M 3106 0
L 2594 0
L 2594 506
L 2581 506
Q 2263 -75 1594 -75
Q 450 -75 450 1288
L 450 3200
L 959 3200
L 959 1369
Q 959 356 1734 356
Q 2109 356 2351 632
Q 2594 909 2594 1356
L 2594 3200
L 2975 3200
Q 3159 3200 3282 3311
Q 3406 3422 3406 3578
Q 3406 3806 3344 3988
L 3763 3988
Q 3822 3813 3822 3563
Q 3822 2944 3106 2831
L 3106 0
z
M 2088 3806
L 1691 3806
L 872 4831
L 1397 4831
L 2088 3806
z
" transform="scale(0.015625)"/>
     <path id="SegoeUI-111" d="M 3250 0
L 2738 0
L 2738 544
L 2725 544
Q 2369 -75 1625 -75
Q 1022 -75 661 354
Q 300 784 300 1525
Q 300 2319 700 2797
Q 1100 3275 1766 3275
Q 2416 3275 2725 2756
L 2738 2756
L 2738 3756
L 1703 3756
L 1703 4175
L 2738 4175
L 2738 4738
L 3250 4738
L 3250 4175
L 3675 4175
L 3675 3756
L 3250 3756
L 3250 0
z
M 2738 1447
L 2738 1919
Q 2738 2306 2481 2575
Q 2225 2844 1831 2844
Q 1363 2844 1094 2500
Q 825 2156 825 1550
Q 825 997 1083 676
Q 1341 356 1775 356
Q 2200 356 2469 665
Q 2738 975 2738 1447
z
" transform="scale(0.015625)"/>
     <path id="SegoeUI-1ebf" d="M 3091 1472
L 831 1472
Q 844 938 1119 647
Q 1394 356 1875 356
Q 2416 356 2869 713
L 2869 231
Q 2447 -75 1753 -75
Q 1075 -75 687 361
Q 300 797 300 1588
Q 300 2334 723 2804
Q 1147 3275 1775 3275
Q 2403 3275 2747 2869
Q 3091 2463 3091 1741
L 3091 1472
z
M 2566 1906
Q 2563 2350 2352 2597
Q 2141 2844 1766 2844
Q 1403 2844 1150 2584
Q 897 2325 838 1906
L 2566 1906
z
M 2395 4281
L 2957 5050
L 3482 5050
L 2791 4281
L 2395 4281
z
M 2601 3806
L 2223 3806
L 1710 4269
L 1191 3806
L 838 3806
L 1513 4588
L 1926 4588
L 2601 3806
z
" transform="scale(0.015625)"/>
    </defs>
    <use xlink:href="#SegoeUI-4b"/>
    <use xlink:href="#SegoeUI-68" transform="translate(58.007812 0)"/>
    <use xlink:href="#SegoeUI-6f" transform="translate(114.599609 0)"/>
    <use xlink:href="#SegoeUI-1ea3" transform="translate(173.193359 0)"/>
    <use xlink:href="#SegoeUI-6e" transform="translate(224.072266 0)"/>
    <use xlink:href="#SegoeUI-67" transform="translate(280.664062 0)"/>
    <use xlink:href="#SegoeUI-20" transform="translate(339.550781 0)"/>
    <use xlink:href="#SegoeUI-74" transform="translate(366.943359 0)"/>
    <use xlink:href="#SegoeUI-69" transform="translate(400.830078 0)"/>
    <use xlink:href="#SegoeUI-6e" transform="translate(425.048828 0)"/>
    <use xlink:href="#SegoeUI-20" transform="translate(481.640625 0)"/>
    <use xlink:href="#SegoeUI-63" transform="translate(509.033203 0)"/>
    <use xlink:href="#SegoeUI-1ead" transform="translate(555.224609 0)"/>
    <use xlink:href="#SegoeUI-79" transform="translate(606.103516 0)"/>
    <use xlink:href="#SegoeUI-20" transform="translate(654.492188 0)"/>
    <use xlink:href="#SegoeUI-39" transform="translate(681.884766 0)"/>
    <use xlink:href="#SegoeUI-35" transform="translate(735.791016 0)"/>
    <use xlink:href="#SegoeUI-25" transform="translate(789.697266 0)"/>
    <use xlink:href="#SegoeUI-2e" transform="translate(871.533203 0)"/>
    <use xlink:href="#SegoeUI-20" transform="translate(893.212891 0)"/>
    <use xlink:href="#SegoeUI-4e" transform="translate(920.605469 0)"/>
    <use xlink:href="#SegoeUI-103" transform="translate(995.410156 0)"/>
    <use xlink:href="#SegoeUI-6d" transform="translate(1046.289062 0)"/>
    <use xlink:href="#SegoeUI-20" transform="translate(1132.421875 0)"/>
    <use xlink:href="#SegoeUI-73" transform="translate(1159.814453 0)"/>
    <use xlink:href="#SegoeUI-65" transform="translate(1202.246094 0)"/>
    <use xlink:href="#SegoeUI-65" transform="translate(1254.541016 0)"/>
    <use xlink:href="#SegoeUI-64" transform="translate(1306.835938 0)"/>
    <use xlink:href="#SegoeUI-20" transform="translate(1365.722656 0)"/>
    <use xlink:href="#SegoeUI-52" transform="translate(1393.115234 0)"/>
    <use xlink:href="#SegoeUI-61" transform="translate(1452.929688 0)"/>
    <use xlink:href="#SegoeUI-6e" transform="translate(1503.808594 0)"/>
    <use xlink:href="#SegoeUI-64" transform="translate(1560.400391 0)"/>
    <use xlink:href="#SegoeUI-6f" transform="translate(1619.287109 0)"/>
    <use xlink:href="#SegoeUI-6d" transform="translate(1677.880859 0)"/>
    <use xlink:href="#SegoeUI-20" transform="translate(1764.013672 0)"/>
    <use xlink:href="#SegoeUI-46" transform="translate(1791.40625 0)"/>
    <use xlink:href="#SegoeUI-6f" transform="translate(1840.234375 0)"/>
    <use xlink:href="#SegoeUI-72" transform="translate(1898.828125 0)"/>
    <use xlink:href="#SegoeUI-65" transform="translate(1932.21875 0)"/>
    <use xlink:href="#SegoeUI-73" transform="translate(1984.513672 0)"/>
    <use xlink:href="#SegoeUI-74" transform="translate(2026.945312 0)"/>
    <use xlink:href="#SegoeUI-20" transform="translate(2060.832031 0)"/>
    <use xlink:href="#SegoeUI-63" transform="translate(2088.224609 0)"/>
    <use xlink:href="#SegoeUI-68" transform="translate(2134.416016 0)"/>
    <use xlink:href="#SegoeUI-6f" transform="translate(2191.007812 0)"/>
    <use xlink:href="#SegoeUI-20" transform="translate(2249.601562 0)"/>
    <use xlink:href="#SegoeUI-74" transform="translate(2276.994141 0)"/>
    <use xlink:href="#SegoeUI-68" transform="translate(2310.880859 0)"/>
    <use xlink:href="#SegoeUI-65" transform="translate(2367.472656 0)"/>
    <use xlink:href="#SegoeUI-74" transform="translate(2419.767578 0)"/>
    <use xlink:href="#SegoeUI-61" transform="translate(2453.654297 0)"/>
    <use xlink:href="#SegoeUI-20" transform="translate(2504.533203 0)"/>
    <use xlink:href="#SegoeUI-74" transform="translate(2531.925781 0)"/>
    <use xlink:href="#SegoeUI-1eeb" transform="translate(2565.8125 0)"/>
    <use xlink:href="#SegoeUI-20" transform="translate(2624.601562 0)"/>
    <use xlink:href="#SegoeUI-2d" transform="translate(2651.994141 0)"/>
    <use xlink:href="#SegoeUI-30" transform="translate(2691.984375 0)"/>
    <use xlink:href="#SegoeUI-2e" transform="translate(2745.890625 0)"/>
    <use xlink:href="#SegoeUI-30" transform="translate(2767.570312 0)"/>
    <use xlink:href="#SegoeUI-34" transform="translate(2821.476562 0)"/>
    <use xlink:href="#SegoeUI-39" transform="translate(2875.382812 0)"/>
    <use xlink:href="#SegoeUI-34" transform="translate(2929.289062 0)"/>
    <use xlink:href="#SegoeUI-20" transform="translate(2983.195312 0)"/>
    <use xlink:href="#SegoeUI-111" transform="translate(3010.587891 0)"/>
    <use xlink:href="#SegoeUI-1ebf" transform="translate(3069.474609 0)"/>
    <use xlink:href="#SegoeUI-6e" transform="translate(3121.769531 0)"/>
    <use xlink:href="#SegoeUI-20" transform="translate(3178.361328 0)"/>
    <use xlink:href="#SegoeUI-2d" transform="translate(3205.753906 0)"/>
    <use xlink:href="#SegoeUI-30" transform="translate(3245.744141 0)"/>
    <use xlink:href="#SegoeUI-2e" transform="translate(3299.650391 0)"/>
    <use xlink:href="#SegoeUI-30" transform="translate(3321.330078 0)"/>
    <use xlink:href="#SegoeUI-34" transform="translate(3375.236328 0)"/>
    <use xlink:href="#SegoeUI-37" transform="translate(3429.142578 0)"/>
    <use xlink:href="#SegoeUI-30" transform="translate(3483.048828 0)"/>
    <use xlink:href="#SegoeUI-2e" transform="translate(3536.955078 0)"/>
   </g>
  </g>
 </g>
 <defs>
  <clipPath id="p14427ec1e5">
   <rect x="111.078281" y="50.4" width="569.16" height="259.2"/>
  </clipPath>
 </defs>
</svg>
